<?xml version="1.0" encoding="UTF-8"?>
<svg id="Layer_1" data-name="Layer 1" xmlns="http://www.w3.org/2000/svg" xmlns:xlink="http://www.w3.org/1999/xlink" viewBox="0 0 400 400">
  <defs>
    <style>
      .cls-1, .cls-2 {
        fill: #b6a1e0;
      }

      .cls-3 {
        stroke-width: 1.2px;
      }

      .cls-3, .cls-4, .cls-5, .cls-6, .cls-7, .cls-8, .cls-9, .cls-2, .cls-10, .cls-11, .cls-12, .cls-13, .cls-14, .cls-15, .cls-16, .cls-17 {
        fill-rule: evenodd;
      }

      .cls-3, .cls-5 {
        stroke: #38265c;
      }

      .cls-3, .cls-5, .cls-18, .cls-8, .cls-10 {
        fill: none;
        stroke-miterlimit: 10;
      }

      .cls-4 {
        fill: #ffe1da;
      }

      .cls-18 {
        stroke: #67548e;
        stroke-width: .25px;
      }

      .cls-6, .cls-19 {
        fill: #fff;
      }

      .cls-7, .cls-20 {
        fill: #67548e;
      }

      .cls-8 {
        stroke: #fff;
      }

      .cls-21, .cls-16 {
        fill: #eaddff;
      }

      .cls-22, .cls-12 {
        fill: #5cdbc2;
      }

      .cls-23 {
        fill: url(#linear-gradient-5);
      }

      .cls-24 {
        fill: url(#linear-gradient-6);
      }

      .cls-25 {
        fill: url(#linear-gradient-4);
      }

      .cls-26 {
        fill: url(#linear-gradient-3);
      }

      .cls-27 {
        fill: url(#linear-gradient-2);
      }

      .cls-9 {
        fill: #ffb3b0;
      }

      .cls-28 {
        fill: url(#linear-gradient);
      }

      .cls-2 {
        opacity: .5;
      }

      .cls-10 {
        stroke: #b6a1e0;
      }

      .cls-11 {
        fill: #816da8;
      }

      .cls-29 {
        fill: #f2f6f8;
      }

      .cls-30, .cls-13 {
        fill: #d2bcfd;
      }

      .cls-31, .cls-17, .cls-32 {
        fill: #00a38c;
      }

      .cls-14 {
        fill: #ffd3ca;
      }

      .cls-15 {
        fill: #38265c;
      }

      .cls-32 {
        opacity: .3;
      }
    </style>
    <linearGradient id="linear-gradient" x1="220.76" y1="189.41" x2="260.71" y2="-137.97" gradientUnits="userSpaceOnUse">
      <stop offset=".07" stop-color="#eaddff"/>
      <stop offset=".53" stop-color="#f6edff"/>
    </linearGradient>
    <linearGradient id="linear-gradient-2" x1="1065.93" y1="194.31" x2="1048.18" y2="72.67" gradientTransform="translate(1258.4) rotate(-180) scale(1 -1)" gradientUnits="userSpaceOnUse">
      <stop offset="0" stop-color="#eaddff"/>
      <stop offset=".52" stop-color="#eee3ff"/>
      <stop offset=".96" stop-color="#f6edff"/>
    </linearGradient>
    <linearGradient id="linear-gradient-3" x1="65.72" y1="114.71" x2="158.77" y2="-79.23" gradientUnits="userSpaceOnUse">
      <stop offset="0" stop-color="#eaddff"/>
      <stop offset=".46" stop-color="#f2e8ff"/>
      <stop offset=".61" stop-color="#f6edff"/>
    </linearGradient>
    <linearGradient id="linear-gradient-4" x1="3585.91" y1="1245.52" x2="3714.4" y2="1245.52" gradientTransform="translate(3638.81 2137.26) rotate(-130.84) scale(1 -1)" gradientUnits="userSpaceOnUse">
      <stop offset="0" stop-color="#5cdbc2"/>
      <stop offset=".21" stop-color="#5cdbc2" stop-opacity=".75"/>
      <stop offset=".49" stop-color="#5cdbc2" stop-opacity=".43"/>
      <stop offset=".72" stop-color="#5cdbc2" stop-opacity=".2"/>
      <stop offset=".9" stop-color="#5cdbc2" stop-opacity=".05"/>
      <stop offset="1" stop-color="#5cdbc2" stop-opacity="0"/>
    </linearGradient>
    <linearGradient id="linear-gradient-5" x1="74.73" y1="317.24" x2="74.73" y2="234.21" gradientUnits="userSpaceOnUse">
      <stop offset="0" stop-color="#5cdbc2"/>
      <stop offset=".39" stop-color="#5cdbc2" stop-opacity=".58"/>
      <stop offset=".81" stop-color="#5cdbc2" stop-opacity=".17"/>
      <stop offset="1" stop-color="#5cdbc2" stop-opacity="0"/>
    </linearGradient>
    <linearGradient id="linear-gradient-6" x1="77.21" y1="340.98" x2="77.21" y2="216.73" gradientUnits="userSpaceOnUse">
      <stop offset=".21" stop-color="#00a38c"/>
      <stop offset=".22" stop-color="#00a38c" stop-opacity=".99"/>
      <stop offset=".36" stop-color="#1cb49c" stop-opacity=".69"/>
      <stop offset=".5" stop-color="#33c2aa" stop-opacity=".44"/>
      <stop offset=".63" stop-color="#45cdb4" stop-opacity=".25"/>
      <stop offset=".76" stop-color="#51d4bb" stop-opacity=".11"/>
      <stop offset=".89" stop-color="#59d9c0" stop-opacity=".03"/>
      <stop offset="1" stop-color="#5cdbc2" stop-opacity="0"/>
    </linearGradient>
  </defs>
  <rect class="cls-21" y="0" width="400" height="400"/>
  <path class="cls-28" d="M339.81,0c-13.29,6.56-25.73,14.84-36.8,24.7-4.54,4.05-9.05,8.72-11.37,14.21,0,0,0,0,0,0-.38.89-.69,1.81-.94,2.74-.28,1.04-.48,2.11-.58,3.21-.49,5.43,2.71,11.23,7.22,13.77-1.35-.03-2.71,0-4.06.11.07,1.92.13,3.84.2,5.76-4.84-2.22-11.2,2.81-10.15,8.02-4.09-1.71-9.03,3.41-7.17,7.44-23.45-5.66-48.03-2.76-71.93.5-8.51,1.16-17.76,2.74-23.52,9.1,1.75,1.8,3.86,3.24,6.17,4.22-19.27-6.67-40.04-12.9-59.35-6.71-1.32.42-2.68.94-3.65,1.94-1.92,2-1.64,5.38-.12,7.69,1.02,1.55,2.45,2.73,4,3.77-2.92-1.44-6.25-1.85-9.64-1.96-3.29-.11-6.76,2.12-7.75,5.03-5.58-.6-11.92-1.76-18.42-3.05-8.83-1.75-16.59-4.8-23.11-7.98,8.8,5.12,20.76,10.95,35.62,15.25,4.9,1.42,9.62,2.52,14.14,3.38,1.16.3,2.21.5,2.96.59.28.03.56.06.83.09,9.67,1.61,18.24,2.12,25.23,2.15-.03-.01-.06-.02-.1-.03,32.07,1.65,64.35-.52,96.3-4.18,52.84-6.05,105.63-16.25,154.83-36.33V0h-58.84Z"/>
  <path class="cls-27" d="M.09,87.47c84.73,17.94,111.54,43.1,202.22,39.83,63.32-2.28,140.69-9.77,197.59-36.02v106.54C236.31,205.17,57.54,112.42.09,112.42v-24.95Z"/>
  <path class="cls-1" d="M272.66,48.2c.07.42-.11.87-.49.93l-56.23,9.31c-.32.05-.48-.52-.2-.7,1.48-.92,2.99-1.77,4.53-2.54l51.1-8.46c.36.27.71.59,1.04.93.14.14.23.33.26.52Z"/>
  <path class="cls-30" d="M271.36,46.75l-51.1,8.46c1.87-.94,3.78-1.77,5.71-2.49.65-.24,1.31-.47,1.97-.69,2.5-.81,5.05-1.44,7.64-1.89l30.14-4.99c1.92-.32,3.91.25,5.64,1.59Z"/>
  <polygon class="cls-30" points="236.63 50.71 227.94 52.59 226.11 52.99 225.98 52.73 222.1 45.04 224.98 44.57 235.58 50.16 236.63 50.71"/>
  <path class="cls-1" d="M236.28,51.2l30.12-4.99c.37-.06.76-.02,1.11.12h0l-32.4,5.37.53-.28c.2-.11.41-.18.64-.21Z"/>
  <path class="cls-1" d="M228.27,52.43s-.12.06-.32.16c-.66.33-2.44,1.29-3.56,2.07l-4.12.56c1.87-.94,3.78-1.77,5.71-2.49l-3.87-7.69,5.84,7,.32.39Z"/>
  <rect class="cls-1" x="245.67" y="53.72" width="5.31" height=".79" rx=".3" ry=".3" transform="translate(-5.5 41.3) rotate(-9.4)"/>
  <rect class="cls-1" x="248.93" y="52.6" width="1.03" height="1.36" transform="translate(-5.35 41.48) rotate(-9.4)"/>
  <path class="cls-26" d="M165.79,60.6c-.64-2.58-3.66-4.49-6.38-5.52-13.34-5.06-28.43-5.32-41.96-.85,3.2-8.79-3.1-19.15-11.67-23.31-6-2.91-12.68-3.59-19.42-3.47,1.74-1.19,3.18-2.86,3.99-4.76,2.23-5.24.99-11.27-.71-16.7-.63-2.02-1.35-4.01-2.1-5.99H-.88v44.7c35.54,13.1,80.48,24.63,125.14,24.99-.03.03-.07.05-.1.08.95-.02,1.92-.04,2.89-.07,8.08-.02,16.15-.42,24.15-1.25,7.24-.58,14.74-1.35,22.5-2.38,14.67-1.95,28.22-4.52,40.53-7.38-10.14,1.7-18.43,2.15-24.11,2.25-6.05.11-14.87-.09-24.33-.35Z"/>
  <path class="cls-8" d="M78.02,249.86c8.18-.6,16.72-2.55,24.07-6.26,13.4-6.77,20.37-19.89,21.5-34.51.16-2.05.21-4.12.18-6.17-.02-1.17-.06-2.33-.13-3.47l-.59-.39c-4.87-3.28-8.3-7.32-9.96-11.36-1.49-3.62-1.57-7.25,0-10.34,1.06-2.08,2.34-2.62,3.67-1.94,1.83.93,3.71,4.4,5.14,9.36,1.15,3.97,2.02,8.92,2.36,14.3,4.65,2.95,10.54,5.2,17.4,6.13,13.95,1.9,31.91-1.64,51.61-15.84,4.12-2.97,8.49-5.94,13.05-8.87,24.84-15.95,55.23-30.61,82.09-37.58,75.49-19.58,83.15,44.5,55.76,49.08"/>
  <path class="cls-8" d="M46.12,224c-1.63,7.81,1.24,15.82,7.79,20.49,6.93,4.94,15.83,5.98,24.12,5.37"/>
  <path class="cls-8" d="M123.6,198.64c-.36-5.14-1.21-9.87-2.3-13.68-1.38-4.79-3.14-8.11-4.81-8.97-.97-.49-1.95-.03-2.8,1.65-1.48,2.92-1.41,6.36.01,9.81,1.62,3.93,4.97,7.86,9.73,11.07l.17.12Z"/>
  <g>
    <rect class="cls-19" x="338.98" y="190.66" width="5.17" height="3.93" transform="translate(-39.91 101.78) rotate(-16.03)"/>
    <rect class="cls-19" x="343.2" y="190.87" width="2.35" height="1.79" transform="translate(-39.57 102.6) rotate(-16.04)"/>
    <rect class="cls-19" x="336.75" y="192.26" width="3.52" height="2.68" transform="translate(-40.28 100.91) rotate(-16.02)"/>
  </g>
  <path class="cls-6" d="M312.63,332.57s10.71-16.07,15.84-13.61c5.13,2.45-3.79,16.29,3.35,13.61,7.14-2.68,15.4-11.38,15.4-5.8s-18.97,24.77-18.97,24.77c0,0-20.08-.22-15.62-18.97Z"/>
  <path class="cls-6" d="M336.39,324.79c.72,0,1.31-.59,1.31-1.31s-.59-1.31-1.31-1.31-1.31.59-1.31,1.31.59,1.31,1.31,1.31Z"/>
  <path class="cls-6" d="M358.85,331.9c.9-.1,1.72.54,1.82,1.45.1.9-.54,1.72-1.45,1.83-.02,0-6.36.9-8.44-4.32-.34-.84.08-1.8.92-2.14.84-.34,1.8.08,2.14.92,1.12,2.8,5,2.26,5.01,2.26Z"/>
  <path class="cls-6" d="M327.03,308.12c-.91.04-1.68-.67-1.72-1.58-.04-.91.67-1.68,1.57-1.72.02,0,6.4-.44,8.11,4.91.27.87-.21,1.79-1.07,2.07-.87.27-1.79-.21-2.07-1.07-.92-2.87-4.82-2.61-4.83-2.61Z"/>
  <path class="cls-6" d="M252.8,188.77c8.19,0,16.1,3.34,22.23,8.72,6.13,5.37,10.5,12.8,11.65,20.99l4.21,30.01c.2,1.43.3,2.82.3,4.16,0,6.68-2.31,12.69-6.27,17.28-3.96,4.59-9.55,7.72-16.12,8.65-1.34.19-2.69.28-4.05.28-8.19,0-16.1-3.34-22.23-8.72-6.13-5.37-10.5-12.8-11.65-20.99l-4.21-30.01c-.2-1.43-.3-2.82-.3-4.16,0-6.68,2.31-12.69,6.27-17.28,3.96-4.59,9.55-7.72,16.12-8.65,1.34-.19,2.69-.28,4.05-.28h0ZM252.8,193.61c-1.19,0-2.32.08-3.39.23-5.37.75-9.93,3.3-13.14,7.02-3.21,3.72-5.08,8.64-5.08,14.13,0,1.17.08,2.34.24,3.5l4.21,30.01c.98,7,4.76,13.39,10.04,18.03,5.28,4.63,12.06,7.51,19.06,7.51,1.19,0,2.32-.08,3.39-.23,5.37-.75,9.93-3.3,13.14-7.02,3.21-3.72,5.08-8.64,5.08-14.13,0-1.17-.08-2.34-.24-3.5l-4.21-30.01c-.98-7-4.76-13.39-10.04-18.03-5.28-4.63-12.06-7.51-19.06-7.51Z"/>
  <path class="cls-11" d="M286.35,252.65c0-1.17-.08-2.34-.24-3.5l-4.21-30.01c-.98-7-4.76-13.39-10.04-18.03-5.28-4.63-12.06-7.51-19.06-7.51-1.19,0-2.32.08-3.39.23-1.61.23-3.14.63-4.59,1.16-6.85,4.94-10.67,13.47-9.32,23.12l4.21,30.01c1.61,11.49,10.1,21.39,20.72,25.54,1.42.24,2.86.37,4.32.37,1.19,0,2.32-.08,3.39-.23,5.37-.75,9.93-3.3,13.14-7.02,3.21-3.72,5.08-8.64,5.08-14.13Z"/>
  <g>
    <path class="cls-6" d="M271.2,275.75c-.59,0-1.18-.03-1.76-.06v2.79c4.03-.66,7.67-2.17,10.78-4.33-2.75,1.04-5.78,1.61-9.02,1.61h0Z"/>
    <path class="cls-6" d="M259.26,190.49h0c1.66,0,3.31.16,4.94.44-3.63-1.39-7.48-2.16-11.4-2.16-1.36,0-2.71.1-4.05.28-4.36.61-8.27,2.21-11.58,4.55h9.86c3.52-1.98,7.66-3.12,12.22-3.12Z"/>
    <path class="cls-6" d="M269.44,193.61h-16.64c5.97,0,11.78,2.1,16.64,5.6v-5.6Z"/>
    <path class="cls-15" d="M239.71,248.12l-4.21-30.01c-1.35-9.64,2.47-18.17,9.32-23.12-3.39,1.24-6.31,3.25-8.55,5.86-3.21,3.72-5.08,8.64-5.08,14.13,0,1.17.08,2.34.24,3.5l4.21,30.01c.98,7,4.76,13.39,10.04,18.03,4.19,3.67,9.31,6.23,14.74,7.14-10.61-4.15-19.11-14.05-20.72-25.54Z"/>
    <path class="cls-6" d="M249.41,193.83c1.07-.15,2.2-.23,3.39-.23h-5.77c-.76.43-1.51.88-2.21,1.39,1.45-.53,2.98-.94,4.59-1.16Z"/>
    <path class="cls-6" d="M264.75,274.03c-1.45,0-2.89-.13-4.32-.37,2.88,1.13,5.92,1.83,9.01,2.02v-2.12c-.43.09-.86.18-1.31.24-1.07.15-2.2.23-3.39.23Z"/>
  </g>
  <path class="cls-19" d="M215.02,229.11c1.17,0,3.4.1,4.66-.93,2.32-1.67,6.09-2.76,10.36-2.76,3.76,0,7.13.84,9.46,2.19.86.49,2.99.99,5.1.5,1.03-.24,2.17-.37,3.37-.37,3.18,0,5.94.93,7.34,2.29.4.39,1.59.79,3.13.53.77-.15,1.61-.24,2.48-.24,2.54,0,4.75.71,5.98,1.76h-10.61s-1.35,0-1.35,0h-45.63s0,0,0,0c0-1.64,2.55-2.96,5.7-2.96Z"/>
  <path class="cls-19" d="M287.77,248.23c-.38-.84-.75-1.69-1.11-2.54-.34-.8-.46-1.64-.33-2.42-.18,0-.35-.01-.53-.01-4.73,0-8.92,1.21-11.49,3.06-1.4,1.13-3.87,1.03-5.16,1.03-3.49,0-6.32,1.47-6.32,3.29,0,0,0,0,0,0h25.63c-.51-.68-.74-1.56-.68-2.42Z"/>
  <path class="cls-15" d="M78.78,325.9c25.14,0,45.64-20.51,45.64-45.65s-20.5-45.65-45.64-45.65-45.64,20.51-45.64,45.65,20.5,45.65,45.64,45.65Z"/>
  <path class="cls-15" d="M63.03,179.45c-2.8,2.44-4.74,5.08-5.2,7.88-1.92,11.74,3.01,88.28,35.8,151.67h112.56c-12.11-31.96-53.41-139.93-62.96-151.67-2.28-2.8-5.94-5.44-10.33-7.88,3.73-1.94,5.29-6.71,3.49-12.25l-1.44-4.41c-2.36-7.24-9.6-13.17-16.09-13.17h-61.22c-6.49,0-9.87,5.93-7.51,13.17l1.44,4.41c1.8,5.54,6.47,10.31,11.46,12.25Z"/>
  <path class="cls-7" d="M88.69,179.45c-2.8,2.44-4.74,5.08-5.2,7.88-1.91,11.74,3.01,88.28,35.8,151.67h112.56c-12.11-31.96-53.41-139.93-62.96-151.67-2.28-2.8-5.94-5.44-10.33-7.88,3.74-1.94,5.29-6.71,3.49-12.25l-1.44-4.41c-2.36-7.24-9.6-13.17-16.09-13.17h-61.22c-6.49,0-9.87,5.93-7.51,13.17l1.44,4.41c1.8,5.54,6.47,10.31,11.46,12.25Z"/>
  <path class="cls-7" d="M126.06,335.18h104.69c-8.58-22.59-17.3-45.14-26.23-67.6-6.71-16.89-13.52-33.8-20.75-50.48-2.64-6.08-5.33-12.18-8.24-18.13-1.3-2.65-3.32-6.95-5.17-9.23-2.28-2.8-6.09-5.21-9.22-6.95-1.26-.7-1.99-1.95-1.96-3.39.02-1.44.78-2.67,2.06-3.34,2.7-1.4,2.4-5.25,1.61-7.67l-1.44-4.41c-1.61-4.93-7.04-10.53-12.46-10.53h-61.22c-4.65,0-5.04,4.61-3.88,8.17l1.44,4.41c1.38,4.23,5.07,8.26,9.21,9.87,1.28.5,2.15,1.55,2.38,2.9.24,1.36-.22,2.64-1.25,3.54-1.57,1.36-3.59,3.47-3.94,5.61-.33,2.05-.32,4.58-.31,6.66.02,4.06.23,8.14.52,12.19.87,12.14,2.52,24.35,4.66,36.33,5.6,31.37,15.07,63.53,29.49,92.05Z"/>
  <path class="cls-11" d="M126.06,335.18h104.69c-8.58-22.59-17.3-45.14-26.23-67.6-6.71-16.89-13.52-33.8-20.75-50.48-2.64-6.08-5.33-12.18-8.24-18.13-1.3-2.65-3.32-6.95-5.17-9.23-2.28-2.8-6.09-5.21-9.22-6.95-1.26-.7-1.99-1.95-1.96-3.39.02-1.44.78-2.67,2.06-3.34,2.7-1.4,2.4-5.25,1.61-7.67l-1.44-4.41c-1.61-4.93-7.04-10.53-12.46-10.53h-61.22c-4.65,0-5.04,4.61-3.88,8.17l1.44,4.41c1.38,4.23,5.07,8.26,9.21,9.87,1.28.5,2.15,1.55,2.38,2.9.24,1.36-.22,2.64-1.25,3.54-1.57,1.36-3.59,3.47-3.94,5.61-.33,2.05-.32,4.58-.31,6.66.02,4.06.23,8.14.52,12.19.87,12.14,2.52,24.35,4.66,36.33,5.6,31.37,15.07,63.53,29.49,92.05Z"/>
  <path class="cls-15" d="M126.06,335.18h104.69c-8.58-22.59-17.3-45.14-26.23-67.6-3.52-8.87-7.08-17.75-10.7-26.59-15.28-7.05-31.85-14-31.85-14-.28.31-.61.57-.98.8l-3.98-14.95c.14,0,.27.02.41.03l-2.86-10.72c5.46-2.01,7.12-9.77,7-19.12l-.42-.24c-1.26-.7-1.99-1.95-1.96-3.39.02-1.43.76-2.64,2.02-3.31-.15-1.71-.34-3.43-.56-5.15l.6-.05-.03-.12h2.14c-.04-.4-.11-.8-.19-1.19h-2.7c-.11-.78-.22-1.56-.33-2.33.27-.73.53-1.51.77-2.32.23-.13.46-.25.69-.39l-.18-.56c-1.61-4.93-7.04-14.35-12.46-14.35h-42.23c.4,1.55.93,6.99,1.37,8.39.45,1.44,1.14,3.68,2,5.89-1.44,3.37,3.58,15.75,7.51,16.73.35.09.68.14.99.15l6.37,42.6-.32.46s-20.73,20.69-25.62,31.87c5.76,27.3,14.54,54.74,27.04,79.46Z"/>
  <path class="cls-6" d="M138.65,169.41c4.97,0,5.97-4.34,7.75-9.04l1.29-3.42v-7.32h-22.63c.42,2.15,1.6,4.03,3.25,5.35l2.06,14.43h8.27Z"/>
  <polygon class="cls-4" points="146.58 170.97 136.28 176.94 137.64 227.2 173.47 230.91 167.2 187.33 146.58 170.97"/>
  <path class="cls-15" d="M146.98,170.97l-5.14,2.98c-.75,17.14,11.81,38.03,29.43,38.92l-3.67-25.54-20.62-16.36Z"/>
  <path class="cls-4" d="M177.9,141.34c-.76,2.88,9.01,60.61-10.86,61.31-19.88.71-33.95-24.08-31.1-42.34,2.84-18.26,41.96-18.97,41.96-18.97Z"/>
  <path class="cls-4" d="M158.08,201.2c-14.95-5.52-24.54-25.52-22.15-40.89.6-3.82,2.78-6.87,5.87-9.31,3.49.71,6.36,1.37,6.36,1.37,0,0-2,23.73,3.25,29.55,3.98,4.41,5.51,13.64,6.67,19.28Z"/>
  <path class="cls-9" d="M177.9,141.34c-.73,2.77,8.29,56.34-8.76,60.99,0-.24.07-.48.25-.73,2.71-3.84.38-10.04-.25-12.24-.63-2.2.83-5.39,1.45-6.45.39-.67-1.47-2.89-1.03-3.88.45-.98,4.59-.84,5-2.31.42-1.47-5.44-27.37-5.72-28.71l5.75-6.51c2.05-.14,3.29-.16,3.29-.16Z"/>
  <path class="cls-6" d="M139.95,180.25c-.03-.13.07-.26.21-.28.14-.02.27.07.3.21,0,.04,2.19,12.76,15.51,19.25.13.06.18.21.12.33-.06.12-.22.17-.34.11-13.56-6.6-15.78-19.58-15.79-19.61Z"/>
  <path class="cls-9" d="M151.32,174.23c2.43-.4,4.78,1.17,5.25,3.5.47,2.34-1.12,4.56-3.55,4.96-2.43.4-4.78-1.17-5.24-3.5-.47-2.34,1.12-4.56,3.55-4.96Z"/>
  <path class="cls-6" d="M281.82,339.03c-1.62-2.67-47.94-78.96-55.15-85.46-7.34-6.61-52.57-26.59-52.57-26.59-5.57,5.42-24.63-2.1-36.95-3.15,0,0-29.89,26.57-31.04,35.77-1.14,9.2,17.84,79.1,17.84,79.1l126.95.32h30.91Z"/>
  <path class="cls-16" d="M127.66,267.25c8.55,8.34,18.69,19.75,28.23,34.58,8.77,13.64,14.67,26.49,18.66,37.07-20.37.94-28.7-5.33-32.44-9.75-5.64-6.67-4.79-13.81-9.47-38.71-1.84-9.83-3.69-17.84-4.99-23.18Z"/>
  <path class="cls-6" d="M157.43,326.99c-1.24-4.83-2.82-9.86-4.61-14.93-2.41-6.82-26.57-71.26-45.94-56.3-5.54,4.27-4.23,52.01,10.38,83.28h118.38c-17.12-20.64-55.11-16.8-78.21-12.05Z"/>
  <path class="cls-10" d="M208.06,324.54c-16.89-2.94-36.19-.41-50.09,2.45"/>
  <path class="cls-15" d="M222.84,261.45h113.96c1.48,0,2.27,1.34,1.77,2.98l-22.94,74.61h-119.34l22.94-74.61c.5-1.64,2.12-2.98,3.6-2.98Z"/>
  <path class="cls-7" d="M71.37,339.03c2.96-6.68,8.93-16.51,18.91-17.58,10.12-1.09,57.21,10.35,85.54,17.58h-104.44Z"/>
  <path class="cls-15" d="M71.37,339.03c1.91-4.31,5.75-10.64,12.18-11.33,6.52-.7,36.87,6.67,55.12,11.33h-67.3Z"/>
  <path class="cls-13" d="M137.43,219.59s8.69,7.79,29.43,9.33c0,0-2.28,4.43-3.31,11.03,0,0-19.81-1.93-29.72-13.09l3.6-7.27Z"/>
  <path class="cls-13" d="M166.86,228.93s4.31,1.98,7.14,9.15c0,0,5.89-2.78,7.14-7.92l-8.9-7.8s-1.18,4.82-5.39,6.57Z"/>
  <path class="cls-15" d="M132.37,168.26l-2.48-17.36c1.02-.47,2.25-1.14,3.44-.73l16.36,4.94-1.29,4.1c-1.78,4.7-2.78,9.04-7.75,9.04h-8.27Z"/>
  <path class="cls-15" d="M128.5,137.71h41.11c4.97,0,9.04,4.07,9.04,9.04v7.66l-7.37,3.67-33.74-4.64c-4.97,0-9.04-5.09-9.04-10.07v-5.67Z"/>
  <path class="cls-15" d="M127.28,137.36h13.52c4.88,0,8.88,4,8.88,8.88v8.88h-13.52c-4.88,0-8.88-4-8.88-8.88v-8.88Z"/>
  <path class="cls-15" d="M166.66,131.79h3.86c5.24,0,9.53,4.29,9.53,9.53v9.53h-3.86v-9.53c0-5.24-4.29-9.53-9.53-9.53Z"/>
  <path class="cls-15" d="M152.42,136.73h3.86c5.24,0,9.53,4.29,9.53,9.53v9.53h-3.86v-9.53c0-5.24-4.29-9.53-9.53-9.53Z"/>
  <path class="cls-7" d="M172.92,147.8v-3.86c0-5.24-4.29-9.53-9.53-9.53h-19.06c-5.24,0-9.53-4.29-9.53-9.53v3.86c0,5.24,4.29,9.53,9.53,9.53h19.06c5.24,0,9.53,4.29,9.53,9.53Z"/>
  <path class="cls-7" d="M166.7,155.12v-3.86c0-5.24-4.29-9.53-9.53-9.53h-19.06c-5.24,0-9.53-4.29-9.53-9.53v3.86c0,5.24,4.29,9.53,9.53,9.53h19.06c5.24,0,9.53,4.29,9.53,9.53Z"/>
  <path class="cls-15" d="M180.05,142.52h-3.86v11.96h1.93c1.06,0,1.93-.87,1.93-1.93v-10.03Z"/>
  <path class="cls-4" d="M137.49,168.44s-3.49-6.73-6.79-5.28c-3.3,1.45.52,16.38,4.71,17.46,4.19,1.08,6.28-3.34,2.08-12.18Z"/>
  <path class="cls-13" d="M224.76,261.45h113.96c1.48,0,2.27,1.34,1.77,2.98l-22.94,74.61h-119.33l22.94-74.61c.5-1.64,2.12-2.98,3.6-2.98Z"/>
  <path class="cls-2" d="M241.99,261.45h96.73c1.48,0,2.27,1.34,1.77,2.98l-22.94,74.61h-10.82l-64.74-77.58Z"/>
  <path class="cls-6" d="M273.18,292.09c4.06,0,6.23,3.65,4.85,8.15-1.39,4.5-5.8,8.15-9.86,8.15s-6.23-3.65-4.84-8.15c1.39-4.5,5.8-8.15,9.86-8.15Z"/>
  <path class="cls-15" d="M338.73,261.45h-24.64c-.49,1.96-.75,4.02-.75,6.13,0,11.69,7.9,21.53,18.66,24.48l8.5-27.63c.5-1.64-.29-2.98-1.77-2.98Z"/>
  <path class="cls-15" d="M249.41,193.83c-1.61.23-3.14.63-4.59,1.16-5,3.61-8.38,9.14-9.31,15.61h43.71c-1.8-3.6-4.33-6.83-7.36-9.49-5.28-4.63-12.06-7.51-19.06-7.51-1.19,0-2.32.08-3.39.23Z"/>
  <path class="cls-15" d="M248.24,207.97h15.86c1.45,0,2.64,1.19,2.64,2.64h0c0,1.45-1.19,2.64-2.64,2.64h-15.86c-1.45,0-2.64-1.19-2.64-2.64h0c0-1.45,1.19-2.64,2.64-2.64Z"/>
  <path class="cls-6" d="M238.74,339.03s8.99-12.73,12.57-10.8c3.58,1.92,7.38,8.83,11.11,5.77,3.73-3.06,8.29-8.66,15.14-7,6.85,1.66,13.85,10.67,16.28,6.12,2.44-4.55,5.71-11.19,11.03-4.02,5.33,7.17,7.46,9.93,7.46,9.93h-73.58Z"/>
  <path class="cls-19" d="M102.27,329.96c-5.33-7.17-8.6-.52-11.03,4.02-2.43,4.55-9.43-4.46-16.28-6.12-5.43-1.32-13.21,7-18.06,12.03h52.83s-2.13-2.76-7.46-9.93Z"/>
  <path class="cls-19" d="M46.16,341.01c.34,2.27.91,3.64,2.3,2.5.77-.63,1.84-1.73,3.11-3.04h-5.16c-.08.18-.16.36-.25.54Z"/>
  <path class="cls-6" d="M258.14,328.5c.72,0,1.31-.59,1.31-1.31s-.59-1.31-1.31-1.31-1.31.59-1.31,1.31.59,1.31,1.31,1.31Z"/>
  <path class="cls-6" d="M44.85,337.86c.72,0,1.31-.59,1.31-1.31s-.59-1.31-1.31-1.31-1.31.59-1.31,1.31.59,1.31,1.31,1.31Z"/>
  <path class="cls-6" d="M34.68,253.31c.72,0,1.31-.59,1.31-1.31s-.59-1.31-1.31-1.31-1.31.59-1.31,1.31.59,1.31,1.31,1.31Z"/>
  <path class="cls-6" d="M241,332c.72,0,1.31-.59,1.31-1.31s-.59-1.31-1.31-1.31-1.31.59-1.31,1.31.59,1.31,1.31,1.31Z"/>
  <path class="cls-6" d="M108.41,329.81c.72,0,1.31-.59,1.31-1.31s-.59-1.31-1.31-1.31-1.31.59-1.31,1.31.59,1.31,1.31,1.31Z"/>
  <path class="cls-6" d="M315.94,336.55c.72,0,1.31-.59,1.31-1.31s-.59-1.31-1.31-1.31-1.31.59-1.31,1.31.59,1.31,1.31,1.31Z"/>
  <path class="cls-6" d="M292.65,321.12c.3-.86,1.24-1.32,2.09-1.02.86.3,1.32,1.24,1.02,2.1,0,.02-1.94,6.12-7.54,5.74-.91-.06-1.59-.85-1.53-1.76.06-.91.85-1.59,1.75-1.53,3.01.2,4.2-3.53,4.2-3.54Z"/>
  <path class="cls-6" d="M58.28,326.51c.3-.86,1.24-1.32,2.09-1.02.86.3,1.32,1.24,1.02,2.1,0,.02-1.94,6.12-7.54,5.74-.91-.06-1.59-.85-1.53-1.76.06-.91.85-1.59,1.75-1.53,3.01.2,4.2-3.53,4.2-3.54Z"/>
  <path class="cls-6" d="M43.58,244.12c.9-.12,1.54-.94,1.42-1.84-.12-.9-.94-1.54-1.84-1.42-.02,0-6.39.65-7.16,6.21-.12.9.51,1.73,1.41,1.85.9.12,1.73-.51,1.85-1.41.41-2.98,4.31-3.39,4.32-3.39Z"/>
  <path class="cls-6" d="M328.38,239.16c.72,0,1.31-.59,1.31-1.31s-.59-1.31-1.31-1.31-1.31.59-1.31,1.31.59,1.31,1.31,1.31Z"/>
  <path class="cls-6" d="M323.36,233.63c.58-.7.49-1.74-.2-2.32-.7-.58-1.74-.49-2.32.2-.01.01-4.25,4.81-1.05,9.42.52.74,1.55.93,2.29.41.75-.52.93-1.55.41-2.29-1.72-2.47.87-5.41.87-5.42Z"/>
  <path class="cls-6" d="M230.8,330.95c.3-.86,1.24-1.32,2.1-1.02.86.3,1.32,1.24,1.02,2.1,0,.02-1.94,6.12-7.54,5.74-.91-.06-1.59-.85-1.53-1.76.06-.91.85-1.59,1.76-1.53,3,.2,4.2-3.53,4.2-3.54Z"/>
  <path class="cls-6" d="M313.45,316.73c.9.12,1.53.95,1.41,1.85-.12.9-.95,1.53-1.85,1.41-.02,0-6.38-.69-7.12-6.26-.12-.9.52-1.73,1.42-1.84.9-.12,1.73.52,1.85,1.42.4,2.99,4.29,3.42,4.3,3.42Z"/>
  <rect class="cls-21" x="9.11" y="339.05" width="381.78" height="60.95"/>
  <rect class="cls-19" x="50.03" y="339.05" width="299.94" height="1.01"/>
  <path class="cls-6" d="M74.73,235.41c-22.93,0-41.52,18.59-41.52,41.52s18.59,41.52,41.52,41.52,41.52-18.59,41.52-41.52-18.59-41.52-41.52-41.52Z"/>
  <path class="cls-8" d="M90.76,230.72c-.99-4.37-1.71-8.98-4.16-12.83-2.3-3.62-5.92-6.47-9.79-8.25-3.31-1.52-6.95-2.31-10.59-2.31-10.1,0-18.07,6.97-20.09,16.67"/>
  <path class="cls-21" d="M52.83,274.08s0,0,0-.01c0,0,0,0,0,0,0,0,0,0,0,.01Z"/>
  <path class="cls-6" d="M199.46,199.48l1.38.65v.02c.62-.26,1.35-.27,2.01.04.7.33,1.18.94,1.36,1.64l-1.33,2.85c-.65.31-1.43.34-2.13.01-.66-.31-1.13-.88-1.33-1.52l-2.93,6.27-1.38-.65,4.34-9.31Z"/>
  <path class="cls-6" d="M193.07,195.47l1.5.26v.02c.53-.42,1.24-.62,1.96-.49.77.13,1.39.6,1.74,1.23l-.54,3.1c-.55.47-1.29.7-2.05.57-.72-.13-1.31-.55-1.68-1.13l-1.19,6.82-1.5-.26,1.76-10.12Z"/>
  <polygon class="cls-7" points="212.44 184.21 215.23 183.78 213.61 181.76 212.44 184.21"/>
  <g>
    <circle class="cls-19" cx="340.37" cy="265.29" r="25.38"/>
    <path class="cls-7" d="M345.22,258.17c-1.69,0-3.25.59-4.48,1.58,0,0-.02,0-.03.02-.17.11-.97.66-1.8,2.11-.95,1.64-.89,3.37-.89,3.37v-.02.03c0,1.36-1.11,2.47-2.47,2.47s-2.47-1.11-2.47-2.47,1.11-2.47,2.47-2.47c.75,0,1.41.33,1.86.86.08-.37.3-1.2.81-2.14.69-1.23,1.94-2.26,2.03-2.34-1.76-2.23-3.97-3.75-4.7-3.75-1.28,0-7.17,4.76-7.17,9.8,0,3.95,3.22,7.17,7.17,7.17,1.69,0,3.23-.58,4.47-1.56,0,0,.02,0,.03-.02l.02-.02c.2-.12.97-.69,1.78-2.09.78-1.34.89-2.84.89-3.33v-.08c0-1.36,1.11-2.47,2.47-2.47s2.47,1.11,2.47,2.47-1.11,2.47-2.47,2.47c-.75,0-1.42-.33-1.87-.86-.08.36-.28,1.2-.83,2.17-.66,1.19-1.84,2.19-2.01,2.33,1.78,2.23,3.98,3.76,4.7,3.76,1.28,0,7.17-4.76,7.17-9.8.03-3.98-3.19-7.2-7.14-7.2Z"/>
    <path class="cls-16" d="M316.26,257.34c6.49,2.32,13.81.06,13.81.06-6.08-1.64-10.56-4.13-11.69-4.79-.86,1.49-1.57,3.07-2.12,4.73Z"/>
    <path class="cls-25" d="M330.07,257.44c-2.58-1.38-6.53-3.92-9.99-8.29-5.46-6.92-6.4-14.26-6.97-18.67-1.97-15.39,10.66-37.63,11.68-52.56,1.05-15.35-1.63-42.69-32.91-57.31-12.49,11.42-24.98,22.85-37.47,34.27,4.35,1.38,11.13,4.08,17.97,9.55,10.7,8.55,15.34,18.89,18.16,25.37,7.68,17.64,2.22,41.94,17.12,56.02,6.2,5.86,14.12,9.61,22.4,11.64Z"/>
  </g>
  <path class="cls-15" d="M159.78,170.83c.73,0,1.34.55,1.36,1.25.02.7-.55,1.27-1.27,1.28-.73.01-1.34-.55-1.36-1.25-.02-.7.55-1.27,1.27-1.28Z"/>
  <path class="cls-15" d="M176.83,170.64c.73,0,1.34.55,1.36,1.25.02.7-.55,1.27-1.27,1.28-.73.01-1.34-.55-1.36-1.25-.02-.7.55-1.27,1.27-1.28Z"/>
  <path class="cls-5" d="M173.33,167.12s3.11-2.26,6.1.19"/>
  <path class="cls-3" d="M174.28,171.56s2.11-1.92,5.18-.41"/>
  <path class="cls-3" d="M157.24,171.75s2.11-1.92,5.18-.41"/>
  <path class="cls-5" d="M155.44,166.52s1.79,1.23,8.35,1.02"/>
  <path class="cls-19" d="M158.98,182.76s4.01,3.44,10.74,2.01c0,0-1.15,2.73-.58,4.59,0,0-9.41,2.38-10.17-6.6Z"/>
  <path class="cls-9" d="M131.75,166.06c2.92,3.08,4.52,5.72,5.26,7.66,1.72,4.49-1.15,5.21-2.84-1.06l.66-.15c1.23,4.95,2.87,4.55,1.53,1.26-.7-1.74-2.24-4.29-5.1-7.27l.5-.43Z"/>
  <g>
    <path class="cls-7" d="M155.45,169.57h14.39l-2.93,9.53h-9.79c-.5,0-.97-.08-1.4-.23-.68-.24-1.24-.66-1.64-1.21-.39-.54-.63-1.2-.67-1.93-.03-.5.04-1.04.21-1.6l1.4-4.57h.42ZM168.22,170.76h-12.29l-1.16,3.78c-.13.42-.18.83-.16,1.2.03.49.17.93.43,1.27.25.34.6.6,1.04.75.29.11.63.16,1,.16h8.95l2.2-7.16Z"/>
    <path class="cls-7" d="M186.7,170.76h-12.29l-.44,1.45c-.14-.78-.3-1.63-.48-2.53l.03-.1h14.8l-1.52,4.97c-.39,1.26-1.25,2.4-2.33,3.23-1.08.83-2.39,1.34-3.67,1.34h-10.21l.22-.73c.57-.15,1.24-.28,1.86-.45h8.07c1.02,0,2.09-.43,2.98-1.11.9-.69,1.62-1.64,1.93-2.67l1.04-3.38Z"/>
    <path class="cls-7" d="M168.02,171.98s5.91-3.03,7.27.26l-1.23.36c-.78-1.88-5.39.42-5.4.43l-.64-1.05Z"/>
  </g>
  <g>
    <g>
      <path class="cls-20" d="M278.28,102.93c-.06.04-.12.08-.19.12l11.03,21.3.19-.1-11.04-21.32Z"/>
      <path class="cls-20" d="M288.98,104.25c-.07,0-.15.02-.22.02l4.38,20.63.21-.05-4.37-20.61Z"/>
      <path class="cls-20" d="M299.59,105.82l-2.81,19.56.22.03,2.81-19.55c-.07-.01-.14-.03-.21-.05Z"/>
      <path class="cls-20" d="M321.31,108.83l-16.83,17.59.16.15,16.83-17.59c-.05-.05-.1-.1-.15-.16Z"/>
      <path class="cls-20" d="M310.41,107.38l-9.97,18.49.19.1,10-18.55c-.08-.01-.15-.03-.22-.05Z"/>
    </g>
    <g>
      <polygon class="cls-31" points="314.69 127.06 283.52 122.58 283.21 124.73 283.7 124.8 279.86 151.54 310.05 155.88 313.89 129.14 314.38 129.21 314.69 127.06"/>
      <polygon class="cls-22" points="312.59 126.75 281.43 122.27 281.12 124.43 281.61 124.5 277.76 151.23 307.96 155.57 311.8 128.83 312.28 128.9 312.59 126.75"/>
      <polygon class="cls-31" points="281.61 124.5 311.8 128.83 311.52 130.76 281.48 125.36 281.61 124.5"/>
      <rect class="cls-29" x="300.26" y="150.42" width="6.22" height="2.77" transform="translate(24.67 -41.6) rotate(8.17)"/>
      <rect class="cls-31" x="308.17" y="125.36" width="1.09" height="2.77" transform="translate(478.07 -160.82) rotate(98.18)"/>
      <rect class="cls-31" x="284.78" y="122" width="1.09" height="2.77" transform="translate(448.03 -141.5) rotate(98.17)"/>
      <rect class="cls-31" x="293.91" y="120.32" width="3.01" height="30.5" transform="translate(471.62 -137.57) rotate(98.17)"/>
    </g>
    <g>
      <path class="cls-30" d="M302.85,85.8s-20.22-2.9-25.6,18.15c0,0,5.98-2.6,11.26,1.62,0,0,6.22-2.64,11.26,1.62,6.04-2.67,11.26,1.62,11.26,1.62,6.26-2.56,11.26,1.62,11.26,1.62.76-21.72-19.46-24.62-19.46-24.62Z"/>
      <path class="cls-1" d="M288.51,105.57s6.22-2.64,11.26,1.62l3.07-21.38c-12.2,2.94-14.34,19.77-14.34,19.77Z"/>
      <path class="cls-1" d="M302.85,85.8c10.88,6.26,8.19,23,8.19,23,6.26-2.56,11.26,1.62,11.26,1.62.76-21.72-19.46-24.62-19.46-24.62Z"/>
    </g>
    <g>
      <rect class="cls-20" x="272.03" y="137.65" width="29.19" height=".22" transform="translate(109.5 401.88) rotate(-81.82)"/>
      <rect class="cls-20" x="288.65" y="140.04" width="29.19" height=".22" transform="translate(121.41 420.4) rotate(-81.83)"/>
    </g>
  </g>
  <g>
    <path class="cls-7" d="M260.1,130.68c-.12-.76-.53-1.4-1.11-1.83-.58-.42-1.32-.63-2.08-.51l-60.59,9.32c-.76.12-1.4.53-1.83,1.11-.42.58-.63,1.32-.51,2.08l5.4,35.11c.12.76.53,1.4,1.11,1.83.58.42,1.32.63,2.08.51l5.45-.84c.93-.14,1.84.11,2.55.63.71.52,1.22,1.31,1.36,2.24l.17,1.1c.09.57.33,1.08.69,1.47.36.39.84.68,1.41.82.56.14,1.12.1,1.63-.08.5-.18.95-.52,1.29-.98l4.61-6.29c.28-.38.61-.68.98-.91.38-.23.8-.38,1.26-.45l39.18-6.03c.76-.12,1.4-.53,1.83-1.11.42-.58.63-1.32.51-2.08l-5.4-35.11Z"/>
    <path class="cls-13" d="M257.45,131.09c-.12-.76-.53-1.4-1.11-1.83-.58-.42-1.32-.63-2.08-.51l-60.59,9.32c-.76.12-1.4.53-1.83,1.11-.42.58-.63,1.32-.51,2.08l5.4,35.11c.12.76.53,1.4,1.11,1.83.58.42,1.32.63,2.08.51l5.45-.84c.93-.14,1.84.11,2.55.63.71.52,1.22,1.31,1.36,2.24l.17,1.1c.09.57.33,1.08.69,1.47.36.39.84.68,1.41.82.56.14,1.12.1,1.63-.08.5-.18.95-.52,1.29-.98l4.61-6.29c.28-.38.61-.68.98-.91.38-.23.8-.38,1.26-.45l39.18-6.03c.76-.12,1.4-.53,1.83-1.11.42-.58.63-1.32.51-2.08l-5.4-35.11Z"/>
    <g>
      <rect class="cls-19" x="200.37" y="146.19" width="18.48" height="2.56" rx="1.08" ry="1.08" transform="translate(-21.2 36.07) rotate(-9.36)"/>
      <g>
        <path class="cls-19" d="M219.61,156.46l-16.58,2.73c-.45.07-.89-.23-.96-.69h0c-.07-.45.23-.89.69-.96l16.58-2.73c.45-.07.89.23.96.69h0c.07.45-.23.89-.69.96Z"/>
        <rect class="cls-19" x="202.64" y="160.69" width="10.84" height="1.67" rx=".67" ry=".67" transform="translate(-23.51 36.01) rotate(-9.36)"/>
        <rect class="cls-19" x="215.85" y="158" width="17.06" height="1.67" rx=".84" ry=".84" transform="translate(-22.85 38.63) rotate(-9.36)"/>
        <path class="cls-19" d="M245.74,152.15l-21.75,3.59c-.45.07-.89-.23-.96-.69h0c-.07-.45.23-.89.69-.96l21.75-3.59c.45-.07.89.23.96.69h0c.07.45-.23.89-.69.96Z"/>
        <path class="cls-19" d="M220.9,164.26l-16.58,2.73c-.45.07-.89-.23-.96-.69h0c-.07-.45.23-.89.69-.96l16.58-2.73c.45-.07.89.23.96.69h0c.07.45-.23.89-.69.96Z"/>
        <path class="cls-19" d="M247.03,159.95l-21.75,3.59c-.45.07-.89-.23-.96-.69h0c-.07-.45.23-.89.69-.96l21.75-3.59c.45-.07.89.23.96.69h0c.07.45-.23.89-.69.96Z"/>
      </g>
      <rect class="cls-19" x="220.89" y="143.21" width="13.56" height="2.56" rx=".93" ry=".93" transform="translate(-20.48 38.97) rotate(-9.36)"/>
    </g>
    <path class="cls-15" d="M257.45,131.09c-.12-.76-.53-1.4-1.11-1.83-.58-.42-1.32-.63-2.08-.51l-5.95.92c-.77,1.66-1.3,3.47-1.54,5.38-1.17,9.46,5.2,18.16,14.37,20.08l-3.7-24.04Z"/>
    <g>
      <path class="cls-7" d="M264.44,152.3c8.78,1.09,16.82-5.19,17.91-13.97,1.09-8.78-5.19-16.82-13.96-17.91-8.78-1.09-16.82,5.19-17.91,13.97-1.09,8.78,5.19,16.82,13.96,17.91Z"/>
      <path class="cls-16" d="M262.08,152.2c8.78,1.09,16.82-5.19,17.91-13.97,1.09-8.78-5.19-16.82-13.96-17.91-8.78-1.09-16.82,5.19-17.91,13.97-1.09,8.78,5.19,16.82,13.96,17.91Z"/>
      <path class="cls-6" d="M262.39,149.68c7.39.91,14.16-4.37,15.07-11.76.91-7.39-4.37-14.16-11.75-15.07s-14.16,4.37-15.07,11.76c-.91,7.39,4.37,14.16,11.75,15.08Z"/>
    </g>
    <path class="cls-15" d="M268.46,124.7s10.37,14.9.61,17.18c-12.05,2.81-12.3-22.21-.61-17.18Z"/>
    <path class="cls-14" d="M267.53,126.5s-2.08,6.61-1.5,7.6c.58.98-3.75,2.09-5.15.32,0,0,.45-.3.98-1.24.58-1.05,1.25-2.89,1.48-6,0,0,.96-1.71,4.2-.68Z"/>
    <path class="cls-9" d="M262.42,131.92c.4-1.09.76-2.62.91-4.74,0,0,.51-.91,2.06-1,.5.02,1.09.14,1.79.42-.39,1.06-1.13,2.67-2.37,3.92-.88.89-1.71,1.29-2.39,1.4Z"/>
    <path class="cls-15" d="M263.78,120.87s2.41,5.12.11,6.22c-5.2,2.48-5.58-8.66-.11-6.22Z"/>
    <path class="cls-9" d="M261.68,122.06s-1.01,2.41-.68,4.96c.23,1.74.78,2.6,1.5,2.86.74.2,1.98.07,3.34-1.17,1.99-1.81,2.61-4.49,2.61-4.49.09-3.09-4.75-4.63-6.78-2.16Z"/>
    <path class="cls-14" d="M262.12,129.66c.12.09.25.16.38.21.74.2,1.98.07,3.34-1.17,1.99-1.81,2.61-4.49,2.61-4.49.05-1.69-1.37-2.91-3-3.27-.68.53-1.43,1.29-2.27,2.31-.02.12-.64,2.44-1.28,3.5,0,0,.06-.25,0,0-.06.25.33.9.33.9l.15.28-.15.26s.16.08.12.28c-.03.14-.27.68-.23,1.2Z"/>
    <path class="cls-15" d="M261.52,121.17c-1.09,3.07,2.5,3.66,4.39,4.33,1.29.46,1.8.96,1.45,2.55,6.66-7.91-3.21-11.26-5.56-7.47-.11.18-.21.38-.28.59Z"/>
    <path class="cls-14" d="M267.05,125.84s-.98,1.5-.56,1.98c.42.48,1.66-.54,2.14-1.37.48-.83-1.03-1.32-1.58-.61Z"/>
    <path class="cls-12" d="M262.6,148.02c3.13.39,6.12-.5,8.48-2.24,0-.26-.01-.52-.01-.79-.07-4.75-.64-8.85-1.88-9.58,0,0,0,0,0,0l-3.07-1.96-4.55-.28s-2.61-.06-3.45,1.21c-.81,1.22-1.92,6-2.73,9.93,1.83,1.98,4.34,3.35,7.21,3.7Z"/>
    <path class="cls-14" d="M261.86,133.18s.11,1.01.69,1.64c0,0,2.67-.23,3.38-1.37l-4.07-.27Z"/>
  </g>
  <g>
    <circle class="cls-19" cx="74.73" cy="276.93" r="41.52"/>
    <circle class="cls-23" cx="74.73" cy="276.93" r="41.52"/>
    <circle class="cls-23" cx="74.73" cy="276.93" r="41.52"/>
    <path class="cls-31" d="M74.73,318.44c6.37,0,12.41-1.44,17.81-4,.21-.1-1.91-3.12-2.12-3.36-3.14-3.5-7.97-3.23-12.1-4.61-2.71-.91-5.28-2.37-7.49-4.16-1.99-1.6-3.26-3.23-5.8-6.49-3.24-4.17-2.89-4.57-5.06-7.02-1.47-1.67-4.13-4.62-8.54-6.7-2.06-.98-5.4-2.56-9.91-2.2-1.22.1-4.61.42-7.94,2.71,2.77,20.24,20.13,35.84,41.13,35.84Z"/>
    <path class="cls-22" d="M37.95,257.66s.03.01.05.02c1.81.91,2.85,2.28,3.44,3.07,1.37,1.83,1.24,2.78,2.53,5.1,1.2,2.16,1.8,3.27,2.95,3.98.1.06,2.53,1.51,5.13.56,1.25-.46,2.29-1.38,3.37-3.14.69-1.13,3.28-5.4,3.51-14.53.08-3.01.11-4.52-.35-5.94-.86-2.62-2.63-4.54-4.46-5.91-6.86,3.93-12.49,9.77-16.17,16.78Z"/>
    <path class="cls-24" d="M74.73,235.41c-6.52,0-12.69,1.51-18.18,4.18-11.09,7.45-18.4,20.12-18.4,34.49,0,22.93,18.59,41.52,41.52,41.52,6.52,0,12.69-1.51,18.18-4.18,11.09-7.45,18.4-20.12,18.4-34.49,0-22.93-18.59-41.52-41.52-41.52Z"/>
    <path class="cls-22" d="M74.73,235.41c-1.07,0-2.14.04-3.19.12-.03.34-.05.7-.04,1.07.02.99.07,3.32,1.69,5.31,1.34,1.64,3.22,2.44,5.17,3.14,3.87,1.4,5.83,5.02,4.67,8.94-.16.55-.68,2.1-3.3,4.96-2.75,3-6.8,5.56-8.01,9.64-1.7,5.74,1.97,12.01,8.43,11.66,2.82-.15,5.14-1.87,7.36-3.48,1.63-1.18,3.41-2.59,5.54-2.38,2.2.21,3.98,1.74,5.85,2.76,3.66,2.02,7.96,1.56,11.6-.25,2.61-1.3,4.33-3.23,5.45-5.02-2.49-20.55-19.99-36.46-41.21-36.46Z"/>
    <g>
      <ellipse class="cls-32" cx="99.4" cy="270.27" rx="3.57" ry="1.01"/>
      <path class="cls-19" d="M99.35,254.62c-3.15,0-5.69,2.53-5.69,5.66,0,2.49,3.61,7.66,5.08,9.67.3.42.93.42,1.23,0,1.47-2.01,5.08-7.18,5.08-9.67,0-3.13-2.55-5.66-5.69-5.66ZM99.35,263.69c-1.71,0-3.09-1.38-3.09-3.08s1.39-3.08,3.09-3.08,3.09,1.38,3.09,3.08-1.39,3.08-3.09,3.08Z"/>
    </g>
    <path class="cls-31" d="M112.5,294.16c-2.62-.73-5.4-1.36-8.38-.16-2.75,1.1-4.23,3.17-4.84,4.06-3.01,4.33-2.08,9.09-1.93,9.79.25,1.19.67,2.21,1.14,3.11,6.05-4.23,10.91-10.02,14.01-16.8Z"/>
    <g>
      <ellipse class="cls-31" cx="52.86" cy="297.05" rx="2.09" ry=".59"/>
      <path class="cls-19" d="M52.83,287.87c-1.85,0-3.34,1.49-3.34,3.32,0,1.46,2.12,4.5,2.98,5.68.18.24.54.24.72,0,.86-1.18,2.98-4.22,2.98-5.68,0-1.83-1.5-3.32-3.34-3.32ZM52.83,293.19c-1,0-1.82-.81-1.82-1.8s.81-1.8,1.82-1.8,1.82.81,1.82,1.8-.81,1.8-1.82,1.8Z"/>
    </g>
    <path class="cls-20" d="M91.93,309.73c-2.63-2.94-6.18-3.66-9.31-4.29h-.03c-1.28-.27-2.49-.51-3.62-.89-2.39-.8-4.76-2.12-6.86-3.82-1.8-1.45-2.95-2.93-5.47-6.16-1.56-2-2.25-3.1-2.81-3.98-.61-.96-1.13-1.78-2.33-3.14-1.4-1.59-4.32-4.88-9.19-7.19-1.93-.91-5.16-2.45-9.47-2.45-.48,0-.98.02-1.46.06-2.97.24-5.66,1.07-8.01,2.48,0,.09.01.18.02.27,2.35-1.43,5.04-2.27,8.01-2.51.48-.04.97-.06,1.44-.06,4.25,0,7.45,1.52,9.37,2.42,4.82,2.28,7.72,5.56,9.11,7.14,1.18,1.34,1.7,2.16,2.3,3.1.56.89,1.26,1.99,2.83,4,2.53,3.25,3.68,4.73,5.51,6.2,2.12,1.71,4.52,3.05,6.94,3.86,1.14.38,2.36.63,3.65.89h.03c3.09.63,6.59,1.34,9.18,4.22.02.03,1.8,2.11,2.39,3.74.07-.04.14-.07.21-.11-.63-1.7-2.4-3.77-2.42-3.79Z"/>
    <path class="cls-20" d="M116.18,274.6c-1.36,1.65-3,2.95-4.89,3.9-2.32,1.16-4.79,1.77-7.14,1.77-2.21,0-4.27-.52-6.13-1.55-.49-.27-.95-.56-1.51-.91-1.25-.78-2.42-1.52-3.64-1.64-.08,0-.17-.01-.25-.01-1.24,0-2.52.94-3.77,1.84l-.47.34c-2.28,1.65-4.87,3.52-8.15,3.7-.2.01-.4.02-.6.02-3.24,0-6.07-1.4-7.97-3.95-2.08-2.79-2.71-6.54-1.67-10.02,1.01-3.4,3.64-5.82,5.97-7.97.88-.81,1.71-1.57,2.43-2.36,1.57-1.71,2.6-3.22,2.9-4.26.88-2.95-.55-5.67-3.56-6.75-2.02-.73-4.3-1.67-5.95-3.69-2-2.46-2.06-5.32-2.09-6.4,0-.3.01-.61.03-.92-.08,0-.16.02-.24.03-.02.3-.04.61-.03.9.02,1.1.09,4.02,2.14,6.54,1.68,2.07,4.01,3.03,6.05,3.77,2.88,1.04,4.25,3.64,3.41,6.46-.3,1-1.31,2.48-2.85,4.16-.72.78-1.54,1.54-2.44,2.37-2.34,2.16-4.99,4.6-6.02,8.06-1.06,3.56-.42,7.38,1.71,10.23,1.95,2.61,4.85,4.05,8.16,4.05.2,0,.41,0,.61-.02,3.35-.18,5.97-2.07,8.28-3.75l.47-.34c1.21-.88,2.47-1.79,3.63-1.79.07,0,.15,0,.22.01,1.16.11,2.31.84,3.53,1.6.56.35,1.03.65,1.52.92,1.9,1.05,4,1.58,6.24,1.58,2.39,0,4.89-.62,7.24-1.79,1.85-.92,3.46-2.19,4.81-3.77,0-.11-.01-.23-.02-.34Z"/>
  </g>
  <path class="cls-17" d="M87.34,251.02l3.21-.51.42,2.64.93-.15-.42-2.64,3.72-.59.42,2.64.93-.15-.42-2.64,3.21-.51-1.02-6.45c-3.98-2.74-8.45-4.82-13.26-6.05l2.29,14.41Z"/>
  <g>
    <g>
      <rect class="cls-19" x="87.1" y="232.63" width="9.92" height="13.04" transform="translate(-36.32 17.37) rotate(-9.01)"/>
      <g>
        <rect class="cls-19" x="94.13" y="237.24" width=".77" height="10.26" transform="translate(-36.81 17.8) rotate(-9.01)"/>
        <rect class="cls-19" x="90.33" y="237.84" width=".77" height="10.26" transform="translate(-37.01 17.25) rotate(-9.03)"/>
      </g>
    </g>
    <rect class="cls-19" x="88.78" y="229.03" width="3.93" height="5.17" transform="translate(-35.18 17.08) rotate(-9.02)"/>
  </g>
  <circle class="cls-18" cx="100.17" cy="295.72" r="2.8"/>
  <circle class="cls-18" cx="59.23" cy="252" r="1.92"/>
  <circle class="cls-18" cx="89.77" cy="298.26" r="1.17"/>
</svg>