<?xml version="1.0" encoding="UTF-8"?>
<svg id="Layer_1" data-name="Layer 1" xmlns="http://www.w3.org/2000/svg" xmlns:xlink="http://www.w3.org/1999/xlink" viewBox="0 0 400 400">
  <defs>
    <style>
      .cls-1, .cls-2, .cls-3 {
        fill: none;
      }

      .cls-4, .cls-5, .cls-6 {
        fill: #b6a1e0;
      }

      .cls-7 {
        fill: #ffe1da;
      }

      .cls-7, .cls-2, .cls-8, .cls-9, .cls-10, .cls-11, .cls-12, .cls-13, .cls-14, .cls-15, .cls-16, .cls-17, .cls-18, .cls-19, .cls-20, .cls-6 {
        fill-rule: evenodd;
      }

      .cls-2 {
        stroke: #38265c;
      }

      .cls-2, .cls-3 {
        stroke-miterlimit: 10;
      }

      .cls-5, .cls-21 {
        opacity: .5;
      }

      .cls-8, .cls-22 {
        fill: #fff;
      }

      .cls-9, .cls-23 {
        fill: #67548e;
      }

      .cls-24, .cls-17 {
        fill: #eaddff;
      }

      .cls-25, .cls-12 {
        fill: #5cdbc2;
      }

      .cls-26 {
        fill: url(#linear-gradient-3);
      }

      .cls-27 {
        fill: url(#linear-gradient-2);
      }

      .cls-10, .cls-28 {
        fill: #ffb3b0;
      }

      .cls-29 {
        fill: url(#linear-gradient);
      }

      .cls-11 {
        fill: #ff8685;
      }

      .cls-30, .cls-20 {
        fill: #3b47bc;
      }

      .cls-31 {
        fill: #f2f6f8;
      }

      .cls-13, .cls-32 {
        fill: #281616;
      }

      .cls-33, .cls-14 {
        fill: #d2bcfd;
      }

      .cls-34 {
        fill: #b4b1c8;
      }

      .cls-35, .cls-19, .cls-21 {
        fill: #00a38c;
      }

      .cls-15 {
        fill: #ffd3ca;
      }

      .cls-16, .cls-18, .cls-36 {
        fill: #38265c;
      }

      .cls-18 {
        opacity: .25;
      }

      .cls-3 {
        stroke: #00a38c;
      }

      .cls-37 {
        clip-path: url(#clippath);
      }
    </style>
    <linearGradient id="linear-gradient" x1="220.76" y1="189.41" x2="260.71" y2="-137.97" gradientUnits="userSpaceOnUse">
      <stop offset=".07" stop-color="#eaddff"/>
      <stop offset=".53" stop-color="#f6edff"/>
    </linearGradient>
    <linearGradient id="linear-gradient-2" x1="231.36" y1="231.48" x2="205.35" y2="53.24" gradientTransform="translate(418.4) rotate(-180) scale(1 -1)" gradientUnits="userSpaceOnUse">
      <stop offset="0" stop-color="#eaddff"/>
      <stop offset=".52" stop-color="#eee3ff"/>
      <stop offset=".96" stop-color="#f6edff"/>
    </linearGradient>
    <linearGradient id="linear-gradient-3" x1="65.72" y1="114.71" x2="158.77" y2="-79.23" gradientUnits="userSpaceOnUse">
      <stop offset="0" stop-color="#eaddff"/>
      <stop offset=".46" stop-color="#f2e8ff"/>
      <stop offset=".61" stop-color="#f6edff"/>
    </linearGradient>
    <clipPath id="clippath">
      <circle class="cls-1" cx="92.57" cy="309.44" r="53.33"/>
    </clipPath>
  </defs>
  <rect class="cls-24" x=".49" y="-.04" width="400" height="400"/>
  <path class="cls-19" d="M286.41,240.26c2.03-.85,4.72-1.71,7.94-2.05,7.38-.8,13.23,1.52,16.06,2.89-.36-.69-.79-1.74-.93-3.08-.07-.67-.05-1.27,0-1.77-.77-.94-4.71-5.53-11.58-6.26-7.37-.78-12.43,3.48-13.26,4.2.59,2.02,1.18,4.05,1.77,6.07Z"/>
  <path class="cls-14" d="M341.46,307.41s-106.73-119.46-131.14-76.78c-20.66,36.13-40.82,9.22-98.1-15.79-38.95-17.01-71.14,58.82-32.88,124.96h276.74s4.84-14.47-14.62-32.39Z"/>
  <path class="cls-8" d="M257.94,336.47s-11.22-16.83-16.6-14.26c-5.38,2.57,3.97,17.07-3.51,14.26-7.48-2.81-16.13-11.92-16.13-6.08s19.87,25.95,19.87,25.95c0,0,21.04-.23,16.36-19.87Z"/>
  <path class="cls-8" d="M211.38,328.82c-.76,0-1.37-.62-1.37-1.37s.62-1.37,1.37-1.37,1.37.62,1.37,1.37-.62,1.37-1.37,1.37Z"/>
  <path class="cls-8" d="M190.09,323.95c-.95-.11-1.8.57-1.91,1.52-.11.95.57,1.8,1.52,1.91.02,0,6.66.94,8.84-4.52.35-.88-.08-1.89-.97-2.24-.88-.35-1.89.08-2.24.97-1.17,2.93-5.23,2.37-5.24,2.37Z"/>
  <path class="cls-8" d="M170.3,319.57c.95.04,1.76-.7,1.8-1.65.04-.95-.7-1.76-1.65-1.8-.02,0-6.71-.46-8.5,5.14-.29.91.22,1.88,1.12,2.16.91.29,1.88-.22,2.16-1.12.96-3.01,5.05-2.74,5.06-2.74Z"/>
  <path class="cls-8" d="M215.77,340.03s-9.42-13.33-13.16-11.32c-3.75,2.02-7.73,9.25-11.64,6.05-3.91-3.21-8.69-9.07-15.86-7.33-7.17,1.74-14.51,11.18-17.06,6.41-2.55-4.76-5.98-11.73-11.56-4.21-5.58,7.51-7.81,10.4-7.81,10.4h77.09Z"/>
  <path class="cls-8" d="M261.69,328.09c.76,0,1.37-.62,1.37-1.37s-.62-1.37-1.37-1.37-1.37.62-1.37,1.37.62,1.37,1.37,1.37Z"/>
  <path class="cls-8" d="M177.23,321.87c.76,0,1.37-.62,1.37-1.37s-.62-1.37-1.37-1.37-1.37.62-1.37,1.37.62,1.37,1.37,1.37Z"/>
  <path class="cls-8" d="M249.3,317.85c.76,0,1.37-.62,1.37-1.37s-.62-1.37-1.37-1.37-1.37.62-1.37,1.37.62,1.37,1.37,1.37Z"/>
  <path class="cls-8" d="M355.96,321.87c.76,0,1.37-.62,1.37-1.37s-.62-1.37-1.37-1.37-1.37.62-1.37,1.37.62,1.37,1.37,1.37Z"/>
  <path class="cls-8" d="M234.41,318.94c.31-.9,1.29-1.38,2.19-1.07.9.31,1.38,1.29,1.07,2.2,0,.02-2.03,6.41-7.9,6.02-.95-.07-1.67-.89-1.6-1.84.07-.95.89-1.67,1.84-1.6,3.15.21,4.4-3.69,4.4-3.7Z"/>
  <path class="cls-8" d="M357.41,327.88c.31-.9,1.29-1.38,2.2-1.07.9.31,1.38,1.29,1.07,2.2,0,.02-2.03,6.41-7.9,6.02-.95-.07-1.67-.89-1.6-1.84.07-.95.89-1.67,1.84-1.6,3.15.21,4.4-3.69,4.4-3.7Z"/>
  <rect class="cls-24" y="339.14" width="400" height="60.86"/>
  <path class="cls-8" d="M52.66,339.14c.02.35.02.71,0,1.06h304.18v-1.06H52.66Z"/>
  <path class="cls-29" d="M339.81,0c-13.29,6.56-25.73,14.84-36.8,24.7-4.54,4.05-9.05,8.72-11.37,14.21,0,0,0,0,0,0-.38.89-.69,1.81-.94,2.74-.28,1.04-.48,2.11-.58,3.21-.49,5.43,2.71,11.23,7.22,13.77-1.35-.03-2.71,0-4.06.11.07,1.92.13,3.84.2,5.76-4.84-2.22-11.2,2.81-10.15,8.02-4.09-1.71-9.03,3.41-7.17,7.44-23.45-5.66-48.03-2.76-71.93.5-8.51,1.16-17.76,2.74-23.52,9.1,1.75,1.8,3.86,3.24,6.17,4.22-19.27-6.67-40.04-12.9-59.35-6.71-1.32.42-2.68.94-3.65,1.94-1.92,2-1.64,5.38-.12,7.69,1.02,1.55,2.45,2.73,4,3.77-2.92-1.44-6.25-1.85-9.64-1.96-3.29-.11-6.76,2.12-7.75,5.03-5.58-.6-11.92-1.76-18.42-3.05-8.83-1.75-16.59-4.8-23.11-7.98,8.8,5.12,20.76,10.95,35.62,15.25,4.9,1.42,9.62,2.52,14.14,3.38,1.16.3,2.21.5,2.96.59.28.03.56.06.83.09,9.67,1.61,18.24,2.12,25.23,2.15-.03-.01-.06-.02-.1-.03,32.07,1.65,64.35-.52,96.3-4.18,52.84-6.05,105.63-16.25,154.83-36.33V0h-58.84Z"/>
  <path class="cls-27" d="M.09,87.47c84.73,17.94,111.54,43.1,202.22,39.83,63.32-2.28,140.69-9.77,197.59-36.02v106.54C236.31,205.17,57.54,112.42.09,112.42v-24.95Z"/>
  <path class="cls-4" d="M272.66,48.2c.07.42-.11.87-.49.93l-56.23,9.31c-.32.05-.48-.52-.2-.7,1.48-.92,2.99-1.77,4.53-2.54l51.1-8.46c.36.27.71.59,1.04.93.14.14.23.33.26.52Z"/>
  <path class="cls-33" d="M271.36,46.75l-51.1,8.46c1.87-.94,3.78-1.77,5.71-2.49.65-.24,1.31-.47,1.97-.69,2.5-.81,5.05-1.44,7.64-1.89l30.14-4.99c1.92-.32,3.91.25,5.64,1.59Z"/>
  <polygon class="cls-33" points="236.63 50.71 227.94 52.59 226.11 52.99 225.98 52.73 222.1 45.04 224.98 44.57 235.58 50.16 236.63 50.71"/>
  <path class="cls-4" d="M236.28,51.2l30.12-4.99c.37-.06.76-.02,1.11.12h0l-32.4,5.37.53-.28c.2-.11.41-.18.64-.21Z"/>
  <path class="cls-4" d="M228.27,52.43s-.12.06-.32.16c-.66.33-2.44,1.29-3.56,2.07l-4.12.56c1.87-.94,3.78-1.77,5.71-2.49l-3.87-7.69,5.84,7,.32.39Z"/>
  <rect class="cls-4" x="245.67" y="53.72" width="5.31" height=".79" rx=".3" ry=".3" transform="translate(-5.5 41.3) rotate(-9.4)"/>
  <rect class="cls-4" x="248.93" y="52.6" width="1.03" height="1.36" transform="translate(-5.35 41.48) rotate(-9.4)"/>
  <path class="cls-26" d="M165.79,60.6c-.64-2.58-3.66-4.49-6.38-5.52-13.34-5.06-28.43-5.32-41.96-.85,3.2-8.79-3.1-19.15-11.67-23.31-6-2.91-12.68-3.59-19.42-3.47,1.74-1.19,3.18-2.86,3.99-4.76,2.23-5.24.99-11.27-.71-16.7-.63-2.02-1.35-4.01-2.1-5.99H-.88v44.7c35.54,13.1,80.48,24.63,125.14,24.99-.03.03-.07.05-.1.08.95-.02,1.92-.04,2.89-.07,8.08-.02,16.15-.42,24.15-1.25,7.24-.58,14.74-1.35,22.5-2.38,14.67-1.95,28.22-4.52,40.53-7.38-10.14,1.7-18.43,2.15-24.11,2.25-6.05.11-14.87-.09-24.33-.35Z"/>
  <g>
    <circle class="cls-36" cx="92.57" cy="309.44" r="53.33"/>
    <circle class="cls-23" cx="92.57" cy="309.44" r="53.33"/>
    <circle class="cls-36" cx="96.39" cy="311.87" r="53.33"/>
    <circle class="cls-23" cx="92.57" cy="309.44" r="53.33"/>
    <g>
      <g class="cls-37">
        <g>
          <path class="cls-10" d="M143.87,294.83c-3.1.42-8.23-.04-12.97.13-6.24.23-13.44,1.3-18.48,1.87-1.92,1.56-7.26,4.57-9.96,5.53h0s-9.49,3.98-10.31,3.64c-.82-.34-.84-.75-.34-1.21.33-.29,4.55-2.4,7.6-3.9-1.57-2.78-2.56-7.96-1.36-8.8,1.32-.92,7.66-1.75,10.39-2.07,6.62-.77,24.46-8.67,29.25-12.45.83-.65,1.68-1.27,2.55-1.85l3.62,19.1Z"/>
          <g>
            <path class="cls-15" d="M105.43,290.42c1.17-.16,2.24-.3,3.02-.39,6.62-.77,24.46-8.67,29.25-12.45.83-.65,1.68-1.27,2.55-1.85v8.91c-1.75.28-5.22.85-8.74,1.61-5,1.07-16.34,7.55-20.63,7.86-4.29.31-5.71-2.1-5.71-2.1-.08-.5.02-1.03.26-1.59Z"/>
            <path class="cls-11" d="M97.82,295.3s-11.18,6.14-11.44,7.07c-.26.92.08,1.22.8,1.09.72-.13,11.41-5.35,11.72-5.56.31-.21-1.09-2.59-1.09-2.59Z"/>
            <path class="cls-11" d="M100.42,300.05s-11.71,5.05-12.6,4.68c-.88-.37-.91-.81-.37-1.3.55-.49,11.23-5.72,11.59-5.83.36-.11,1.37,2.45,1.37,2.45Z"/>
            <path class="cls-10" d="M98.12,292.06s-11.18,6.14-11.44,7.06c-.26.92.08,1.22.8,1.09.72-.13,11.41-5.35,11.72-5.56.31-.21-1.09-2.59-1.09-2.59Z"/>
            <path class="cls-15" d="M94.88,287.99s3.26,1.87,6.35,1.15c2.37-.55,5.69.39,7.12.86.44.14.7.25.7.25,1.43,2.19-2.42,4.66-5.95,3.07-3.53-1.59-3.7-2-4.8-2.08-1.1-.08-4.65-1.39-3.42-3.25Z"/>
          </g>
          <path class="cls-32" d="M110.06,288.57h2.65c.33,0,.6.27.6.6v7.45c0,.33-.27.6-.6.6h-2.65c-.33,0-.6-.27-.6-.6v-7.45c0-.33.27-.6.6-.6Z" transform="translate(-79.47 44.36) rotate(-16.7)"/>
          <path class="cls-16" d="M137.11,319.14s-14.67,13.78-17.61,14.54c-2.94.75-8.78-.8-10.14.98-.9,1.15-3.61,2.22-5.65,1.9-2.04-.32-3.01-.62-3.14.27-.13.89,2,2.12,4.65,2.39,2.65.26,4.72-.89,5.57.16-1.3,2.96-2.6,5.92-3.9,8.88-.64,2.02,1.79,2.39,4.6,1.38.84-.3,2.88.77,3.59.16,1.79-1.52,3.14.12,3.97-.67,1.04-.98,1.93-1.6,1.97-2.04,0,0,1.41-5.72,4.86-7.45,1.97-.99,17.19-10.32,23.14-13.08v-17.95c-1,1-10.83,9.18-11.92,10.54Z"/>
          <g>
            <polygon class="cls-20" points="53.14 364.66 54.22 364.47 53.14 362.18 53.14 364.66"/>
            <path class="cls-16" d="M122.43,298.01l-83.13,13.87c1.03,22.88,16.47,42,37.47,48.51l48.4-8.76c2.13-1.65,4.13-3.45,5.98-5.4l-8.72-48.22Z"/>
            <rect class="cls-30" x="98.6" y="308.16" width="20.29" height="10.21" transform="translate(-54.03 24.36) rotate(-10.25)"/>
            <g>
              <rect class="cls-30" x="102.32" y="311.09" width="12.21" height=".85" transform="translate(-53.72 24.28) rotate(-10.25)"/>
              <rect class="cls-30" x="102.64" y="312.84" width="12.21" height=".85" transform="translate(-54.04 24.37) rotate(-10.26)"/>
              <rect class="cls-30" x="110.53" y="313.91" width="4.58" height=".85" transform="translate(-54.15 25.1) rotate(-10.25)"/>
            </g>
          </g>
          <path class="cls-10" d="M103.2,346.72c0,.3,2,2.84,4.75,2.63,2.75-.21,4.83-3.2,4.83-3.2l-9.57.57Z"/>
          <path class="cls-11" d="M100.11,321.99h0s.51-.14.51-.14c2.39-.7,7.61-2.89,7.61-2.89h0c2.73-.97,8.65-4.42,9.03-5.29.02-.05.04-.11.05-.18-.26-.27-.65-.53-1.22-.78,0,0-4.79,3.58-6.94,4.89-2.15,1.31-9.02,4.38-9.03,4.38Z"/>
          <g>
            <polygon class="cls-19" points="79.1 298.53 33.57 308.4 48.36 358.21 88.58 350.93 79.1 298.53"/>
            <rect class="cls-25" x="71.34" y="295.71" width="51.45" height="53.25" transform="translate(-55.84 22.43) rotate(-10.26)"/>
            <rect class="cls-22" x="101.44" y="299.05" width="14.34" height="7.21" transform="translate(-52.15 24.17) rotate(-10.26)"/>
            <g>
              <rect class="cls-34" x="104.07" y="301.12" width="8.63" height=".6" transform="translate(-51.93 24.11) rotate(-10.25)"/>
              <rect class="cls-34" x="104.3" y="302.36" width="8.63" height=".6" transform="translate(-52.15 24.17) rotate(-10.26)"/>
              <rect class="cls-34" x="109.88" y="303.12" width="3.24" height=".6" transform="translate(-52.24 24.7) rotate(-10.26)"/>
            </g>
          </g>
          <g>
            <path class="cls-19" d="M81.93,314.17l-1.06-5.83-.31-.38.26.08-.38-2.1-7.09-4.3-9.53,13.07c.61.15,17.64,1.68,17.64,1.68l-2.6-2.77,3.07.56Z"/>
            <path class="cls-19" d="M68.41,308.42l1.25,6.89c5.14.48,11.81,1.08,11.81,1.08l-2.6-2.77,7.49,1.36-5.78-7.02,6.41,1.95-13.62-8.26-4.95,6.78Z"/>
          </g>
          <path class="cls-19" d="M103.51,337.38l-2.32.39s4.09,1.81,7.65,1.58c3.56-.23-1.86,8.06-1.86,8.06,0,0,8.41-5.87,8.63-6.59.23-.72.91-4.46.42-4.58-.49-.11-12.52,1.14-12.52,1.14Z"/>
          <path class="cls-15" d="M119.5,331.81c-2.94,1.04-8.78.06-10.14,1.98-.9,1.24-3.61,2.57-5.65,2.46-2.04-.12-3.01-.32-3.14.58-.13.9,2,1.93,4.65,1.93,2.65,0,5.56-1.29,5.31-.44-1.3,3.09-2.35,6.22-3.65,9.31-.64,2.08,1.79,2.21,4.6.93.84-.38,2.88.48,3.59-.2,1.79-1.7,3.14-.19,3.97-1.06,1.04-1.08,1.93-1.79,1.97-2.23,0,0,1.41-5.86,4.86-7.93,1.97-1.18,17.19-11.15,23.14-14.49v-17.95c-1,1.1-26.59,26.08-29.53,27.12Z"/>
          <path class="cls-10" d="M107.54,346.08l-.79,1.57c-.64,2.08,1.94,2.18,4.74.9.84-.38,2.88.48,3.59-.2,1.79-1.7,3.14-.19,3.97-1.06,1.04-1.08,1.93-1.79,1.97-2.23,0,0,1.41-5.86,4.86-7.93,1.97-1.18,17.19-11.15,23.14-14.49v-6.46c-5.99,4.23-24.61,18.26-25.81,19.51-1.74,1.82-3.67,9.5-4.65,10.22-.98.72-2.61.15-3.48.83-.87.68-4.58,1.7-6.02,1.44-1.43-.26-1.76-1.54-1.53-2.1Z"/>
          <rect class="cls-22" x="64.45" y="306.33" width="9.59" height=".88"/>
          <g>
            <path class="cls-15" d="M48.36,304.8c3.9.38,7.63.97,10.72,1.32,2.15,1.74,8.12,5.11,11.14,6.19h0s10.61,4.45,11.53,4.07c.92-.38.94-.84.38-1.35-.36-.33-5.09-2.69-8.5-4.36,1.76-3.11,2.87-8.9,1.52-9.84-1.48-1.03-8.57-1.96-11.62-2.31-3.34-.39-9.22-2.4-15.17-4.87v11.16Z"/>
            <path class="cls-11" d="M48.36,304.8c5.53.55,10.75,1.5,14.23,1.61-1.19-1.39-2.45-2.41-3.76-2.76-1.79-.49-5.64-1.01-10.47-1.65v2.81Z"/>
            <path class="cls-10" d="M80.94,316.29h0s-.67-.18-.67-.18c-3.15-.92-10.04-3.81-10.04-3.81h0c-3.61-1.29-11.41-5.83-11.92-6.99-.03-.07-.05-.14-.06-.23.34-.35.86-.7,1.61-1.04,0,0,6.33,4.73,9.16,6.46,2.83,1.73,11.91,5.78,11.92,5.78Z"/>
            <path class="cls-15" d="M75.42,304.41s12.51,6.87,12.79,7.9c.29,1.03-.09,1.36-.89,1.22-.81-.15-12.77-5.98-13.11-6.22-.34-.24,1.21-2.9,1.21-2.9Z"/>
            <path class="cls-15" d="M72.51,309.72s13.1,5.65,14.09,5.24c.99-.41,1.02-.91.41-1.46-.61-.55-12.56-6.4-12.97-6.52-.4-.12-1.53,2.74-1.53,2.74Z"/>
            <path class="cls-15" d="M75.08,300.78s12.51,6.87,12.79,7.9c.29,1.03-.09,1.36-.89,1.22-.81-.15-12.77-5.98-13.11-6.22-.35-.24,1.21-2.9,1.21-2.9Z"/>
            <path class="cls-15" d="M78.7,296.23s-3.64,2.09-7.11,1.28c-2.65-.62-6.36.43-7.96.96-.49.16-.78.27-.78.27,0,0,8.4,2.97,9.2,2.54.8-.43,1.6-1.34,2.83-1.42,1.23-.09,5.2-1.56,3.82-3.63Z"/>
          </g>
          <polygon class="cls-6" points="37.04 287.25 62.04 296.36 60 310.51 35.44 307.63 37.04 287.25"/>
          <polygon class="cls-19" points="92.47 296.11 101.95 348.51 101.67 348.56 92.19 296.16 92.47 296.11"/>
        </g>
      </g>
      <g>
        <g>
          <path class="cls-16" d="M71.48,283.74c8.31.77,15.72-5.38,16.49-13.7.47-5.12-1.69-9.9-5.36-12.99-9.4,1.78-17.92,6.01-24.87,12.02.21,7.55,6.04,13.95,13.74,14.67Z"/>
          <path class="cls-9" d="M67.94,284.65c8.31.77,15.72-5.38,16.49-13.7.77-8.31-5.38-15.72-13.69-16.49-8.31-.77-15.72,5.38-16.49,13.7-.77,8.31,5.38,15.72,13.69,16.49Z"/>
          <path class="cls-17" d="M65.71,284.62c8.31.77,15.72-5.38,16.49-13.7.77-8.31-5.38-15.72-13.69-16.49-8.31-.77-15.72,5.38-16.49,13.7-.77,8.31,5.38,15.72,13.69,16.49Z"/>
          <path class="cls-8" d="M65.93,282.23c7,.65,13.23-4.53,13.88-11.53.65-7-4.53-13.23-11.53-13.88-7-.65-13.23,4.53-13.88,11.53-.65,7,4.53,13.23,11.53,13.88Z"/>
        </g>
        <g>
          <g>
            <polygon class="cls-15" points="68.96 258.94 70.42 260 69.9 267.65 64.67 267.68 65.86 261.13 68.96 258.94"/>
            <polygon class="cls-10" points="65.56 267.68 64.67 267.68 65.86 261.13 66.99 260.33 67.11 260.42 65.56 267.68"/>
            <path class="cls-15" d="M64.59,253.95c.09.45-1.69,9.11,1.19,9.52,2.89.4,5.09-3.17,4.79-6-.3-2.83-5.98-3.52-5.98-3.52Z"/>
            <path class="cls-10" d="M64.59,253.95c.09.43-1.56,8.47.89,9.44,0-.04,0-.07-.03-.11-.37-.63-.02-1.03.09-1.36.11-.33.07-.52,0-.77-.08-.25.09-.19.11-.38.03-.19-.19-.28-.17-.39.02-.12.15-.39.09-.54s-.66-.2-.71-.43c-.05-.23.96-4.1,1.01-4.3l-.79-1.08c-.3-.05-.48-.07-.48-.07Z"/>
            <path class="cls-16" d="M62.93,255.4s-.05-.08-.07-.12c-.04-.07-.08-.15-.11-.22-.02-.04-.04-.07-.05-.11-.04-.08-.07-.16-.1-.24,0-.02-.02-.05-.03-.07-.04-.1-.07-.2-.1-.3,0-.02-.01-.05-.02-.07-.02-.07-.03-.15-.05-.22,0-.03,0-.06-.01-.1,0-.03-.01-.07-.01-.1,0,0,0,0,0,.01-.07-.64.12-1.08.46-1.06.17-.15.42-.12.72.18,1.04,1.03,2.64-.33,5.02-.52,2.55-.21,2.47,1.74,2.41,2.76.23-.17.51-.19.51-.19v.11s-.32.01-.52.24c0,.04,0,.09,0,.13.45-.35.98.01.98.01l-.06.09s-.51-.35-.91.04c.24-.06.46-.09.59-.07.47.07.22,1.01.08,1.64-.13.57-.44,1.95-.91,1.88-.12.11-.26.13-.42,0-.2-.18-.38-.57-.53-1.02-.35.13-.74.22-1.14.3-1.32.28-3.63-.43-5.24-2.32-.09-.11-.18-.22-.26-.33-.03-.04-.05-.07-.07-.11-.05-.08-.1-.15-.15-.23Z"/>
            <path class="cls-15" d="M70.3,258.69s.55-.98,1.02-.7c.47.27-.18,2.49-.8,2.59-.62.1-.89-.6-.22-1.89Z"/>
          </g>
          <path class="cls-12" d="M75.75,276.79c-.06-.81-.11-1.56-.15-2.24-.11-2.11-.97-4.87-2.68-6.12l-2.92-2.12s-4.08,1.65-5.05-.3c-1.2.57-4.88,1.55-5.7,3.39-.73,1.65-1.21,3.92-1.52,6.41,1.83,2.73,4.83,4.65,8.34,4.97,3.82.35,7.38-1.26,9.69-4Z"/>
        </g>
      </g>
    </g>
  </g>
  <g>
    <path class="cls-8" d="M364.73,232.87c.08.12,29.67,41.97-26.69,45.47-30.07,1.87-40.08-22.87-41.39-44-.08-1.21-.12-2.4-.14-3.58l.57-.44c4.75-3.76,7.97-8.2,9.36-12.49,1.25-3.85,1.04-7.59-.83-10.65-1.25-2.06-2.61-2.51-3.93-1.71-1.81,1.1-3.47,4.83-4.55,10.05-.87,4.18-1.37,9.35-1.3,14.92-4.56,3.4-10.45,6.19-17.44,7.7-14.22,3.07-33,.85-54.42-12.22-4.48-2.73-9.21-5.45-14.15-8.1-26.85-14.47-59.32-27.15-87.54-32.2-79.32-14.18-82.13,52.43-53.54,54.98l.06-.66c-27.48-2.44-25.11-67.69,53.37-53.66,28.15,5.03,60.55,17.7,87.34,32.13,4.91,2.64,9.63,5.35,14.12,8.09,21.59,13.17,40.54,15.41,54.91,12.31,6.9-1.49,12.74-4.21,17.31-7.53.02,1.04.07,2.08.13,3.14,1.33,21.43,11.51,46.52,42.1,44.62,57.55-3.58,27.28-46.39,27.2-46.52l-.55.38h0ZM296.5,229.92c-.04-5.33.46-10.26,1.29-14.28,1.04-5.04,2.59-8.61,4.24-9.62.96-.59,2-.18,3.02,1.48,1.76,2.89,1.95,6.44.76,10.1-1.35,4.17-4.49,8.49-9.14,12.17l-.17.13Z"/>
    <rect class="cls-22" x="356.95" y="222.76" width="10.25" height="13.47" transform="translate(-64.73 269.48) rotate(-37.72)"/>
    <g>
      <rect class="cls-22" x="361" y="220.06" width=".8" height="10.6" transform="translate(-62.35 268.18) rotate(-37.72)"/>
      <rect class="cls-22" x="357.85" y="222.49" width=".8" height="10.6" transform="translate(-64.51 266.65) rotate(-37.7)"/>
    </g>
    <g>
      <rect class="cls-22" x="67.46" y="237.88" width="4.06" height="5.34" transform="translate(-180.13 260.15) rotate(-78.38)"/>
      <rect class="cls-22" x="65.6" y="238.66" width="1.85" height="2.43" transform="translate(-181.84 256.66) rotate(-78.37)"/>
      <rect class="cls-22" x="71.33" y="239.49" width="2.77" height="3.64" transform="translate(-178.3 263.96) rotate(-78.39)"/>
    </g>
    <path class="cls-8" d="M84.59,236.66c4.03-.87,8.01,1.69,8.88,5.73.24,1.13.22,2.3-.06,3.43l-3.25,12.68c-.09.35-.35.6-.7.68-.35.08-.7-.04-.92-.33l-8.19-10.2c-.73-.9-1.23-1.96-1.48-3.1-.87-4.03,1.69-8.01,5.73-8.88h0ZM85.41,240.47c-1.77.38-2.89,2.12-2.51,3.89.38,1.77,2.12,2.89,3.89,2.51,1.77-.38,2.89-2.12,2.51-3.89-.38-1.77-2.12-2.89-3.89-2.51Z"/>
    <path class="cls-8" d="M345.37,265.2l-.61,1.57h.02c-.7.27-1.28.82-1.58,1.58-.31.8-.22,1.65.17,2.34l3.23,1.25c.75-.25,1.39-.82,1.7-1.61.29-.75.23-1.55-.11-2.22l7.1,2.75.61-1.57-10.54-4.08Z"/>
    <path class="cls-8" d="M347.4,257.15l-.99,1.35h.02c-.74.09-1.45.46-1.93,1.11-.51.69-.64,1.54-.45,2.3l2.79,2.05c.79-.04,1.56-.42,2.07-1.11.48-.65.62-1.44.47-2.17l6.14,4.51.99-1.35-9.11-6.7Z"/>
  </g>
  <g>
    <g>
      <path class="cls-23" d="M153.59,138.64c.09.07.19.13.3.19l-17.54,33.87-.31-.16,17.56-33.9Z"/>
      <path class="cls-23" d="M136.57,140.73c.12.01.23.03.35.03l-6.96,32.81-.34-.07,6.95-32.77Z"/>
      <path class="cls-23" d="M119.71,143.23l4.47,31.11-.35.05-4.47-31.09c.12-.02.23-.05.34-.08Z"/>
      <path class="cls-23" d="M85.16,148.02l26.77,27.98-.25.24-26.76-27.97c.09-.08.17-.16.25-.25Z"/>
      <path class="cls-23" d="M102.5,145.71l15.85,29.41-.31.17-15.9-29.49c.12-.02.24-.05.35-.08Z"/>
    </g>
    <g>
      <polygon class="cls-35" points="95.69 177.01 145.25 169.89 145.74 173.31 144.97 173.42 151.08 215.94 103.06 222.84 96.96 180.32 96.18 180.43 95.69 177.01"/>
      <polygon class="cls-25" points="99.02 176.52 148.58 169.4 149.07 172.82 148.3 172.93 154.41 215.45 106.39 222.35 100.29 179.83 99.51 179.94 99.02 176.52"/>
      <polygon class="cls-35" points="148.3 172.93 100.29 179.83 100.73 182.89 148.5 174.31 148.3 172.93"/>
      <rect class="cls-31" x="108.73" y="214.16" width="9.9" height="4.41" transform="translate(256.97 414.37) rotate(171.83)"/>
      <rect class="cls-35" x="104.32" y="174.3" width="1.73" height="4.41" transform="translate(264.94 47.29) rotate(81.82)"/>
      <rect class="cls-35" x="141.52" y="168.96" width="1.73" height="4.41" transform="translate(291.56 5.89) rotate(81.83)"/>
      <rect class="cls-35" x="123.93" y="166.3" width="4.79" height="48.51" transform="translate(296.98 38.41) rotate(81.83)"/>
    </g>
    <g>
      <path class="cls-33" d="M114.52,111.4s32.16-4.62,40.71,28.86c0,0-9.52-4.14-17.91,2.57,0,0-9.89-4.2-17.91,2.57-9.61-4.24-17.91,2.57-17.91,2.57-9.95-4.08-17.91,2.57-17.91,2.57-1.21-34.54,30.94-39.15,30.94-39.15Z"/>
      <path class="cls-4" d="M137.32,142.83s-9.89-4.2-17.91,2.57l-4.89-34.01c19.4,4.68,22.8,31.43,22.8,31.43Z"/>
      <path class="cls-4" d="M114.52,111.4c-17.3,9.95-13.03,36.58-13.03,36.58-9.95-4.08-17.91,2.57-17.91,2.57-1.21-34.54,30.94-39.15,30.94-39.15Z"/>
    </g>
    <g>
      <rect class="cls-23" x="140.14" y="170.82" width=".35" height="46.42" transform="translate(-26.17 21.93) rotate(-8.18)"/>
      <rect class="cls-23" x="113.71" y="174.62" width=".35" height="46.42" transform="translate(-26.96 18.2) rotate(-8.17)"/>
    </g>
  </g>
  <path class="cls-8" d="M177.4,188.98l-4.89-1.58c.26-.12.51-.26.76-.42l5.01-3.3-.7-.19c-.93-.26-1.79-.26-2.73-.01l-8.01,2.1-5.98-1.93c-.37-.12-.72-.14-1.03-.06l-1.6.41c-.47.12-.7.44-.59.83.11.39.52.74,1.07.92l6.97,2.25,5.55,6.7c.62.75,1.32,1.24,2.22,1.58l.68.25-2.15-5.6c-.15-.39-.34-.75-.56-1.08l5.54,1.78c.49.16.97.14,1.3-.05l4.09-2.32-1.45-.47c-.35-.11-.67-.14-.97-.07l-1.58.33c-.3.06-.62.04-.97-.07Z"/>
  <g>
    <g>
      <rect class="cls-4" x="199.54" y="178.39" width="45.08" height="71.38" transform="translate(-30.12 391.68) rotate(-79.1)"/>
      <rect class="cls-22" x="199.54" y="185.79" width="45.08" height="56.57" transform="translate(-30.12 391.68) rotate(-79.1)"/>
      <path class="cls-8" d="M251.71,203.5l-.24,1.24c-.05.24-.28.4-.52.35h0c-.24-.05-.4-.28-.35-.52l.24-1.24c.05-.24.28-.4.52-.35h0c.24.05.4.28.35.52Z"/>
      <path class="cls-17" d="M212.63,193.41c4.93.95,8.16,5.72,7.21,10.65-.95,4.93-5.71,8.16-10.64,7.21-4.93-.95-8.16-5.71-7.21-10.65.95-4.93,5.71-8.16,10.64-7.21Z"/>
      <rect class="cls-23" x="207.15" y="209.01" width="12.19" height="26.48" transform="translate(-45.3 389.64) rotate(-79.1)"/>
      <rect class="cls-33" x="204.78" y="210.2" width="12.19" height="26.48" transform="translate(-48.39 388.28) rotate(-79.1)"/>
      <path class="cls-8" d="M211.62,219.6c2.12.41,3.51,2.46,3.1,4.58-.41,2.12-2.46,3.51-4.58,3.1-2.12-.41-3.51-2.46-3.1-4.58.41-2.12,2.46-3.51,4.58-3.1Z"/>
      <path class="cls-8" d="M202.03,216.3l19.93,3.84-.04.22c-.07.38.02.76.22,1.06.2.3.52.52.9.59l.22.04-1.4,7.29-.22-.04c-.38-.07-.76.02-1.06.22-.3.2-.52.52-.59.9l-.04.22-20.15-3.88.04-.22c.07-.38-.02-.76-.22-1.06-.2-.3-.52-.52-.9-.6l-.22-.04,1.4-7.29.22.04c.38.07.76-.02,1.06-.22.3-.2.52-.52.6-.9l.04-.22.22.04h0ZM221.46,220.48l-19.31-3.72c-.13.4-.39.74-.72.97-.34.23-.75.35-1.17.32l-1.24,6.45c.4.13.74.39.97.73.23.33.35.74.32,1.17l19.31,3.72c.13-.41.39-.74.73-.97.33-.23.74-.35,1.17-.31l1.24-6.45c-.4-.13-.74-.39-.97-.73-.23-.34-.34-.74-.31-1.17Z"/>
      <path class="cls-9" d="M211.78,220.61l-.06.3,1.05.2-.12.6-1.05-.2-.32,1.68h.06c.4.09.73.32.94.63.21.31.3.71.23,1.1-.08.4-.31.73-.62.94-.31.21-.71.3-1.1.23h-.06s-.09.44-.09.44l-.6-.12.09-.45-1.13-.22.12-.6,1.13.22.32-1.68-.14-.03c-.4-.08-.73-.31-.94-.62-.21-.31-.3-.7-.23-1.1.08-.4.31-.73.62-.94.31-.21.7-.3,1.1-.23l.14.03.06-.3.6.12h0ZM211.16,223.81l-.32,1.68h.06c.23.06.46,0,.64-.12.18-.12.32-.32.36-.55.04-.23-.01-.46-.13-.64-.12-.18-.31-.32-.55-.36h-.06ZM210.68,223.09l.32-1.68-.14-.03c-.23-.04-.46,0-.64.13-.18.12-.32.32-.36.55-.04.23.01.46.13.64.12.18.31.32.55.36l.14.03Z"/>
      <rect class="cls-24" x="230.96" y="193.48" width="1.05" height="11.7" transform="translate(-8.01 388.94) rotate(-79.1)"/>
      <rect class="cls-24" x="234.78" y="191.95" width="1.05" height="20.25" transform="translate(-7.61 394.94) rotate(-79.1)"/>
      <rect class="cls-24" x="234.41" y="193.89" width="1.05" height="20.25" transform="translate(-9.82 396.15) rotate(-79.1)"/>
      <rect class="cls-24" x="228.66" y="200.27" width="1.05" height="9.31" transform="translate(-15.38 391.24) rotate(-79.1)"/>
      <path class="cls-8" d="M192.95,187.1l70.31,13.54-8.61,44.7-70.52-13.58,8.61-44.7.22.04h0ZM262.74,200.99l-69.66-13.41-8.44,43.84,69.66,13.41,8.44-43.84Z"/>
      <path class="cls-12" d="M227.04,209.32l12.3,2.37c1.51.29,2.5,1.76,2.21,3.27h0c-.29,1.51-1.76,2.51-3.27,2.21l-12.3-2.37c-1.51-.29-2.5-1.76-2.21-3.27h0c.29-1.51,1.76-2.5,3.27-2.21Z"/>
      <path class="cls-8" d="M231.59,212.51c-.03.15-.08.27-.14.37-.07.1-.15.19-.25.25-.1.06-.22.1-.36.11-.13.02-.29,0-.46-.03l-.22-.04-.16.83s0,.03-.02.03c-.01,0-.03.02-.05.02-.02,0-.05,0-.08,0-.03,0-.08,0-.13-.02-.05,0-.09-.02-.13-.03-.03-.01-.06-.02-.08-.03s-.03-.02-.04-.03c0-.01,0-.03,0-.04l.45-2.34c.01-.06.04-.11.08-.13.04-.03.09-.03.14-.02l.61.12c.06.01.12.03.17.04.06.02.12.04.19.07.07.03.15.07.22.13.07.06.13.12.17.2.04.07.07.16.09.25.01.09,0,.19-.01.29h0ZM231.04,212.44c.02-.09.02-.17,0-.23-.02-.07-.05-.12-.09-.15-.04-.04-.09-.06-.14-.08-.05-.02-.1-.03-.16-.04l-.23-.04-.17.89.24.05c.08.02.16.02.22,0,.06-.01.11-.03.16-.07.04-.03.08-.08.11-.13.03-.05.05-.11.06-.18h0ZM233.54,214.56c0,.05,0,.09,0,.12,0,.03-.01.05-.03.06-.02.01-.05.02-.08.01-.04,0-.09-.01-.16-.02-.07-.01-.12-.02-.16-.03-.04,0-.07-.02-.09-.03-.02-.01-.03-.02-.04-.03,0-.01-.01-.03-.01-.05l-.07-.55-.98-.19-.26.48s-.02.03-.03.04c-.01.01-.03.02-.05.02-.02,0-.05,0-.09,0-.04,0-.08-.01-.14-.02-.06-.01-.11-.02-.14-.03-.03-.01-.06-.02-.07-.04-.01-.02-.01-.04,0-.07,0-.03.03-.06.05-.11l1.24-2.15s.03-.04.04-.05c.01-.01.03-.02.06-.02.03,0,.06,0,.1,0,.04,0,.1.02.17.03.08.02.14.03.19.04.05.01.08.02.11.04.03.01.04.03.05.04,0,.02.01.04.02.07l.36,2.46h0ZM232.72,212.42h0s-.57,1.04-.57,1.04l.73.14-.15-1.18h0ZM234.77,213.98l.98-1.28s.06-.08.07-.1c.01-.03.01-.05,0-.07-.01-.02-.04-.03-.08-.04-.04-.01-.1-.02-.18-.04-.06-.01-.1-.02-.14-.02-.04,0-.06,0-.09,0-.02,0-.04.01-.05.02-.01.01-.02.03-.04.05l-.41.58c-.04.06-.08.12-.12.18-.04.06-.08.13-.12.2h0c-.01-.08-.03-.16-.04-.23-.01-.07-.03-.14-.05-.21l-.17-.7s-.01-.04-.02-.05c0-.01-.02-.03-.04-.04-.02-.01-.05-.02-.08-.03-.04-.01-.08-.02-.15-.03-.07-.01-.13-.02-.17-.03-.04,0-.07,0-.09,0-.02.01-.03.03-.02.06,0,.03.01.07.03.13l.44,1.55-.18.91s0,.03,0,.04c0,.01.02.02.04.04.02,0,.05.02.08.03.03.01.08.02.13.03.05,0,.09.02.13.02.04,0,.06,0,.08,0,.02,0,.04,0,.05-.02.01,0,.02-.02.02-.03l.18-.91Z"/>
      <path class="cls-9" d="M218.34,222.79c1.11.21,1.84,1.29,1.63,2.4-.21,1.11-1.29,1.84-2.4,1.63-1.11-.21-1.84-1.29-1.63-2.4.21-1.11,1.29-1.84,2.4-1.63Z"/>
      <path class="cls-9" d="M203.82,219.99c1.11.21,1.84,1.29,1.63,2.4-.21,1.11-1.29,1.84-2.4,1.63-1.11-.21-1.84-1.29-1.63-2.4.21-1.11,1.29-1.84,2.4-1.63Z"/>
    </g>
    <g>
      <path class="cls-8" d="M210.16,210.09c4.26.39,8.06-2.76,8.45-7.02s-2.76-8.06-7.02-8.45c-4.26-.39-8.06,2.76-8.45,7.02-.39,4.26,2.76,8.06,7.02,8.45Z"/>
      <g>
        <g>
          <polygon class="cls-15" points="212.01 195.9 212.9 196.55 212.59 201.21 209.4 201.23 210.12 197.24 212.01 195.9"/>
          <polygon class="cls-10" points="209.94 201.22 209.4 201.23 210.12 197.24 210.81 196.75 210.89 196.81 209.94 201.22"/>
          <path class="cls-15" d="M209.35,192.87c.06.27-1.03,5.55.73,5.79,1.76.25,3.1-1.93,2.92-3.65-.18-1.72-3.64-2.14-3.64-2.14Z"/>
          <path class="cls-10" d="M209.35,192.87c.05.26-.95,5.16.54,5.75,0-.02,0-.05-.02-.07-.22-.38,0-.63.05-.83.06-.2.04-.32,0-.47-.05-.15.05-.11.07-.23.02-.12-.11-.17-.1-.24.01-.07.09-.24.05-.33s-.4-.12-.43-.26c-.03-.14.59-2.49.62-2.62l-.48-.66c-.18-.03-.29-.04-.29-.04Z"/>
          <path class="cls-16" d="M208.34,193.75s-.03-.05-.04-.07c-.02-.04-.05-.09-.07-.13-.01-.02-.02-.05-.03-.07-.02-.05-.04-.1-.06-.15,0-.01-.01-.03-.02-.04-.02-.06-.04-.12-.06-.18,0-.01,0-.03,0-.04-.01-.05-.02-.09-.03-.13,0-.02,0-.04,0-.06,0-.02,0-.04,0-.06,0,0,0,0,0,0-.04-.39.07-.66.28-.65.1-.09.26-.07.44.11.63.63,1.61-.2,3.06-.32,1.55-.13,1.5,1.06,1.47,1.68.14-.11.31-.11.31-.11v.07s-.19,0-.32.15c0,.03,0,.05,0,.08.27-.21.6,0,.6,0l-.04.06s-.31-.21-.56.03c.15-.03.28-.05.36-.04.29.04.13.61.05,1-.08.35-.27,1.19-.55,1.14-.08.07-.16.08-.25,0-.12-.11-.23-.35-.32-.62-.21.08-.45.13-.7.18-.81.17-2.21-.26-3.19-1.41-.06-.07-.11-.13-.16-.2-.02-.02-.03-.04-.04-.06-.03-.05-.06-.09-.09-.14Z"/>
          <path class="cls-15" d="M212.82,195.75s.33-.59.62-.43c.29.16-.11,1.52-.48,1.58-.38.06-.54-.37-.14-1.15Z"/>
        </g>
        <path class="cls-12" d="M216.15,206.77c-.04-.49-.07-.95-.09-1.36-.07-1.29-.59-2.97-1.63-3.72l-1.78-1.29s-2.49,1-3.07-.18c-.73.35-2.97.95-3.47,2.06-.45,1-.74,2.39-.93,3.9,1.12,1.66,2.94,2.83,5.08,3.03,2.33.22,4.49-.77,5.9-2.43Z"/>
      </g>
    </g>
  </g>
  <path class="cls-9" d="M204.92,290.9c7.11,19.69,78.1-26.19,78.37-33.52,1.49-40.11-82.87,21.08-78.37,33.52Z"/>
  <path class="cls-33" d="M337.67,189.92s-19.85-4.61-46.81-8.92c-26.96-4.31-46.93-18.29-36.1-21.42.43-.12,1.18-.15,1.69-.11,6.92.63,81.22,30.44,81.22,30.44Z"/>
  <path class="cls-5" d="M337.67,189.92s-19.85-4.61-46.81-8.92c-26.96-4.31-46.93-18.29-36.1-21.42.43-.12,1.18-.15,1.69-.11,6.92.63,81.22,30.44,81.22,30.44Z"/>
  <path class="cls-16" d="M307.2,191.87c2.54-1.14,6,.2,11.6.53,33.65,1.99,41.81,64.73,3.1,60.81-41.53-4.2-22.66-57.77-14.71-61.34Z"/>
  <path class="cls-7" d="M313.65,202.7s-8.86,31.98-8.14,38.92c.52,4.97-34.05,28.24-34.05,28.24,0,0,7.32-20.91,10.37-27.01,0,0,7.09-2.91,8.56-35.74,0,0,5.07-9.63,23.26-4.41Z"/>
  <path class="cls-10" d="M286.87,233.43c1.88-6.46,2.66-13.85,3.52-26.33,0,0,2.72-5.16,11.31-5.88,2.78.02,6.1.59,10.03,2.1-2.01,5.97-5.9,15-12.63,22.15-4.79,5.09-8.5,7.22-12.24,7.96Z"/>
  <path class="cls-16" d="M298.14,169.44s9.89,29.88-3.54,34.41c-30.36,10.23-25.04-51.53,3.54-34.41Z"/>
  <path class="cls-10" d="M285.74,174.62s-2,4.1-4.53,12.16c-1.17,3.73-3.61,7.18-3.93,13.51-.49,9.75,3.99,16.12,7.78,18.03,3.94,1.62,10.92,1.68,19.25-4.24,12.2-8.67,17.42-23.05,17.42-23.05,2.57-17-23.14-28.73-36-16.42Z"/>
  <path class="cls-16" d="M283.48,189.13c.74.58,1,1.72.59,2.54-.41.83-1.34,1.03-2.07.45-.73-.58-1-1.72-.59-2.54.41-.82,1.34-1.02,2.07-.45Z"/>
  <path class="cls-16" d="M281.29,188.25s4.12.39,6.55,4.08l-.7.52c-2.26-3.42-6.06-3.78-6.07-3.79l.21-.82Z"/>
  <path class="cls-16" d="M286.45,191.54c1.9,1.11,3.69,1.2,3.7,1.2l-.17.82s-1.27-.06-2.83-.71c-.2-.47-.43-.9-.69-1.31Z"/>
  <path class="cls-7" d="M283.09,216.92c.61.58,1.27,1.05,1.97,1.4,3.94,1.62,12.22,3.88,20.55-2.04,12.2-8.67,16.12-25.25,16.12-25.25,1.4-9.28-5.63-16.99-14.39-20.07-4.12,2.49-10.93,3.95-16.21,9.07-.21.63.72,11.92-8.52,18.84,0,0,2.36,2.64,3.24,4.71.55,1.3-.79,2.32-.79,2.32l.62,1.62-.99,1.34s.82.53.46,1.61c-.24.74-1.93,3.56-2.07,6.45Z"/>
  <path class="cls-16" d="M285.46,169.59c3.37,17.95,18.46,24.4,28.99,28.47,7.09,2.74,1.65,4.86-1.32,13.45,42.08-39.23-10.22-64.34-25.73-44.98-.74.92-2.18,1.83-1.94,3.06Z"/>
  <path class="cls-7" d="M312.88,199.09s-6.42,7.61-4.4,10.57c2.03,2.96,9.54-1.88,12.72-6.13,3.18-4.26-4.84-7.97-8.32-4.44Z"/>
  <path class="cls-10" d="M318.54,202.46s.72-2.11-2.28-1.53c-1.57.3-3.1,1.44-4.09,2.68-.38.48-.68.97-.87,1.43-.18.44-.26.84-.21,1.17.04.24.15.44.34.58.56.41,1.16.33,1.64.05.2-.11.38-.26.54-.42.15-.16.27-.33.36-.49.11-.23.15-.42.07-.5-.5-.45-1.09-.23-1.09-.23l-.16-.48s.88-.34,1.62.32c.27.24.25.66.03,1.09-.11.21-.26.43-.45.63-.19.2-.42.38-.67.53-.65.37-1.46.48-2.22-.08-.3-.22-.47-.53-.53-.9-.06-.42.03-.92.25-1.44.21-.5.54-1.04.95-1.56,1.06-1.33,2.71-2.56,4.43-2.88,3.86-.74,2.86,2.18,2.86,2.18l-.5-.15Z"/>
  <path class="cls-10" d="M291.86,208.56s-5.26-.14-7.54-2.07l-.38.38c2.42,2.05,7.85,2.19,7.86,2.2l.05-.51Z"/>
  <path class="cls-10" d="M291.33,208.26s.44.56.04.99l.41.32c.67-.73-.03-1.65-.03-1.65l-.42.34Z"/>
  <path class="cls-13" d="M325.6,193.22c-.08.17-.16.34-.24.51,6.89,3.66,10.96,8.83,10.98,8.86l.42-.37s-4.16-5.28-11.15-9Z"/>
  <path class="cls-16" d="M278.28,182.81s5.21-1.58,11.47,3.9l-.34,1.36c-5.81-5.09-10.61-3.63-10.63-3.62l-.5-1.63Z"/>
  <path class="cls-16" d="M305.61,197.49s-2.36-6.26-10.55-9.67l-.75,1.11c7.6,3.17,9.77,8.94,9.78,8.95l1.52-.39Z"/>
  <path class="cls-8" d="M290.95,169.1c-.01.05-4.54,18.33,21.03,19.19l-.03.57c-26.28-.89-21.59-19.83-21.58-19.88l.58.12Z"/>
  <path class="cls-9" d="M258.12,270.05s1.15-13.89,3.99-18.1c2.84-4.22,19.72-9.1,19.72-9.1,0,0-13.43,28.62-23.71,27.2Z"/>
  <path class="cls-9" d="M281.83,242.85l-7.84,23.1,31.57-26.15,18.47,8.37s2.5,19.65-11.26,38.73c-9.87,13.68-11.86,37-4.36,52.71l-55-.07s5.77-37.21-1.59-64.75c7.06-7.45,21.36-15.66,30.01-31.95Z"/>
  <path class="cls-2" d="M254.12,286.33l-2.3-11.54s11.57-9.83,15.35-13.52"/>
  <path class="cls-18" d="M317.97,278.33c-1.4,2.83-3.09,5.7-5.16,8.57-9.87,13.68-11.86,37-4.36,52.71l-23.36-.03c-11.21-23.01.9-51.98.9-51.98,15.07,3.13,24.93-5.14,31.99-9.28Z"/>
  <path class="cls-22" d="M329.08,329.63c-5.58-7.51-9.01-.55-11.56,4.21-2.55,4.76-9.88-4.67-17.06-6.41-5.69-1.38-13.84,7.33-18.92,12.6h55.35s-2.23-2.89-7.81-10.4Z"/>
  <path class="cls-8" d="M345.35,336.52c.76,0,1.37-.62,1.37-1.37s-.62-1.37-1.37-1.37-1.37.62-1.37,1.37.62,1.37,1.37,1.37Z"/>
  <path class="cls-8" d="M335.52,329.47c.76,0,1.37-.62,1.37-1.37s-.62-1.37-1.37-1.37-1.37.62-1.37,1.37.62,1.37,1.37,1.37Z"/>
  <path class="cls-8" d="M282.99,326.01c.31-.9,1.29-1.38,2.19-1.07.9.31,1.38,1.29,1.07,2.2,0,.02-2.03,6.41-7.9,6.02-.95-.07-1.67-.89-1.6-1.84.07-.95.89-1.67,1.84-1.6,3.15.21,4.4-3.69,4.4-3.7Z"/>
  <path class="cls-16" d="M296.26,193.76c.74.58,1,1.72.59,2.54-.41.83-1.34,1.03-2.07.45-.73-.58-1-1.72-.59-2.54.41-.82,1.34-1.02,2.07-.45Z"/>
  <path class="cls-16" d="M294.07,192.87s4.12.39,6.55,4.08l-.7.52c-2.26-3.42-6.06-3.78-6.07-3.79l.21-.82Z"/>
  <path class="cls-10" d="M283.31,206.42c.55-.3,1.38-.63,2.31-.48,1.03.16,1.65.83,2.17,1.25.89.73,1.78,1.23,3.7,1.34-.93.08-1.22.11-2.44-.04-2.84-.36-4.39-1.25-5.73-2.07Z"/>
  <path class="cls-33" d="M320.26,156.47c-15.79-6.44-28.49,1.89-28.49,1.89l-35.31,1.12s8.98,1.7,21.16,7.85c12.18,6.15,48.5,33.48,60.72,37.19,12.22,3.7,21.52,5.47,26.07.88,0,0-22.52-17.24-29.78-23.98,0,0,2.52-18.06-14.38-24.95Z"/>
  <path class="cls-5" d="M334.63,181.42s1.73-12.47-7.38-20.64c.45,1.7.76,3.35.85,4.89.62,10.92-7.06,10.7-7.06,10.7,0,0,13.77,16.65,16.99,22.68.94,1.76,1.37,3.68,1.52,5.52.18.06.36.11.55.16.55.17,1.1.33,1.64.49.06.02.12.03.18.05.16.05.32.09.49.14.51.14,1.01.29,1.51.43.15.04.29.08.43.11.09.02.18.05.27.07.47.13.94.25,1.4.37.07.02.14.03.21.05.18.05.35.09.53.13.43.11.86.21,1.28.31.25.06.48.1.73.16.41.09.82.18,1.22.26.24.05.48.09.72.13.38.07.77.15,1.15.21.14.02.27.04.41.06.1.01.2.03.3.04.36.05.73.11,1.08.16.05,0,.11,0,.16.02.18.02.36.04.54.05.33.03.67.07,1,.1.24.02.46.02.7.03.2,0,.39.02.59.03,3.3-.06,5.95-.86,7.8-2.73,0,0-22.52-17.24-29.78-23.98Z"/>
  <path class="cls-23" d="M291.62,158.37c4.58,2.52,8.5,5.21,12.29,7.82,7.95,5.48,16.19,11.13,30.73,15.18.02-.19.11-.95.12-2.1-13.9-3.93-21.61-9.2-29.69-14.77-3.49-2.41-7.1-4.88-11.25-7.25-1.32.64-2.05,1.11-2.05,1.11h-.15Z"/>
  <path class="cls-22" d="M256.46,159.48c5.07.93,12.8,3.35,21.4,7.55,14.82,7.64,49.98,34.16,61.25,37.28,6.12,1.92,16.22,4.95,22.08,2.98,1.18-.41,2.29-1.04,3.22-1.9-3.53,3.6-9.44,3.18-14.47,2.38-4.14-.7-10.33-2.22-14.68-3.96l-1.73-.8c-12.88-5.87-45.03-29.36-56.01-35.32-6.48-3.35-13.87-6.44-21.06-8.22Z"/>
  <ellipse class="cls-28" cx="298.36" cy="202.59" rx="1.99" ry="3.44" transform="translate(9.62 418.66) rotate(-70.99)"/>
  <path class="cls-16" d="M299.23,196.17c1.9,1.11,3.12,1.1,3.13,1.1l-.17.82s-.7.04-2.26-.61c-.2-.47-.43-.9-.69-1.31Z"/>
  <path class="cls-7" d="M133.95,243.5c-4.5-2.36-9.17-4.66-9.88-4.45-1.42.42-1.54,1.11-.77,1.95.4.44,4.82,3.28,9.05,5.95.35-1.23.89-2.4,1.6-3.45Z"/>
  <path class="cls-7" d="M133.12,243.26c-.08,1.25-.36,2.49-.82,3.65,4.59,1.73,9.2,3.41,9.49,3.47.57.12,1.74-4,1.74-4,0,0-5.25-1.66-10.4-3.13Z"/>
  <path class="cls-7" d="M132.69,250.18c-4.72-1.87-9.61-3.67-10.29-3.38-1.37.57-1.41,1.27-.56,2.02.44.39,5.14,2.76,9.62,4.96.22-1.26.63-2.48,1.23-3.6Z"/>
  <path class="cls-7" d="M131.84,250.03c.05,1.26-.1,2.52-.43,3.72,4.74,1.24,9.51,2.43,9.8,2.45.58.06,1.3-4.16,1.3-4.16,0,0-5.39-1.1-10.67-2.01Z"/>
  <path class="cls-7" d="M134.36,254.85c-4.07-1.36-8.27-2.65-8.83-2.38-1.13.55-1.13,1.13-.38,1.73.39.31,4.46,2.09,8.34,3.74,0,0,0-.01,0-.02,4.04.82,8.08,1.6,8.33,1.61.49.02.91-3.57.91-3.57,0,0-4.12-.61-8.37-1.12Z"/>
  <path class="cls-7" d="M131.28,245.86c-4.5-2.36-9.17-4.66-9.88-4.45-1.42.42-1.54,1.11-.77,1.95.4.44,4.82,3.28,9.05,5.95.35-1.23.89-2.4,1.6-3.45Z"/>
  <path class="cls-7" d="M130.45,245.62c-.08,1.25-.36,2.49-.82,3.65,4.59,1.73,9.2,3.41,9.49,3.47.57.12,1.74-4,1.74-4,0,0-5.25-1.66-10.4-3.13Z"/>
  <path class="cls-7" d="M219.04,285.47c-.82-2.46-2.58-4.51-4.58-6.17-5.11-4.25-11.68-6.19-17.8-8.77-12.59-5.32-24.39-13.74-36.92-19.16-.2-.72-4.91-8.62-6.59-8.91-2.01-.38-5.17-2.87-6.21-5.39-1.03-2.52-1.34-3.82-2.5-3.45-1.16.37-1.17,3.51.35,6.71.79,1.66,2.03,3.19,2.88,4.31-.22.02-.44.04-.68.05-3.19.2-5.71.67-7.51.41-4.66-.67-5.05,9.65-4.11,11.14,2.04,3.25,4.99,3.16,8.48,3.44,3.23.26,6.5-.23,9.19.49,7.73,2.08,33.95,26.4,51.02,33.45,2.31.95,4.7,1.82,7.2,1.9,2.49.08,5.13-.74,6.72-2.67,1.65-2.01,1.89-4.92,1.07-7.38Z"/>
  <path class="cls-9" d="M315.12,259.96s-1.14,37.42,3.28,61.68c5.23,28.67,24.65,24.27,26.69,9.77,1.14-8.08-1.15-19.66-3.07-31.92-4.09-26.11-10.44-48.26-17.85-51.28-7.41-3.01-9.37,5.11-9.04,11.74Z"/>
  <path class="cls-16" d="M316.27,267.15c0,.08-.87,27,2.31,50.29l-1.16.23c-3.2-23.38-2.33-50.41-2.32-50.48l1.17-.03Z"/>
  <path class="cls-7" d="M268.15,292.92c-2.05-.27-5.31-2.39-6.55-4.75-1.27-2.41-1.7-3.67-2.82-3.2-1.12.47-.83,3.61.99,6.64,1.69,2.81,4.78,5.1,4.33,5.67,2.24-.3,3.2-1.95,4.05-4.37Z"/>
  <g>
    <path class="cls-14" d="M246.01,276.89l11.26-.02c.86,0,1.81.7,2.11,1.56l8.97,26.06c.3.86-.17,1.57-1.03,1.57l-11.26.02c-.86,0-1.81-.7-2.11-1.56l-8.97-26.06c-.3-.86.17-1.57,1.03-1.57Z"/>
    <polygon class="cls-14" points="244.37 278.38 245.09 277.31 245.44 278.38 244.37 278.38"/>
    <path class="cls-16" d="M245.24,278.02l11.26-.02c.86,0,1.81.7,2.11,1.56l8.97,26.06c.3.86-.17,1.57-1.03,1.57l-11.26.02c-.86,0-1.81-.7-2.11-1.56l-8.97-26.06c-.3-.86.17-1.57,1.03-1.57Z"/>
  </g>
  <path class="cls-7" d="M326.8,320.13c-8.64-2.22-26.69-9.12-39.56-13.4,0,0,0,0,0,0-.01,0-.02,0-.03-.01-2.12-.7-4.09-1.33-5.85-1.86-1.84-.63-3.28-1.21-3.82-1.66-3.22-2.65-6.11-10.01-9.24-10.25-.05,0-.1-.02-.15-.03-.85,2.42-1.81,4.07-4.05,4.37-.04.05-.09.08-.17.11-4.43.63-8.73,1.59-13.16,2.22-2.82.7-1.3,3.57,2.1,5.9,1.02.7,1.42,3.62,2.69,3.98,3.17.89,2.38,3.46,3.94,3.81,1.95.45,3.38.98,3.91.73,0,0,7.67-2.41,12.42.11.44.23,1.38.62,2.35,1.07.44.23,1.05.55,1.78.94,0,0,0,0,0,0,3.06,1.62,8.21,4.37,11.61,6.39,15.35,9.11,41.07,27.46,49.59,17.1,4.91-5.98,1.31-15.5-14.37-19.53Z"/>
  <path class="cls-10" d="M279.97,316.17s0,0,0,0c3.06,1.62,8.21,4.37,11.61,6.39,15.35,9.11,41.07,27.46,49.59,17.1.94-1.14,1.56-2.41,1.85-3.74-18.64,9.61-61.25-22.28-66.76-24.06-3.19-1.03-14.02.58-15.51-.05-1.5-.63-1.97-2.88-3.34-3.41-1.38-.53-5.09-4.07-5.78-5.9-.68-1.82.55-3.07,1.36-3.19l-.41.03c-.6.1-1.2.2-1.8.29-1.94.48-1.83,1.99-.46,3.64.64.76,1.51,1.54,2.56,2.26.96.66,1.37,3.27,2.46,3.88.07.04.15.07.23.1,3.17.89,2.38,3.46,3.94,3.81,1.95.45,3.38.98,3.91.73,0,0,7.67-2.41,12.42.11.44.23,1.38.62,2.35,1.07.44.23,1.05.55,1.78.94Z"/>
  <path class="cls-10" d="M284.48,239.61c-1.48,2.75-2.65,3.23-2.65,3.23,0,0,8.81,7.51,20.96-.45,1.09-.71,1.97-1.29,2.69-1.77,0-.05,0-.11,0-.16-1.49.94-3.05,1.93-3.05,1.93,0,0-11.68-.72-17.95-2.78Z"/>
  <polygon class="cls-16" points="273.99 265.95 305.56 239.8 310.41 241.99 273.99 265.95"/>
  <polygon class="cls-16" points="276.43 244.58 273.99 265.95 281.83 242.85 276.43 244.58"/>
  <path class="cls-8" d="M120.67,227.42c.95.04,1.76-.7,1.8-1.65.04-.95-.7-1.76-1.65-1.8-.02,0-6.71-.46-8.5,5.14-.29.91.22,1.88,1.12,2.16.91.29,1.88-.22,2.16-1.12.96-3.01,5.05-2.74,5.06-2.74Z"/>
  <path class="cls-8" d="M128.4,229.04c.76,0,1.37-.62,1.37-1.37s-.62-1.37-1.37-1.37-1.37.62-1.37,1.37.62,1.37,1.37,1.37Z"/>
  <path class="cls-8" d="M92.9,224.9c-.95.04-1.76-.7-1.8-1.65-.04-.95.7-1.76,1.65-1.8.02,0,6.71-.46,8.5,5.14.29.91-.22,1.88-1.12,2.16-.91.29-1.88-.22-2.16-1.12-.96-3.01-5.05-2.74-5.06-2.74Z"/>
  <path class="cls-8" d="M96.22,219.11c-.76,0-1.37-.62-1.37-1.37s.62-1.37,1.37-1.37,1.37.62,1.37,1.37-.62,1.37-1.37,1.37Z"/>
  <path class="cls-12" d="M284.6,234.31c2.03.85,4.72,1.71,7.94,2.05,7.38.8,13.23-1.52,16.06-2.89-.36.69-.79,1.74-.93,3.08-.07.67-.05,1.27,0,1.77-.77.94-4.71,5.53-11.58,6.26-7.37.78-12.43-3.48-13.26-4.2.59-2.02,1.18-4.05,1.77-6.07Z"/>
  <g>
    <path class="cls-25" d="M307.34,232.34s-.18-2.05,2.11-3.92c2.29-1.87,6.59-2.91,6.59-2.69s-1.71,5.6-2.97,6.61c-1.26,1.01-5.97,1.38-5.73,0Z"/>
    <path class="cls-25" d="M306.3,233.25s-.05-1.19.8-1.31,1.14.46,1.36.94-.54,1.33-.92,1.56c-.38.22-1.41.17-1.39.11.02-.06.14-1.29.14-1.29Z"/>
    <path class="cls-25" d="M307.54,232.87s2.05-2.05,4.58-2.24c2.53-.19,5.46.95,7.38.89,1.92-.06,2.55.06,2.41.39-.14.33-1.88,1.88-5.01,3.18-3.13,1.3-6.2.44-7.45,0-1.25-.44-2.64-1.31-1.91-2.22Z"/>
    <path class="cls-21" d="M307.92,233.1s4.57-1.63,5.56-1.17-1.83,1.17-1.83,1.17c0,0,6.58-.58,6.93-.05s-3.56,1.59-5.7,1.62c-2.14.02-5.49-.92-4.96-1.56Z"/>
    <path class="cls-3" d="M306.89,231.84s.73.74,1.03,1.25c0,0,2.38-2.13,6.48-2.38"/>
  </g>
  <path class="cls-21" d="M306.89,235.02c-1.61,1.07-4.02,2.4-7.14,3.19-3.92.98-7.1.62-7.11.91-.01.27,2.7.99,5.6.63,4.3-.54,7.26-3.24,8.65-4.73Z"/>
  <path class="cls-10" d="M218.7,291.71h0c-2.91.99-7.04,1.92-12.35.25-10.56-3.32-24.17-12.53-33.06-20.36-4.18-3.68-8.96-6.6-13.31-10.09-.61-.49-2.03-1.64-4.2-2.52-.86-.35-2.82-.99-6.44-1.26-3.19-.24-4.07.26-6.93.32-.89.02-3.81-.14-6.93-.97,2.03,2.88,5.03,2.31,8.38,2.58,3.23.26,6.5-.23,9.19.49,7.73,2.08,33.95,26.4,51.02,33.45,2.31.95,4.7,1.82,7.2,1.9,2.49.08,5.13-.74,6.72-2.67.16-.2.3-.41.43-.62.1-.17.2-.35.29-.52Z"/>
  <path class="cls-10" d="M142.4,258.07h0c-1.04.02-5.27-.46-9.01-1.48-4.1-1.11-7.72-2.78-8.73-3,.06.2.23.41.49.61.39.31,4.46,2.09,8.34,3.74,0,0,0-.01,0-.02,4.04.82,8.08,1.6,8.33,1.61.22,0,.42-.69.58-1.47Z"/>
</svg>