<?xml version="1.0" encoding="UTF-8"?>
<svg xmlns="http://www.w3.org/2000/svg" xmlns:xlink="http://www.w3.org/1999/xlink" viewBox="0 0 400 400">
  <defs>
    <style>
      .cls-1, .cls-2 {
        fill: #b6a1e0;
      }

      .cls-3 {
        fill: #ffe1da;
      }

      .cls-3, .cls-4, .cls-5, .cls-6, .cls-2, .cls-7, .cls-8, .cls-9, .cls-10, .cls-11, .cls-12, .cls-13 {
        fill-rule: evenodd;
      }

      .cls-14 {
        stroke-width: .25px;
      }

      .cls-14, .cls-15 {
        fill: none;
        stroke: #67548e;
        stroke-miterlimit: 10;
      }

      .cls-4, .cls-16 {
        fill: #fff;
      }

      .cls-5, .cls-17 {
        fill: #67548e;
      }

      .cls-18, .cls-12, .cls-13, .cls-19 {
        fill: #eaddff;
      }

      .cls-20, .cls-8 {
        fill: #5cdbc2;
      }

      .cls-21 {
        fill: url(#linear-gradient-5);
      }

      .cls-22 {
        fill: url(#linear-gradient-4);
      }

      .cls-23 {
        fill: url(#linear-gradient-3);
      }

      .cls-24 {
        fill: url(#linear-gradient-2);
      }

      .cls-6 {
        fill: #ffb3b0;
      }

      .cls-25 {
        fill: url(#linear-gradient);
      }

      .cls-2, .cls-19 {
        opacity: .5;
      }

      .cls-7 {
        fill: #ff8685;
      }

      .cls-26 {
        isolation: isolate;
      }

      .cls-27 {
        fill: #0e2939;
      }

      .cls-9 {
        fill: #281616;
      }

      .cls-28, .cls-10 {
        fill: #d2bcfd;
      }

      .cls-29 {
        fill: #262649;
      }

      .cls-30, .cls-31 {
        fill: #00a38c;
      }

      .cls-11, .cls-32 {
        fill: #38265c;
      }

      .cls-13 {
        mix-blend-mode: multiply;
      }

      .cls-31 {
        opacity: .3;
      }
    </style>
    <linearGradient id="linear-gradient" x1="220.76" y1="189.41" x2="260.71" y2="-137.97" gradientUnits="userSpaceOnUse">
      <stop offset=".07" stop-color="#eaddff"/>
      <stop offset=".53" stop-color="#f6edff"/>
    </linearGradient>
    <linearGradient id="linear-gradient-2" x1="1905.84" y1="194.31" x2="1888.09" y2="72.67" gradientTransform="translate(2098.4) rotate(-180) scale(1 -1)" gradientUnits="userSpaceOnUse">
      <stop offset="0" stop-color="#eaddff"/>
      <stop offset=".52" stop-color="#eee3ff"/>
      <stop offset=".96" stop-color="#f6edff"/>
    </linearGradient>
    <linearGradient id="linear-gradient-3" x1="65.72" y1="114.71" x2="158.77" y2="-79.23" gradientUnits="userSpaceOnUse">
      <stop offset="0" stop-color="#eaddff"/>
      <stop offset=".46" stop-color="#f2e8ff"/>
      <stop offset=".61" stop-color="#f6edff"/>
    </linearGradient>
    <linearGradient id="linear-gradient-4" x1="122.25" y1="321.12" x2="122.25" y2="248.43" gradientUnits="userSpaceOnUse">
      <stop offset="0" stop-color="#5cdbc2"/>
      <stop offset=".39" stop-color="#5cdbc2" stop-opacity=".58"/>
      <stop offset=".81" stop-color="#5cdbc2" stop-opacity=".17"/>
      <stop offset="1" stop-color="#5cdbc2" stop-opacity="0"/>
    </linearGradient>
    <linearGradient id="linear-gradient-5" x1="124.14" y1="343.39" x2="124.14" y2="232.87" gradientUnits="userSpaceOnUse">
      <stop offset=".21" stop-color="#00a38c"/>
      <stop offset=".22" stop-color="#00a38c" stop-opacity=".99"/>
      <stop offset=".36" stop-color="#1cb49c" stop-opacity=".69"/>
      <stop offset=".5" stop-color="#33c2aa" stop-opacity=".44"/>
      <stop offset=".63" stop-color="#45cdb4" stop-opacity=".25"/>
      <stop offset=".76" stop-color="#51d4bb" stop-opacity=".11"/>
      <stop offset=".89" stop-color="#59d9c0" stop-opacity=".03"/>
      <stop offset="1" stop-color="#5cdbc2" stop-opacity="0"/>
    </linearGradient>
  </defs>
  <g class="cls-26">
    <g id="Layer_1" data-name="Layer 1">
      <rect class="cls-18" y="0" width="400" height="400"/>
      <path class="cls-25" d="M339.81,0c-13.29,6.56-25.73,14.84-36.8,24.7-4.54,4.05-9.05,8.72-11.37,14.21,0,0,0,0,0,0-.38.89-.69,1.81-.94,2.74-.28,1.04-.48,2.11-.58,3.21-.49,5.43,2.71,11.23,7.22,13.77-1.35-.03-2.71,0-4.06.11.07,1.92.13,3.84.2,5.76-4.84-2.22-11.2,2.81-10.15,8.02-4.09-1.71-9.03,3.41-7.17,7.44-23.45-5.66-48.03-2.76-71.93.5-8.51,1.16-17.76,2.74-23.52,9.1,1.75,1.8,3.86,3.24,6.17,4.22-19.27-6.67-40.04-12.9-59.35-6.71-1.32.42-2.68.94-3.65,1.94-1.92,2-1.64,5.38-.12,7.69,1.02,1.55,2.45,2.73,4,3.77-2.92-1.44-6.25-1.85-9.64-1.96-3.29-.11-6.76,2.12-7.75,5.03-5.58-.6-11.92-1.76-18.42-3.05-8.83-1.75-16.59-4.8-23.11-7.98,8.8,5.12,20.76,10.95,35.62,15.25,4.9,1.42,9.62,2.52,14.14,3.38,1.16.3,2.21.5,2.96.59.28.03.56.06.83.09,9.67,1.61,18.24,2.12,25.23,2.15-.03-.01-.06-.02-.1-.03,32.07,1.65,64.35-.52,96.3-4.18,52.84-6.05,105.63-16.25,154.83-36.33V0h-58.84Z"/>
      <path class="cls-24" d="M.19,87.47c84.73,17.94,111.54,43.1,202.22,39.83,63.32-2.28,140.69-9.77,197.59-36.02v106.54C236.4,205.17,57.64,112.42.19,112.42v-24.95Z"/>
      <path class="cls-1" d="M272.66,48.2c.07.42-.11.87-.49.93l-56.23,9.31c-.32.05-.48-.52-.2-.7,1.48-.92,2.99-1.77,4.53-2.54l51.1-8.46c.36.27.71.59,1.04.93.14.14.23.33.26.52Z"/>
      <path class="cls-28" d="M271.36,46.75l-51.1,8.46c1.87-.94,3.78-1.77,5.71-2.49.65-.24,1.31-.47,1.97-.69,2.5-.81,5.05-1.44,7.64-1.89l30.14-4.99c1.92-.32,3.91.25,5.64,1.59Z"/>
      <polygon class="cls-28" points="236.63 50.71 227.94 52.59 226.11 52.99 225.98 52.73 222.1 45.04 224.98 44.57 235.58 50.16 236.63 50.71"/>
      <path class="cls-1" d="M236.28,51.2l30.12-4.99c.37-.06.76-.02,1.11.12h0l-32.4,5.37.53-.28c.2-.11.41-.18.64-.21Z"/>
      <path class="cls-1" d="M228.27,52.43s-.12.06-.32.16c-.66.33-2.44,1.29-3.56,2.07l-4.12.56c1.87-.94,3.78-1.77,5.71-2.49l-3.87-7.69,5.84,7,.32.39Z"/>
      <rect class="cls-1" x="245.67" y="53.72" width="5.31" height=".79" rx=".3" ry=".3" transform="translate(-5.5 41.3) rotate(-9.4)"/>
      <rect class="cls-1" x="248.93" y="52.6" width="1.03" height="1.36" transform="translate(-5.35 41.48) rotate(-9.4)"/>
      <path class="cls-23" d="M165.79,60.6c-.64-2.58-3.66-4.49-6.38-5.52-13.34-5.06-28.43-5.32-41.96-.85,3.2-8.79-3.1-19.15-11.67-23.31-6-2.91-12.68-3.59-19.42-3.47,1.74-1.19,3.18-2.86,3.99-4.76,2.23-5.24.99-11.27-.71-16.7-.63-2.02-1.35-4.01-2.1-5.99H-.88v44.7c35.54,13.1,80.48,24.63,125.14,24.99-.03.03-.07.05-.1.08.95-.02,1.92-.04,2.89-.07,8.08-.02,16.15-.42,24.15-1.25,7.24-.58,14.74-1.35,22.5-2.38,14.67-1.95,28.22-4.52,40.53-7.38-10.14,1.7-18.43,2.15-24.11,2.25-6.05.11-14.87-.09-24.33-.35Z"/>
      <path class="cls-4" d="M90.59,256.53c-.76,0-1.37-.62-1.37-1.37s.62-1.37,1.37-1.37,1.37.62,1.37,1.37-.62,1.37-1.37,1.37Z"/>
      <path class="cls-4" d="M100.49,244.49c-.95-.11-1.8.57-1.91,1.52-.11.95.57,1.8,1.52,1.91.02,0,6.66.94,8.84-4.52.35-.88-.08-1.89-.97-2.24-.88-.35-1.89.08-2.24.97-1.17,2.93-5.23,2.37-5.24,2.37Z"/>
      <g>
        <path class="cls-17" d="M126.91,291.88h117.53c5.25,0,10.27-5.16,11.22-11.51l28.83-193.87c.95-6.36-2.54-11.51-7.8-11.51h-117.53c-5.25,0-10.27,5.16-11.22,11.51l-28.83,193.87c-.95,6.36,2.54,11.51,7.8,11.51Z"/>
        <path class="cls-17" d="M126.91,291.88h117.53c5.25,0,10.27-5.16,11.22-11.51l28.83-193.87c.95-6.36-2.54-11.51-7.8-11.51h-117.53c-5.25,0-10.27,5.16-11.22,11.51l-28.83,193.87c-.95,6.36,2.54,11.51,7.8,11.51Z"/>
        <path class="cls-17" d="M126.91,291.88h117.53c5.25,0,10.27-5.16,11.22-11.51l28.83-193.87c.95-6.36-2.54-11.51-7.8-11.51h-117.53c-5.25,0-10.27,5.16-11.22,11.51l-28.83,193.87c-.95,6.36,2.54,11.51,7.8,11.51Z"/>
        <path class="cls-16" d="M126.01,287.63h112.93c5.05,0,9.87-5.03,10.78-11.24l27.7-189.28c.91-6.21-2.44-11.24-7.49-11.24h-112.93c-5.05,0-9.87,5.03-10.78,11.24l-27.7,189.28c-.91,6.21,2.44,11.24,7.49,11.24Z"/>
        <path class="cls-32" d="M126.01,288.52h112.93c5.46,0,10.69-5.39,11.66-12.01l27.7-189.28c.54-3.68-.31-7.13-2.34-9.48-1.55-1.8-3.69-2.78-6.03-2.78h-112.93c-5.46,0-10.69,5.39-11.66,12.01l-27.7,189.28c-.54,3.68.31,7.13,2.34,9.48,1.55,1.8,3.69,2.78,6.03,2.78ZM269.93,76.75c1.84,0,3.46.75,4.68,2.17,1.69,1.95,2.39,4.89,1.92,8.05l-27.7,189.28c-.85,5.78-5.29,10.48-9.9,10.48h-112.93c-1.84,0-3.46-.75-4.68-2.17-1.69-1.95-2.39-4.89-1.92-8.05l27.7-189.28c.85-5.78,5.29-10.48,9.9-10.48h112.93Z"/>
        <polygon class="cls-19" points="129.09 266.75 241.97 266.75 267.51 92.23 154.63 92.23 129.09 266.75"/>
        <g>
          <path class="cls-16" d="M211.84,195.84c-1.26,8.81-9.42,15.95-18.23,15.95s-14.94-7.14-13.68-15.95c1.26-8.81,9.42-15.95,18.23-15.95s14.94,7.14,13.68,15.95Z"/>
          <path class="cls-5" d="M200.08,190.75c-1.21,0-2.38.42-3.36,1.13,0,0-.01,0-.02.01-.13.08-.76.47-1.5,1.51-.85,1.17-.98,2.41-.98,2.41h0s0,.01,0,.01c-.14.97-1.04,1.76-2.01,1.76s-1.65-.79-1.51-1.76,1.04-1.76,2.01-1.76c.54,0,.97.23,1.24.61.09-.27.33-.86.8-1.53.62-.88,1.61-1.62,1.69-1.67-1.03-1.6-2.45-2.68-2.98-2.68-.92,0-5.61,3.4-6.12,7-.4,2.82,1.57,5.12,4.39,5.12,1.21,0,2.37-.41,3.35-1.12,0,0,.01,0,.02-.01h.01c.16-.1.76-.5,1.49-1.51.69-.96.93-2.03.97-2.38v-.06c.15-.97,1.05-1.76,2.02-1.76s1.65.79,1.51,1.76-1.04,1.76-2.01,1.76c-.54,0-.98-.23-1.25-.61-.09.26-.32.86-.81,1.55-.59.85-1.54,1.56-1.68,1.66,1.04,1.6,2.46,2.69,2.98,2.69.92,0,5.61-3.4,6.12-7,.43-2.84-1.54-5.14-4.37-5.14Z"/>
        </g>
        <path class="cls-27" d="M210.51,85.81c-.15,1.02.4,1.85,1.23,1.85s1.62-.83,1.77-1.85-.4-1.85-1.23-1.85-1.62.83-1.77,1.85Z"/>
        <path class="cls-17" d="M178.91,281.94h8.78c1.59,0,3.12-1.6,3.41-3.55h0c.29-1.95-.78-3.55-2.37-3.55h-8.78c-1.59,0-3.12,1.6-3.41,3.55h0c-.29,1.95.78,3.55,2.37,3.55Z"/>
        <g>
          <polygon class="cls-32" points="271.84 125.17 273.28 115.15 254.49 92.76 244.65 92.76 271.84 125.17"/>
          <g>
            <g>
              <path class="cls-17" d="M242.47,115.58h0c4.08,0,7.39-3.31,7.39-7.39v-8.94h-14.77v8.94c0,4.08,3.31,7.39,7.39,7.39Z"/>
              <polygon class="cls-28" points="235.09 99.26 249.86 99.26 270.23 74.98 255.46 74.98 235.09 99.26"/>
            </g>
            <g>
              <path class="cls-18" d="M227.61,115.58h0c4.08,0,7.39-3.31,7.39-7.39v-8.94h-14.77v8.94c0,4.08,3.31,7.39,7.39,7.39Z"/>
              <polygon class="cls-16" points="220.22 99.26 234.99 99.26 255.36 74.98 240.59 74.98 220.22 99.26"/>
            </g>
            <g>
              <path class="cls-17" d="M212.74,115.58h0c4.08,0,7.39-3.31,7.39-7.39v-8.94h-14.77v8.94c0,4.08,3.31,7.39,7.39,7.39Z"/>
              <polygon class="cls-28" points="205.35 99.26 220.12 99.26 240.49 74.98 225.72 74.98 205.35 99.26"/>
            </g>
            <g>
              <path class="cls-18" d="M197.87,115.58h0c4.08,0,7.39-3.31,7.39-7.39v-8.94h-14.77v8.94c0,4.08,3.31,7.39,7.39,7.39Z"/>
              <polygon class="cls-16" points="190.49 99.26 205.26 99.26 225.62 74.98 210.85 74.98 190.49 99.26"/>
            </g>
            <g>
              <path class="cls-17" d="M183,115.58h0c4.08,0,7.39-3.31,7.39-7.39v-8.94h-14.77v8.94c0,4.08,3.31,7.39,7.39,7.39Z"/>
              <polygon class="cls-28" points="175.62 99.26 190.39 99.26 210.76 74.98 195.99 74.98 175.62 99.26"/>
            </g>
            <g>
              <path class="cls-18" d="M168.14,115.58h0c4.08,0,7.39-3.31,7.39-7.39v-8.94h-14.77v8.94c0,4.08,3.31,7.39,7.39,7.39Z"/>
              <polygon class="cls-16" points="160.75 99.26 175.52 99.26 195.89 74.98 181.12 74.98 160.75 99.26"/>
            </g>
            <g>
              <path class="cls-17" d="M153.27,115.58h0c4.08,0,7.39-3.31,7.39-7.39v-8.94h-14.77v8.94c0,4.08,3.31,7.39,7.39,7.39Z"/>
              <polygon class="cls-28" points="145.88 99.26 160.65 99.26 181.02 74.98 166.25 74.98 145.88 99.26"/>
            </g>
            <g>
              <path class="cls-18" d="M138.4,115.58h0c4.08,0,7.39-3.31,7.39-7.39v-8.94h-14.77v8.94c0,4.08,3.31,7.39,7.39,7.39Z"/>
              <polygon class="cls-16" points="131.02 99.26 145.79 99.26 166.15 74.98 151.38 74.98 131.02 99.26"/>
            </g>
          </g>
        </g>
      </g>
      <g>
        <path class="cls-11" d="M124.54,326.19c21.32,0,38.7-17.39,38.7-38.71s-17.39-38.71-38.7-38.71-38.7,17.39-38.7,38.71,17.39,38.71,38.7,38.71Z"/>
        <g>
          <circle class="cls-16" cx="122.25" cy="285.82" r="36.34"/>
          <circle class="cls-22" cx="122.25" cy="285.82" r="36.34"/>
          <circle class="cls-22" cx="122.25" cy="285.82" r="36.34"/>
          <path class="cls-30" d="M122.25,322.17c5.58,0,10.86-1.26,15.59-3.51.19-.09-1.67-2.73-1.86-2.94-2.75-3.07-6.98-2.83-10.59-4.04-2.37-.8-4.62-2.08-6.56-3.64-1.74-1.4-2.85-2.83-5.07-5.69-2.84-3.65-2.53-4-4.43-6.14-1.29-1.46-3.61-4.04-7.47-5.87-1.8-.85-4.73-2.24-8.67-1.93-1.07.09-4.03.37-6.95,2.37,2.42,17.72,17.62,31.37,36,31.37Z"/>
          <path class="cls-20" d="M90.05,268.96s.03.01.04.02c1.58.8,2.5,2,3.01,2.69,1.2,1.6,1.08,2.43,2.21,4.46,1.05,1.89,1.57,2.86,2.58,3.48.09.05,2.21,1.32,4.49.49,1.1-.4,2.01-1.21,2.95-2.75.6-.99,2.87-4.73,3.07-12.72.07-2.64.1-3.95-.31-5.2-.75-2.29-2.3-3.97-3.9-5.17-6,3.44-10.93,8.55-14.15,14.69Z"/>
          <path class="cls-21" d="M158.59,285.82c0-18.81-14.29-34.28-32.61-36.15-1.23-.13-2.49-.19-3.75-.19-.1,0-.19,0-.29,0-.56,0-1.12.02-1.68.05-.38.02-.75.05-1.13.09-.25.02-.51.04-.76.07-.49.05-.97.11-1.45.18-.11.02-.21.03-.32.05-3.91.61-7.61,1.85-11,3.6-9.62,6.67-15.92,17.77-15.92,30.36,0,20.4,16.54,36.93,36.93,36.93,2.9,0,5.72-.34,8.43-.97,13.76-5.18,23.55-18.45,23.55-34.02Z"/>
          <path class="cls-20" d="M122.25,249.48c-.94,0-1.87.04-2.79.11-.03.3-.04.61-.03.93.02.87.06,2.91,1.48,4.65,1.17,1.44,2.82,2.13,4.52,2.75,3.39,1.22,5.1,4.4,4.09,7.83-.14.48-.59,1.84-2.89,4.34-2.41,2.63-5.95,4.86-7.01,8.44-1.49,5.02,1.72,10.51,7.38,10.21,2.47-.13,4.49-1.64,6.44-3.05,1.42-1.03,2.98-2.27,4.85-2.09,1.92.18,3.49,1.52,5.12,2.42,3.21,1.77,6.97,1.37,10.16-.22,2.29-1.14,3.79-2.83,4.77-4.39-2.18-17.98-17.5-31.92-36.07-31.92Z"/>
          <g>
            <ellipse class="cls-31" cx="143.84" cy="280" rx="3.12" ry=".88"/>
            <path class="cls-16" d="M143.8,266.3c-2.75,0-4.99,2.22-4.99,4.96,0,2.18,3.16,6.71,4.45,8.47.27.36.81.36,1.08,0,1.29-1.76,4.45-6.29,4.45-8.47,0-2.74-2.23-4.96-4.99-4.96ZM143.8,274.24c-1.5,0-2.71-1.21-2.71-2.69s1.21-2.69,2.71-2.69,2.71,1.21,2.71,2.69-1.21,2.69-2.71,2.69Z"/>
          </g>
          <path class="cls-30" d="M155.31,300.91c-2.3-.64-4.73-1.19-7.33-.14-2.4.96-3.7,2.78-4.24,3.55-2.64,3.79-1.82,7.96-1.69,8.57.22,1.04.59,1.94,1,2.73,5.29-3.7,9.55-8.78,12.26-14.71Z"/>
          <g>
            <ellipse class="cls-30" cx="103.1" cy="303.44" rx="1.83" ry=".52"/>
            <path class="cls-16" d="M103.08,295.41c-1.62,0-2.93,1.3-2.93,2.91,0,1.28,1.85,3.94,2.61,4.97.16.21.48.21.63,0,.76-1.03,2.61-3.69,2.61-4.97,0-1.61-1.31-2.91-2.93-2.91ZM103.08,300.06c-.88,0-1.59-.71-1.59-1.58s.71-1.58,1.59-1.58,1.59.71,1.59,1.58-.71,1.58-1.59,1.58Z"/>
          </g>
          <path class="cls-17" d="M137.3,314.54c-2.31-2.57-5.41-3.2-8.15-3.76h-.03c-1.12-.23-2.18-.45-3.17-.78-2.09-.7-4.17-1.86-6.01-3.34-1.58-1.27-2.58-2.56-4.79-5.39-1.36-1.75-1.97-2.71-2.46-3.49-.53-.84-.99-1.56-2.04-2.75-1.23-1.39-3.78-4.28-8.04-6.29-1.69-.8-4.52-2.14-8.29-2.14-.42,0-.86.02-1.28.05-2.6.21-4.95.94-7.01,2.17,0,.08.01.16.02.24,2.05-1.25,4.41-1.99,7.01-2.2.42-.03.85-.05,1.26-.05,3.72,0,6.53,1.33,8.2,2.12,4.22,2,6.75,4.87,7.98,6.25,1.03,1.17,1.49,1.89,2.02,2.72.49.78,1.11,1.74,2.47,3.5,2.21,2.84,3.22,4.14,4.82,5.43,1.86,1.5,3.96,2.67,6.07,3.38,1,.34,2.07.55,3.19.78h.03c2.71.55,5.77,1.17,8.03,3.7.02.02,1.58,1.85,2.09,3.27.06-.03.12-.06.18-.09-.55-1.49-2.1-3.3-2.12-3.32Z"/>
          <path class="cls-17" d="M158.53,283.78c-1.19,1.44-2.63,2.58-4.28,3.41-2.03,1.01-4.19,1.55-6.25,1.55-1.93,0-3.74-.46-5.37-1.36-.43-.24-.83-.49-1.33-.8-1.09-.69-2.12-1.33-3.18-1.43-.07,0-.15-.01-.22-.01-1.09,0-2.21.82-3.3,1.61l-.41.3c-2,1.45-4.26,3.08-7.14,3.24-.18,0-.35.01-.53.01-2.83,0-5.31-1.23-6.98-3.46-1.82-2.44-2.37-5.72-1.46-8.77.88-2.97,3.18-5.09,5.23-6.98.77-.71,1.49-1.38,2.13-2.07,1.37-1.5,2.27-2.82,2.54-3.73.77-2.59-.49-4.96-3.12-5.91-1.76-.64-3.77-1.46-5.21-3.23-1.75-2.15-1.81-4.66-1.83-5.6,0-.26.01-.53.03-.81-.07,0-.14.02-.21.03-.01.26-.03.53-.03.78.02.96.08,3.52,1.87,5.73,1.47,1.81,3.51,2.65,5.3,3.3,2.52.91,3.72,3.18,2.98,5.66-.26.88-1.15,2.17-2.5,3.64-.63.68-1.35,1.35-2.13,2.07-2.05,1.89-4.37,4.03-5.27,7.06-.92,3.12-.37,6.46,1.49,8.96,1.71,2.28,4.24,3.54,7.14,3.54.18,0,.36,0,.54-.01,2.93-.16,5.22-1.82,7.25-3.28l.41-.3c1.06-.77,2.16-1.57,3.17-1.57.06,0,.13,0,.2,0,1.01.1,2.02.73,3.09,1.4.49.31.9.56,1.33.8,1.66.92,3.5,1.38,5.47,1.38,2.09,0,4.28-.54,6.34-1.57,1.62-.81,3.03-1.92,4.21-3.3,0-.1-.01-.2-.02-.3Z"/>
        </g>
        <circle class="cls-14" cx="144.51" cy="302.27" r="2.45"/>
        <circle class="cls-14" cx="108.68" cy="264.01" r="1.68"/>
        <circle class="cls-14" cx="135.42" cy="304.5" r="1.02"/>
      </g>
      <path class="cls-4" d="M261.88,328.53c.76,0,1.37-.62,1.37-1.37s-.62-1.37-1.37-1.37-1.37.62-1.37,1.37.62,1.37,1.37,1.37Z"/>
      <path class="cls-4" d="M79.51,281.91c.76,0,1.37-.62,1.37-1.37s-.62-1.37-1.37-1.37-1.37.62-1.37,1.37.62,1.37,1.37,1.37Z"/>
      <path class="cls-4" d="M101.7,329.9c.76,0,1.37-.62,1.37-1.37s-.62-1.37-1.37-1.37-1.37.62-1.37,1.37.62,1.37,1.37,1.37Z"/>
      <path class="cls-4" d="M328.19,327.15c.76,0,1.37-.62,1.37-1.37s-.62-1.37-1.37-1.37-1.37.62-1.37,1.37.62,1.37,1.37,1.37Z"/>
      <path class="cls-4" d="M49.17,326.44c.31-.9,1.29-1.38,2.19-1.07.9.31,1.38,1.29,1.07,2.2,0,.02-2.03,6.41-7.9,6.02-.95-.07-1.67-.89-1.6-1.84.07-.95.89-1.67,1.84-1.6,3.15.21,4.4-3.69,4.4-3.7Z"/>
      <path class="cls-4" d="M83.01,264.44c.12.95-.56,1.81-1.5,1.92-.95.12-1.81-.56-1.92-1.5,0-.02-.99-6.65,4.45-8.88.88-.36,1.89.07,2.25.95.36.88-.07,1.89-.95,2.25-2.92,1.19-2.33,5.25-2.33,5.26Z"/>
      <g>
        <ellipse class="cls-32" cx="58.82" cy="182.41" rx="15.11" ry="41.01"/>
        <ellipse class="cls-17" cx="58.82" cy="182.41" rx="15.11" ry="41.01"/>
        <path class="cls-32" d="M55.67,142.29c-6.84,3.93-11.96,20.39-11.96,40.11s5.13,36.18,11.96,40.11c6.84-3.93,11.96-20.39,11.96-40.11s-5.13-36.18-11.96-40.11Z"/>
        <g>
          <path class="cls-4" d="M88.7,175.1c-11.3-3.19-26.35-4.08-29.12-4.24-5.3-.31-10.53-.37-15.25-.04-.4,3.67-.62,7.56-.62,11.59,0,4.96.33,9.71.92,14.11,14.64,1.52,33.88-2.92,44.59-6.64,2.77-5.49,3.44-9.93-.52-14.78Z"/>
          <path class="cls-9" d="M89.48,175.1c-3.19-.6-6.35,2.29-7.06,6.45-.71,4.16,1.3,8.02,4.49,8.62,3.19.6,6.35-2.29,7.06-6.45.71-4.16-1.3-8.02-4.49-8.62Z"/>
          <g>
            <path class="cls-7" d="M101.08,184.26c-.33.67-.04,1.48.64,1.81l5.81,3.12h0s.02.01.02.01l.05.03c.79.39,1.75.06,2.14-.73.39-.79.06-1.75-.73-2.14l-.06-.03h-.02s0,0,0,0l-6.03-2.68c-.68-.33-1.49-.06-1.82.6Z"/>
            <path class="cls-6" d="M105.44,189s-11.79,1.88-16.9-.32c-4.66-2.01-4.03-14.47.8-15.83,5.3-1.49,16.82,1.98,16.82,1.98l-.71,14.17Z"/>
            <g>
              <path class="cls-11" d="M112.67,200.65c-.07-.1-.27-.77-.55-1.75-1.28-4.36-4.23-14.44-9.93-15.63-7.58-1.59-2.14,17.35-2.12,17.41l1.07-.3s-4.93-17.23.83-16.02c5.04,1.06,7.86,10.68,9.09,14.85.32,1.09.54,1.83.71,2.08l.91-.64Z"/>
              <path class="cls-11" d="M118.32,200.65c-.07-.1-.27-.77-.55-1.75-1.28-4.36-4.23-14.44-9.93-15.63-7.58-1.59-2.14,17.35-2.12,17.41l1.07-.3s-4.93-17.23.83-16.02c5.04,1.06,7.86,10.68,9.09,14.85.32,1.09.54,1.83.71,2.08l.9-.64Z"/>
              <polygon class="cls-17" points="84.03 231.36 136.44 231.36 130.18 199.48 90.92 199.48 84.03 231.36"/>
              <path class="cls-10" d="M120.61,206.19h-7.71s.61,3.13.61,3.13h7.99s-.61-3.13-.61-3.13h-.28ZM113.56,206.75h6.88s.4,2.02.4,2.02h-6.88s-.4-2.02-.4-2.02Z"/>
              <polygon class="cls-32" points="84.03 231.36 104.54 231.36 101.14 199.48 90.92 199.48 84.03 231.36"/>
              <path class="cls-10" d="M125.73,212.06h-16.58c-.18,0-.32.15-.32.32h0c0,.18.15.32.32.32h16.58c.18,0,.32-.15.32-.32h0c0-.18-.15-.32-.32-.32Z"/>
            </g>
            <g>
              <path class="cls-3" d="M104.74,169.78c-.18-.74-.92-1.21-1.66-1.05-.21.05-.4.14-.56.26-2.53,1.27-6.47,1.17-7.18,1.15h-.03s-.02,0-.02,0h0s-.02,0-.02,0h-.02s0,0,0,0h0s0,0,0,0c-.16,0-.32.01-.48.05-1.05.23-1.7,1.27-1.45,2.32.22.92,1.05,1.54,1.95,1.54h.01c4.39.15,9.03-2.76,8.98-2.86h0c.41-.31.62-.85.49-1.39Z"/>
              <path class="cls-3" d="M88.73,172.78c-.17.07-.34.15-.49.24h-.01s0,0,0,0c-1.23.74-1.9,2.21-1.54,3.7.44,1.86,2.3,3.04,4.15,2.63.71-.16,1.32-.52,1.77-1.02h0c.06-.07.12-.14.18-.21l3.57-4.28c.56-.51.84-1.3.65-2.1-.28-1.18-1.46-1.92-2.63-1.67-.08.02-.17.04-.25.07-.17.06-.32.13-.46.23l-4.93,2.41Z"/>
            </g>
            <path class="cls-3" d="M101.27,183.08c-.04.88.67,1.62,1.56,1.66l7.81.6h0s.02,0,.02,0h.07c1.05.04,1.93-.77,1.97-1.82.04-1.05-.78-1.93-1.82-1.97h-.07s-.02,0-.02,0h0s-7.84,0-7.84,0c-.9-.03-1.65.65-1.69,1.53Z"/>
            <path class="cls-3" d="M101.9,180.41c-.05-.88.63-1.64,1.53-1.69l7.8-.77h0s.02,0,.02,0h.07c1.05-.07,1.94.73,2.01,1.77.06,1.05-.73,1.94-1.78,2.01h-.07s-.02,0-.02,0h0s-7.83.18-7.83.18c-.9.05-1.67-.62-1.72-1.5Z"/>
            <path class="cls-3" d="M101.89,176.81c-.05-.88.63-1.64,1.53-1.69l7.8-.77h0s.02,0,.02,0h.07c1.05-.07,1.94.73,2.01,1.77.06,1.05-.73,1.94-1.78,2.01h-.07s-.02,0-.02,0h0s-7.83.18-7.83.18c-.9.05-1.67-.62-1.72-1.5Z"/>
            <path class="cls-3" d="M100.27,187.48c-.03.74.56,1.37,1.32,1.4l6.57.51h0s.02,0,.02,0h.06c.88.04,1.62-.65,1.66-1.53.03-.88-.65-1.62-1.53-1.66h-.06s-.02,0-.02,0h0s-6.59,0-6.59,0c-.75-.03-1.39.55-1.42,1.29Z"/>
            <path class="cls-11" d="M106.47,186.19h-1.47c.84.85,1.59,1.93,2.26,3.12l.91.07h0s.02,0,.02,0h.06c.1,0,.19,0,.28-.01-.61-1.16-1.3-2.24-2.07-3.18Z"/>
          </g>
        </g>
        <path class="cls-15" d="M67.63,223.41c-1.01,1.22-2.06,2.24-3.16,3.03"/>
        <path class="cls-15" d="M76,203.71c-1.57,7.19-3.93,13.27-6.81,17.6"/>
        <path class="cls-15" d="M40.79,166.53c1.29-7.93,3.49-14.79,6.3-19.87"/>
      </g>
      <g>
        <path class="cls-4" d="M363.9,190.96c.06.11,20.51,37.33-26.23,34.95-24.94-1.27-30.86-22.58-29.97-40.09.05-1,.12-1.99.22-2.96l.51-.31c4.27-2.65,7.33-6.01,8.88-9.41,1.39-3.05,1.57-6.16.32-8.85-.84-1.81-1.92-2.31-3.08-1.77-1.6.74-3.31,3.65-4.69,7.85-1.1,3.36-2,7.57-2.46,12.16-4.07,2.38-9.18,4.12-15.08,4.71-12,1.2-27.25-2.39-43.67-15.15-3.43-2.67-7.08-5.34-10.89-7.99-20.76-14.42-46.31-27.9-69.07-34.69-63.99-19.09-72.52,35.5-49.22,40.27l.11-.54c-22.4-4.57-14.35-58.08,48.96-39.2,22.71,6.78,48.2,20.23,68.91,34.62,3.79,2.63,7.43,5.31,10.87,7.98,16.54,12.86,31.94,16.47,44.06,15.26,5.82-.58,10.88-2.27,14.96-4.58-.08.85-.14,1.72-.18,2.6-.9,17.77,5.13,39.38,30.5,40.67,47.72,2.43,26.8-35.65,26.74-35.76l-.49.26h0ZM307.99,182.16c.47-4.39,1.34-8.41,2.39-11.64,1.33-4.06,2.94-6.85,4.39-7.52.85-.39,1.67.04,2.35,1.5,1.18,2.54,1.01,5.48-.32,8.39-1.5,3.31-4.49,6.57-8.66,9.17l-.15.09Z"/>
        <rect class="cls-16" x="357.78" y="182.36" width="8.49" height="11.16" transform="translate(-44.97 215.04) rotate(-31.24)"/>
        <g>
          <rect class="cls-16" x="361.52" y="180.08" width=".66" height="8.78" transform="translate(-43.2 214.42) rotate(-31.24)"/>
          <rect class="cls-16" x="358.7" y="181.79" width=".66" height="8.78" transform="translate(-44.5 213.11) rotate(-31.23)"/>
        </g>
        <path class="cls-4" d="M326.76,180.63l-.65,1.23h.01c-.6.16-1.13.56-1.44,1.15-.33.63-.33,1.34-.08,1.94l2.55,1.33c.64-.13,1.22-.54,1.55-1.17.31-.59.33-1.26.12-1.84l5.59,2.93.64-1.23-8.3-4.35Z"/>
        <path class="cls-4" d="M329.18,174.19l-.94,1.02h.01c-.62,0-1.24.25-1.69.74-.48.52-.67,1.2-.58,1.86l2.11,1.95c.66.04,1.32-.2,1.8-.72.45-.49.65-1.13.59-1.74l4.63,4.29.94-1.02-6.88-6.36Z"/>
      </g>
      <g>
        <g>
          <path class="cls-5" d="M169.95,137.49c-.11-.61-.47-1.12-.94-1.45-.48-.33-1.08-.48-1.69-.36l-48.76,9.05c-.61.11-1.12.47-1.45.94-.33.48-.47,1.08-.36,1.69l5.25,28.26c.11.61.47,1.12.94,1.45.48.33,1.08.48,1.69.36l4.39-.81c.75-.14,1.49.04,2.08.44.59.4,1.02,1.03,1.16,1.78l.16.88c.09.46.3.86.6,1.17.3.31.7.53,1.16.63.46.1.91.06,1.31-.1.4-.16.76-.44,1.02-.83l3.57-5.2c.21-.31.47-.57.77-.76.3-.19.64-.33,1.01-.4l31.54-5.85c.61-.11,1.12-.47,1.45-.94.33-.48.47-1.08.36-1.69l-5.25-28.26Z"/>
          <polygon class="cls-5" points="132.89 181.94 135.08 181.54 133.51 180.03 132.89 181.94"/>
        </g>
        <g>
          <path class="cls-10" d="M167.81,137.88c-.11-.61-.47-1.12-.94-1.45-.48-.33-1.08-.48-1.69-.36l-48.76,9.05c-.61.11-1.12.47-1.45.94-.33.48-.47,1.08-.36,1.69l5.25,28.26c.11.61.47,1.12.94,1.45.48.33,1.08.48,1.69.36l4.39-.81c.75-.14,1.49.04,2.08.44.59.4,1.02,1.03,1.16,1.78l.16.88c.09.46.3.86.6,1.17.3.31.7.53,1.16.63.46.1.91.06,1.31-.1.4-.16.76-.44,1.02-.83l3.57-5.2c.21-.31.47-.57.77-.76.3-.19.64-.33,1.01-.4l31.54-5.85c.61-.11,1.12-.47,1.45-.94.33-.48.47-1.08.36-1.69l-5.25-28.26Z"/>
          <g>
            <rect class="cls-16" x="122.06" y="151.29" width="14.95" height="2.07" rx=".9" ry=".9" transform="translate(-26.97 27.88) rotate(-11.13)"/>
            <g>
              <path class="cls-16" d="M137.84,159.34l-13.34,2.63c-.36.07-.72-.17-.79-.53h0c-.07-.36.17-.72.53-.79l13.34-2.63c.36-.07.72.17.79.53h0c.07.36-.17.72-.53.79Z"/>
              <rect class="cls-16" x="124.24" y="163.05" width="8.77" height="1.35" rx=".58" ry=".58" transform="translate(-29.19 27.92) rotate(-11.13)"/>
              <rect class="cls-16" x="134.86" y="160.47" width="13.8" height="1.35" rx=".58" ry=".58" transform="translate(-28.45 30.4) rotate(-11.13)"/>
              <path class="cls-16" d="M158.87,155.21l-17.5,3.44c-.36.07-.72-.17-.79-.53h0c-.07-.36.17-.72.53-.79l17.5-3.44c.36-.07.72.17.79.53h0c.07.36-.17.72-.53.79Z"/>
              <path class="cls-16" d="M139.08,165.62l-13.34,2.63c-.36.07-.72-.17-.79-.53h0c-.07-.36.17-.72.53-.79l13.34-2.63c.36-.07.72.17.79.53h0c.07.36-.17.72-.53.79Z"/>
              <path class="cls-16" d="M160.11,161.48l-17.5,3.44c-.36.07-.72-.17-.79-.53h0c-.07-.36.17-.72.53-.79l17.5-3.44c.36-.07.72.17.79.53h0c.07.36-.17.72-.53.79Z"/>
            </g>
            <path class="cls-16" d="M139.48,148.43h9.18c.49,0,.9.4.9.9v.28c0,.49-.4.9-.9.9h-9.18c-.49,0-.9-.4-.9-.9v-.28c0-.49.4-.9.9-.9Z" transform="translate(-26.15 30.63) rotate(-11.13)"/>
          </g>
          <path class="cls-11" d="M167.81,137.88c-.11-.61-.47-1.12-.94-1.45-.48-.33-1.08-.48-1.69-.36l-4.79.89c-.58,1.37-.97,2.84-1.11,4.39-.71,7.68,4.66,14.56,12.12,15.88l-3.59-19.35Z"/>
          <g>
            <g>
              <path class="cls-5" d="M174,154.86c7.13.66,13.47-4.61,14.13-11.74.66-7.13-4.61-13.48-11.74-14.13-7.13-.66-13.47,4.61-14.13,11.74-.66,7.13,4.61,13.48,11.74,14.13Z"/>
              <path class="cls-12" d="M172.09,154.84c7.13.66,13.47-4.61,14.13-11.74.66-7.13-4.61-13.48-11.74-14.13-7.13-.66-13.47,4.61-14.13,11.74-.66,7.13,4.61,13.48,11.74,14.13Z"/>
              <path class="cls-4" d="M172.28,152.79c6,.55,11.34-3.88,11.9-9.88.56-6-3.88-11.34-9.88-11.9-6-.55-11.34,3.88-11.9,9.88-.56,6,3.88,11.34,9.88,11.9Z"/>
            </g>
            <g>
              <polygon class="cls-3" points="174.87 132.82 176.12 133.74 175.68 140.29 171.2 140.32 172.21 134.7 174.87 132.82"/>
              <polygon class="cls-6" points="171.96 140.31 171.2 140.32 172.21 134.7 173.18 134.02 173.29 134.1 171.96 140.31"/>
              <path class="cls-3" d="M171.13,128.55c.08.39-1.45,7.81,1.02,8.16,2.47.35,4.36-2.72,4.11-5.14-.26-2.42-5.13-3.02-5.13-3.02Z"/>
              <path class="cls-6" d="M171.13,128.55c.08.37-1.34,7.26.76,8.09,0-.03,0-.06-.03-.1-.32-.54-.01-.88.08-1.16.09-.28.06-.45,0-.66-.07-.21.07-.16.1-.32.02-.16-.16-.24-.14-.34.02-.1.13-.33.08-.47s-.57-.17-.61-.37c-.04-.2.83-3.51.87-3.68l-.68-.93c-.25-.04-.41-.06-.41-.06Z"/>
              <path class="cls-11" d="M169.71,129.79s-.04-.07-.06-.1c-.04-.06-.07-.12-.1-.19-.02-.03-.03-.06-.05-.1-.03-.07-.06-.14-.09-.21,0-.02-.02-.04-.02-.06-.03-.09-.06-.18-.08-.26,0-.02,0-.04-.01-.06-.02-.06-.03-.13-.04-.19,0-.03,0-.05-.01-.08,0-.03,0-.06-.01-.08,0,0,0,0,0,0-.06-.55.1-.92.39-.91.15-.13.36-.1.62.15.89.89,2.26-.28,4.3-.45,2.19-.18,2.11,1.49,2.06,2.36.2-.15.44-.16.44-.16v.1s-.27.01-.45.21c0,.04,0,.07,0,.11.38-.3.84,0,.84.01l-.05.08s-.44-.3-.78.04c.21-.05.39-.08.51-.06.4.06.19.86.07,1.41-.11.49-.37,1.67-.78,1.61-.11.1-.22.11-.36,0-.17-.15-.32-.49-.46-.87-.3.11-.64.19-.98.26-1.13.24-3.11-.37-4.49-1.99-.08-.09-.15-.19-.22-.28-.02-.03-.04-.06-.06-.09-.04-.06-.09-.13-.13-.19Z"/>
              <path class="cls-3" d="M176.02,132.61s.47-.84.87-.6c.4.23-.15,2.14-.68,2.22-.53.09-.76-.52-.19-1.62Z"/>
            </g>
            <path class="cls-8" d="M180.7,148.13c-.05-.69-.1-1.34-.13-1.92-.09-1.81-.83-4.18-2.3-5.24l-2.51-1.82s-3.5,1.41-4.33-.25c-1.03.49-4.19,1.33-4.89,2.91-.63,1.41-1.04,3.36-1.31,5.49,1.57,2.34,4.14,3.98,7.15,4.26,3.28.3,6.33-1.08,8.31-3.42Z"/>
          </g>
        </g>
      </g>
      <path class="cls-4" d="M225.34,332.79s-11.22-16.83-16.6-14.26c-5.38,2.57,3.97,17.07-3.51,14.26-7.48-2.81-16.13-11.92-16.13-6.08s19.87,25.95,19.87,25.95c0,0,21.04-.23,16.36-19.87Z"/>
      <path class="cls-4" d="M200.44,324.64c-.76,0-1.37-.62-1.37-1.37s.62-1.37,1.37-1.37,1.37.62,1.37,1.37-.62,1.37-1.37,1.37Z"/>
      <path class="cls-4" d="M176.91,332.69c-.95-.11-1.8.57-1.91,1.52-.11.95.57,1.8,1.52,1.91.02,0,6.66.94,8.84-4.52.35-.88-.08-1.89-.97-2.24-.88-.35-1.89.08-2.24.97-1.17,2.93-5.23,2.37-5.24,2.37Z"/>
      <path class="cls-4" d="M210.25,310.87c.95.04,1.76-.7,1.8-1.65.04-.95-.7-1.76-1.65-1.8-.02,0-6.71-.46-8.5,5.14-.29.91.22,1.88,1.12,2.16.91.29,1.88-.22,2.16-1.12.96-3.01,5.05-2.74,5.06-2.74Z"/>
      <path class="cls-13" d="M244.84,171.6c-8.41,2.48-11.35,12.99-9.79,22.54-5.87,9.98-12.49,26.39-5.58,42.41l.54-.25c-6.69-15.5-.53-31.39,5.19-41.31.95,4.9,3.1,9.47,6.32,12.46-3.29,9.64-3.42,21.8-1.12,33.24-5.39-.16-9.87,1.1-13.22,2.12-12.42-2.63-30.68,1.03-42.67,2.52-2.61,4.49-3.22,14.6-7.61,17.46,11.78,6.62,29.78,7.76,45.47,6.7-8.73,7.8-6.53,19.53-5.05,22.41l31.96.11c5.1,0,9.21-4.31,10.13-10.58l17.21-117.62c-11.39-4.88-26.29-2.46-31.79,7.8Z"/>
      <path class="cls-10" d="M169.57,253.59c-3.04,19.16,75.07,13.68,78.57,7.85,19.14-31.87-76.65-19.96-78.57-7.85Z"/>
      <path class="cls-4" d="M286.54,188.23s70.94,73.44,17.02,94.47c-66.59,25.97-88.01-113.63-17.02-94.47Z"/>
      <path class="cls-11" d="M285.53,188.85s70.94,73.44,17.02,94.47c-66.59,25.97-88.01-113.63-17.02-94.47Z"/>
      <path class="cls-10" d="M231.17,269.77s-7.27-22.2-4.32-26.58c2.94-4.38,29.12-1.66,29.12-1.66,0,0-14.13,29.71-24.8,28.25Z"/>
      <path class="cls-11" d="M245.91,185.38c-.06.08-23,26.24-12.16,51.37l-.54.25c-10.99-25.46,12.19-51.89,12.26-51.97l.44.35Z"/>
      <path class="cls-3" d="M282.74,199.25s-6.47,39.51-2.34,44.66c4.13,5.15-19.75,15.03-29.2,6.06,0,0,10.52-9.34,8.09-43.38,0,0,4.07-10.54,23.45-7.34Z"/>
      <path class="cls-6" d="M257.97,234.46c1.39-6.57,2.19-15.62,1.32-27.87,0,0,2.18-5.65,10.95-7.42,2.87-.32,6.36-.12,10.6.96-1.35,6.39-4.28,16.17-10.36,24.35-4.33,5.82-8.74,8.77-12.51,9.98Z"/>
      <path class="cls-11" d="M260.05,173.01s15.83,28.59,3,35.78c-29.01,16.27-35.44-47.76-3-35.78Z"/>
      <path class="cls-10" d="M255.98,241.52c.69,3.21,4.34,5.05,9.16,4.82,5.56-.26,11.71-2.71,15.2-6.15,6.39,2.89,12.79,5.78,19.18,8.67,0,0,2.62,20.39-11.64,40.22-10.22,14.22-12.27,38.42-4.47,54.73h-57.1s-.94-28.42-6.08-54.57c-1.6-8.15,1.59-16.49,8.32-21.36,8.82-6.39,21.54-15.25,27.42-26.36Z"/>
      <path class="cls-2" d="M293.23,280.18c-1.45,2.93-3.2,5.93-5.35,8.9-10.22,14.22-12.27,38.42-4.47,54.73h-24.25c-5.2-10.64-7.02-22.47-7.45-32.32-.45-10.37,6.71-19.68,16.91-21.62,10.34-1.96,19.72-6.82,24.61-9.69Z"/>
      <path class="cls-6" d="M248.4,180.67s-4.9,14.26-2.02,28.82c1.96,9.94,5.5,14.68,9.73,15.9,4.33.9,11.46-.38,18.83-8.02,10.78-11.19,13.34-26.86,13.34-26.86-.65-17.84-29.13-24.86-39.88-9.83Z"/>
      <path class="cls-3" d="M253.83,224.34c.73.48,1.49.83,2.28,1.05,4.33.9,11.46-.38,18.83-8.02,10.78-11.19,13.34-26.87,13.34-26.87-.35-9.74-9.01-16.25-18.54-17.72-3.72,3.33-7.78,7.96-12.18,14.19-.09.68-2.73,14.3-6.07,20.65,0,0,3.31,1.17,3.04,2.61-.27,1.44-.8,2.47-.8,2.47l.95,1.53-.75,1.56s.93.38.78,1.56c-.1.8-1.29,4-.87,6.98Z"/>
      <path class="cls-4" d="M247.15,175.59c-5.09,18.14,15.84,20.15,26.95,23.28,7.6,2.14,10.71,4.83,9.33,14.16,35.39-48.11-22.79-63.68-34.89-40.94-.57,1.08-1.04,2.25-1.4,3.5Z"/>
      <path class="cls-11" d="M245.59,176.66c-5.09,18.14,15.84,20.15,26.95,23.28,7.6,2.14,11.58,7.26,10.2,16.59,35.39-48.11-23.66-66.11-35.75-43.37-.57,1.08-1.04,2.25-1.4,3.5Z"/>
      <path class="cls-3" d="M280.79,200.42s-5.09,9-2.45,11.63c2.63,2.63,9.37-3.75,11.8-8.7,2.43-4.95-6.47-7.2-9.34-2.93Z"/>
      <path class="cls-6" d="M287.21,202.77s.33-2.29-2.62-1.13c-1.55.61-2.89,2.07-3.66,3.52-.3.56-.51,1.12-.62,1.62-.1.48-.1.91.01,1.24.08.24.23.42.46.53.65.31,1.25.11,1.68-.26.18-.15.34-.34.46-.53.13-.19.22-.39.27-.57.07-.25.07-.46-.03-.52-.6-.36-1.16-.02-1.16-.02l-.25-.46s.84-.51,1.72.02c.32.19.38.62.24,1.1-.07.23-.18.49-.34.72-.15.24-.35.47-.58.66-.59.5-1.4.77-2.28.35-.35-.17-.59-.45-.71-.81-.15-.42-.15-.94-.03-1.52.12-.55.35-1.16.67-1.77.83-1.56,2.28-3.13,3.96-3.79,3.79-1.5,3.33,1.67,3.33,1.68l-.54-.05Z"/>
      <path class="cls-6" d="M261.17,214.12s-5.39.87-8.09-.66l-.31.46c2.87,1.63,8.43.73,8.44.73l-.04-.53Z"/>
      <path class="cls-6" d="M260.57,213.91s.55.49.23,1l.48.25c.55-.88-.35-1.68-.35-1.68l-.37.43Z"/>
      <path class="cls-6" d="M269.44,206.1c-2.26-.56-4.69.76-5.43,2.93-.75,2.18.48,4.39,2.73,4.95,2.25.56,4.69-.76,5.43-2.93.75-2.18-.48-4.39-2.73-4.95Z"/>
      <g>
        <path class="cls-11" d="M264.61,200.36c.5.58.54,1.53.08,2.13-.46.6-1.23.62-1.73.04-.5-.58-.54-1.53-.08-2.13.46-.6,1.23-.62,1.73-.04Z"/>
        <path class="cls-11" d="M262.13,199.26s4.77.07,8.28,3.76l-.69.61c-3.25-3.43-7.65-3.49-7.66-3.49l.08-.88Z"/>
      </g>
      <g>
        <path class="cls-11" d="M249.34,198.12c.5.58.54,1.53.08,2.13-.46.6-1.23.62-1.73.04-.5-.58-.54-1.53-.08-2.13.46-.6,1.23-.62,1.73-.04Z"/>
        <path class="cls-11" d="M254.39,200.07c-3.41-3.06-7.52-3.05-7.54-3.05l-.08.88s4.09,0,7.31,3.15c.08-.3.22-.66.3-.98Z"/>
      </g>
      <path class="cls-11" d="M275.56,193.12c.07.02,26.5,5.74,26.11,31.98-.38,25.64,17.88,19.62,17.93,19.61l.15.54c-.05.02-19.05,6.27-18.66-20.13.38-25.8-25.61-31.43-25.69-31.45l.16-.56Z"/>
      <path class="cls-11" d="M243.98,183.44s5.62-.59,10.92,6.24l-.62,1.31c-4.92-6.33-10.1-5.79-10.12-5.79l-.19-1.76Z"/>
      <path class="cls-11" d="M276.89,185.67s-7.47-1.63-15.84,4.1l.6,1.41c7.76-5.32,14.65-3.81,14.67-3.81l.58-1.7Z"/>
      <path class="cls-11" d="M247.3,175.57c0,.05-1.11,19.57,25.14,15.53l.08.59c-26.98,4.15-25.84-16.08-25.84-16.14h.61Z"/>
      <path class="cls-4" d="M246.23,171.39c0,.05-1.11,19.57,25.14,15.53l.08.59c-26.98,4.15-25.84-16.08-25.83-16.14h.61Z"/>
      <path class="cls-3" d="M148.77,207.72c6.59,19.44,18.59,58.46,31.47,55.12,7.77-2.01,11.27-11.18,1.06-24.53-8.73-11.42-20.84-35.6-26.9-39.56-5.24-3.43-7.91,2.25-5.63,8.97Z"/>
      <g>
        <path class="cls-6" d="M147.16,192.96c-.52.5-1.36.48-1.88-.05l-4.65-4.47h0s-.01-.02-.01-.02l-.04-.04c-.6-.62-.58-1.61.04-2.21.62-.6,1.61-.58,2.21.04l.04.04v.02s.02,0,.02,0l4.3,4.81c.51.53.51,1.37-.02,1.88Z"/>
        <path class="cls-6" d="M141.44,190.33s1.79,11.54,5.38,15.63c3.27,3.73,14.68-.6,14.49-5.5-.2-5.38-6.9-15.06-6.9-15.06l-12.98,4.92Z"/>
        <path class="cls-6" d="M156.38,188.49l.05.12c.39.99-.1,2.09-1.09,2.46-.99.37-2.11-.13-2.5-1.12l-.04-.12-6.07-16.92c-.05-.13-.09-.25-.12-.38-.12-.63.21-1.26.82-1.49.66-.25,1.41.07,1.72.72.01.03.03.06.04.09l7.19,16.64Z"/>
        <g>
          <path class="cls-3" d="M159.54,185.2c.74-.06,1.41.49,1.48,1.23.02.21,0,.41-.08.6-.42,2.74.85,6.38,1.09,7.03v.02s.02.02.02.02h0s0,.03,0,.03h0s0,.02,0,.02h0s0,.01,0,.01c.05.14.09.3.1.46.1,1.05-.67,1.96-1.73,2.05-.92.07-1.75-.51-2.02-1.35h0c-1.46-4.05-.15-9.24-.04-9.23h0c.17-.48.61-.83,1.15-.88Z"/>
          <path class="cls-3" d="M161.56,201.01c-.01.18-.04.36-.08.53h0s0,.01,0,.01c-.32,1.37-1.49,2.43-2.98,2.55-1.86.15-3.52-1.23-3.7-3.07-.07-.71.09-1.38.42-1.96h0c.04-.08.09-.16.14-.23l2.91-4.61c.3-.67.96-1.17,1.76-1.23,1.18-.09,2.23.78,2.34,1.95,0,.08.01.17,0,.25,0,.17-.03.34-.07.5l-.76,5.32Z"/>
        </g>
        <path class="cls-3" d="M148.21,192.43c-.81.3-1.71-.13-2.01-.96l-2.91-7.09h0s0-.03,0-.03l-.03-.07c-.35-.96.14-2.03,1.1-2.38.96-.35,2.03.14,2.38,1.1l.02.07v.02s0,0,0,0l2.36,7.29c.3.82-.11,1.74-.92,2.03Z"/>
        <path class="cls-3" d="M150.5,191.05c.84-.21,1.34-1.08,1.12-1.93l-1.63-7.49h0s0-.03,0-.03l-.02-.07c-.26-.99-1.27-1.59-2.26-1.33-.99.26-1.59,1.27-1.33,2.26l.02.07v.02s0,0,0,0l2.19,7.35c.22.85,1.07,1.37,1.91,1.15Z"/>
        <path class="cls-3" d="M144.41,194.68c-.68.25-1.44-.11-1.7-.8l-2.45-5.97h0s0-.02,0-.02l-.02-.06c-.3-.81.12-1.71.93-2,.81-.3,1.71.12,2,.93l.02.06v.02s0,0,0,0l1.99,6.13c.25.69-.09,1.46-.77,1.71Z"/>
      </g>
      <path class="cls-5" d="M228.78,267.27c-.06.19-.17.43-.23.62.69-.5,1.02-.7,1.69-1.21,3.98-14.46-4.02-18.22-4.05-18.23l-.58,1.23s7.61,3.24,3.16,17.59Z"/>
      <g>
        <path class="cls-5" d="M279.12,238.62s-2.26,5.77-19.15,7.03c0,0,2.59,3.83,2.36,8.71,0,0,16.81-1.96,24.88-11.05l-8.09-4.68Z"/>
        <path class="cls-5" d="M259.97,245.65s-3.37,1.34-5.68,7.17c0,0-5.19-5.84-4.28-11.78l6.91-2.42s-.39,5.6,3.04,7.03Z"/>
      </g>
      <path class="cls-4" d="M317.7,339.56s-9.42-13.33-13.16-11.32c-3.75,2.02-7.73,9.25-11.64,6.05-3.91-3.21-8.69-9.07-15.86-7.33-7.17,1.74-14.51,11.18-17.06,6.41-2.55-4.76-5.98-11.73-11.56-4.21-5.58,7.51-7.81,10.4-7.81,10.4h77.09Z"/>
      <path class="cls-16" d="M95.26,330.06c-5.58-7.51-9.01-.55-11.56,4.21-2.55,4.76-9.88-4.67-17.06-6.41-5.69-1.38-13.84,7.33-18.92,12.6h55.35s-2.23-2.89-7.81-10.4Z"/>
      <path class="cls-4" d="M241.99,331.98c.76,0,1.37-.62,1.37-1.37s-.62-1.37-1.37-1.37-1.37.62-1.37,1.37.62,1.37,1.37,1.37Z"/>
      <path class="cls-4" d="M334.34,329.71c.31-.9,1.29-1.38,2.19-1.07.9.31,1.38,1.29,1.07,2.2,0,.02-2.03,6.41-7.9,6.02-.95-.07-1.67-.89-1.6-1.84.07-.95.89-1.67,1.84-1.6,3.15.21,4.4-3.69,4.4-3.7Z"/>
      <path class="cls-4" d="M234.12,328.98c.31-.9,1.29-1.38,2.2-1.07.9.31,1.38,1.29,1.07,2.2,0,.02-2.03,6.41-7.9,6.02-.95-.07-1.67-.89-1.6-1.84.07-.95.89-1.67,1.84-1.6,3.15.21,4.4-3.69,4.4-3.7Z"/>
      <g>
        <g>
          <rect class="cls-17" x="294.62" y="195.5" width="63.3" height="41.84" rx="1.81" ry="1.81" transform="translate(-34.02 63.18) rotate(-10.52)"/>
          <rect class="cls-28" x="292.13" y="195.97" width="63.3" height="41.84" rx="1.81" ry="1.81" transform="translate(-34.14 62.73) rotate(-10.52)"/>
          <g>
            <rect class="cls-16" x="293.21" y="197.95" width="59.43" height="29" rx="1.25" ry="1.25" transform="translate(-33.35 62.5) rotate(-10.52)"/>
            <rect class="cls-19" x="293.21" y="197.95" width="59.43" height="29" rx="1.25" ry="1.25" transform="translate(-33.35 62.5) rotate(-10.52)"/>
          </g>
          <g>
            <path class="cls-16" d="M316.58,231.76l.59.79c.05.06.13.1.21.1l.99-.04c.2,0,.33.22.21.39l-.57.81c-.05.07-.06.15-.03.23l.34.93c.07.19-.11.38-.3.32l-.95-.29c-.08-.02-.16,0-.22.04l-.78.61c-.16.13-.39.01-.4-.19v-.99c-.01-.08-.06-.16-.12-.2l-.82-.55c-.17-.11-.14-.37.06-.44l.94-.32c.08-.03.14-.09.16-.17l.27-.95c.06-.2.31-.24.43-.08Z"/>
            <path class="cls-16" d="M321.41,230.86l.59.79c.05.06.13.1.21.1l.99-.04c.2,0,.33.22.21.39l-.57.81c-.05.07-.06.15-.03.23l.34.93c.07.19-.11.38-.3.32l-.95-.29c-.08-.02-.16,0-.22.04l-.78.61c-.16.13-.39.01-.4-.19v-.99c-.01-.08-.06-.16-.12-.2l-.82-.55c-.17-.11-.14-.37.06-.44l.94-.32c.08-.03.14-.09.16-.17l.27-.95c.06-.2.31-.24.43-.08Z"/>
            <path class="cls-16" d="M326.24,229.97l.59.79c.05.06.13.1.21.1l.99-.04c.2,0,.33.22.21.39l-.57.81c-.05.07-.06.15-.03.23l.34.93c.07.19-.11.38-.3.32l-.95-.29c-.08-.02-.16,0-.22.04l-.78.61c-.16.13-.39.01-.4-.19v-.99c-.01-.08-.06-.16-.12-.2l-.82-.55c-.17-.11-.14-.37.06-.44l.94-.32c.08-.03.14-.09.16-.17l.27-.95c.06-.2.31-.24.43-.08Z"/>
            <path class="cls-16" d="M331.07,229.07l.59.79c.05.06.13.1.21.1l.99-.04c.2,0,.33.22.21.39l-.57.81c-.05.07-.06.15-.03.23l.34.93c.07.19-.11.38-.3.32l-.95-.29c-.08-.02-.16,0-.22.04l-.78.61c-.16.13-.39.01-.4-.19v-.99c-.01-.08-.06-.16-.12-.2l-.82-.55c-.17-.11-.14-.37.06-.44l.94-.32c.08-.03.14-.09.16-.17l.27-.95c.06-.2.31-.24.43-.08Z"/>
          </g>
          <path class="cls-16" d="M353.52,227.43l-17.18,3.19c-.33.06-.64-.16-.7-.48s.16-.64.48-.7l17.18-3.19c.33-.06.64.16.7.48s-.16.64-.48.7Z"/>
          <g>
            <path class="cls-17" d="M337.31,202.11c.03-.5.57-.95,1.09-1.37.56-.46,1.09-.89,1.11-1.47.02-.64-.44-1.31-1.07-1.55-.5-.19-1-.05-1.33.36-.75.92-.75,3.69-.75,4h.47c0-.81.09-3.04.64-3.7.26-.32.58-.29.8-.21.44.17.78.64.76,1.09-.01.36-.46.73-.93,1.12-.57.47-1.21,1-1.26,1.71l.47.03Z"/>
            <path class="cls-30" d="M303.73,223.8s.62.98,4.6,1.31h0c.15-.54.53-1.51,1.42-1.43.9.08.78,1.45.78,1.45l-.07.08c.1,0,.19,0,.29,0,1.46.01,2.86-.11,4.17-.31,0-.01,0-.03,0-.04.06-.56.27-1.58,1.17-1.65.81-.06.98,1.06,1,1.27,1.46-.34,2.72-.74,3.71-1.12,1.14-.43,1.92-.83,2.2-1.02.85-.59,1.8-2.57,3.86-2.77,2.06-.2,3.28,1.32,3.28,1.32,0,0,3.08.39,7.22-1.06,4.14-1.45,6.44-3.56,6.44-3.56,0,0-.37-.97-.77-1.7s-.94-.61-.94-.61c0,0-.3-.26-.49-.79-.19-.53-.65-4.15-1.29-4.9-.44-.51-1.02-.62-1.34-.64-.13,0-.21,0-.24,0h0s0,0,0,0c0,0-.33-.79-.67-1.84-.26-.79-.53-1.73-.68-2.57-.34-1.95-.09-2.33-.97-3.03,0,0-1.32-.12-2.96.55-1.64.67-1.95,3.74-1.95,3.74-1.85.8-5.79-.22-5.79-.22h0c0-.06.01-1.07-.19-1.66-.21-.6-3.74-1.22-4.33-.94-.41.2-.9,2.22-1.91,4.36-.44.93-.99,1.89-1.67,2.73-.96,1.17-2.17,2.19-3.41,3.06-1.67,1.17-3.38,2.07-4.59,2.7-1.13.59-2.48,1.06-3.58,1.62-.95.48-1.72,1.02-2.01,1.76-.63,1.59-.28,5.89-.28,5.89Z"/>
            <path class="cls-20" d="M323.75,205.75s8.19,1.57,10.93,5.68l2.1-.77s-1.1-3.31,1.28-4.85c-.26-.79-.53-1.73-.68-2.57,0,0-1.04-1.07-2.24.48-1.21,1.55.15,3.37-1.36,3.85-1.51.49-7.25-2.5-9.69-2.54l-.33.72Z"/>
            <path class="cls-20" d="M306.01,216.15c.13.29.42.56.99.63,1.42.18,6.62-2.71,7.97-2.11,1.34.6.65,5.69.65,5.69l1.96-.66s.9-4.89,2.47-7.01c1.57-2.12,7.48-5.89,7.48-5.89,0,0-2.64-.97-3.79-1.05-.56-.04-2.57.12-4.48.29-.44.93-.99,1.89-1.67,2.73-.96,1.17-2.17,2.19-3.41,3.06-1.67,1.17-3.38,2.07-4.59,2.7-1.13.59-2.48,1.06-3.58,1.62Z"/>
            <path class="cls-20" d="M329.76,210.38s.52-1.73-.85-1.68c-1.37.05-4.68,2.7-5.44,4.48,0,0,4.04-3.05,6.28-2.8Z"/>
            <path class="cls-17" d="M337.21,202.06s-.67-.1-.93.2c-.26.3.19,1.66.19,1.66l1.05-.02-.31-1.84Z"/>
            <path class="cls-30" d="M314.19,211.83c.95.49,2.45.74,4.54-.39,3.99-2.15,5.35-6.41,5.35-6.41.64-1.19,1.62-.75,1.62-.75h0c0-.06.01-1.07-.19-1.66-.21-.6-3.74-1.22-4.33-.94-.59.29-1.34,4.33-3.59,7.08-.96,1.17-2.17,2.19-3.41,3.06Z"/>
            <path class="cls-30" d="M323.55,207.29c-.54.11-.16,1.17.35.9.51-.27.07-.99-.35-.9Z"/>
            <path class="cls-30" d="M322.05,208.99c-.54.11-.16,1.17.35.9.51-.27.07-.99-.35-.9Z"/>
            <path class="cls-30" d="M318.48,211.98c-.54.11-.16,1.17.35.9.51-.27.07-.99-.35-.9Z"/>
            <path class="cls-30" d="M320.41,210.69c-.54.11-.16,1.17.35.9s.07-.99-.35-.9Z"/>
            <path class="cls-17" d="M323.62,207.8c.07-.01.13-.06.16-.12.06-.12.02-.26-.1-.32-.01,0-1.01-.54-2.09-1.02-2.26-1.02-2.67-.87-2.82-.81-.29.11-.44.27-.43.46,0,.32.44.5.69.58.13.04.26-.03.3-.16.04-.13-.03-.26-.16-.3-.1-.03-.21-.08-.29-.12.01,0,.03-.01.05-.02.06-.02.48-.1,2.46.8,1.07.48,2.06,1.01,2.07,1.01.05.03.11.03.16.02Z"/>
            <path class="cls-17" d="M322.23,209.64c.06-.01.12-.05.16-.11.07-.11.03-.26-.08-.33-.81-.48-3.52-2.02-4.25-1.87-.29.06-.47.2-.52.39-.08.32.24.6.31.65.1.08.25.07.33-.03.08-.1.07-.25-.03-.33-.06-.05-.12-.12-.14-.17.02-.01.06-.03.15-.05.06-.01.44-.03,2.14.84.92.47,1.76.96,1.77.97.05.03.11.04.17.03Z"/>
            <path class="cls-17" d="M320.62,211.36c.05-.01.1-.04.13-.08.08-.1.07-.25-.04-.33,0,0-.78-.63-1.6-1.24-1.74-1.29-1.97-1.22-2.12-1.17-.24.07-.31.23-.33.32-.07.29.19.59.28.67.09.09.24.09.34,0s.09-.24,0-.34c-.05-.06-.11-.13-.14-.19.4.11,1.97,1.26,3.27,2.31.06.05.13.06.2.05Z"/>
            <path class="cls-17" d="M318.7,212.62s.08-.03.12-.06c.09-.09.1-.24,0-.34,0,0-.59-.61-1.21-1.21-1.33-1.28-1.47-1.25-1.62-1.22-.35.07-.43.45-.36.77.03.13.15.21.28.18s.21-.15.18-.28c-.01-.05-.01-.12,0-.16.36.23,1.45,1.28,2.39,2.25.06.06.14.08.22.07Z"/>
            <g>
              <path class="cls-32" d="M303.73,223.8s.62.98,4.6,1.31h0c.15-.54.53-1.51,1.42-1.43.9.08.78,1.45.78,1.45l-.07.08c.1,0,.19,0,.29,0,1.46.01,2.86-.11,4.17-.31,0-.01,0-.03,0-.04.06-.56.27-1.58,1.17-1.65.81-.06.98,1.06,1,1.27,1.46-.34,2.72-.74,3.71-1.12,1.14-.43,1.92-.83,2.2-1.02.85-.59,1.8-2.57,3.86-2.77,2.06-.2,3.28,1.32,3.28,1.32,0,0,3.08.39,7.22-1.06,4.14-1.45,6.44-3.56,6.44-3.56,0,0-.37-.97-.77-1.7s-.94-.61-.94-.61c0,0-.3-.26-.49-.79-.19-.53-.65-4.15-1.29-4.9-.44-.51-1.02-.62-1.34-.64h-.24s0,0,0,0h0s.68,1.31-1.22,2.61c-1.91,1.3-8.14,2.07-11.13,3.6-2.99,1.53-4.21,4.54-7.8,5.55-3.59,1.01-7.47,2.17-7.86.71-.39-1.45,2.25-2.75,1.45-3.06-.8-.32-2.63,1.7-3.94,2.79-1.31,1.09-3.05.49-3.05.49,0,0,.39-1.95-1.17-2.42-.63,1.59-.28,5.89-.28,5.89Z"/>
              <path class="cls-17" d="M320.81,223.37c1.14-.43,1.92-.83,2.2-1.02.85-.59,1.8-2.57,3.86-2.77,2.06-.2,3.28,1.32,3.28,1.32,0,0,3.08.39,7.22-1.06,4.14-1.45,6.44-3.56,6.44-3.56,0,0-.37-.97-.77-1.7s-.94-.61-.94-.61c0,0-1.31,2.95-2.37,2.94-1.06-.02-.48-1.84-1.19-1.77-.71.07-3.05,3.89-3.91,3.67-.86-.22.56-1.9-.14-2.16-.7-.25-2.99,2.66-3.42,2.19-.43-.48,1.29-2.3.37-2.83-.92-.53-3.44.57-6.62,2.71-2.58,1.73-3.68,3.89-4.01,4.65Z"/>
              <path class="cls-17" d="M336.13,214.64c1.08-.23,3.95-2.08,4.44-2.57.09-.09.09-.24,0-.34-.09-.09-.24-.09-.34,0-.44.44-3.24,2.23-4.2,2.44-.77.17-1.54.18-1.84.11.22-.23.51-.29,1.3-.45.16-.03.33-.07.53-.11,1.27-.27,4.31-2.54,4.44-2.63.1-.08.13-.23.05-.33-.08-.1-.23-.13-.33-.05-.03.02-3.08,2.3-4.25,2.55-.19.04-.37.08-.52.11-.86.18-1.29.26-1.64.7-.17.21-.09.38-.05.45.34.55,2.41.12,2.43.12Z"/>
            </g>
            <path class="cls-29" d="M336.03,220.52c2.18-.47,4.12-1.47,5.41-2.26,1.53-.94,2.48-1.78,2.52-1.81l.13-.11-.07-.16c-.03-.06-.63-1.44-1-1.98-.31-.46-.65-.51-.86-.49-.09-.09-.24-.27-.36-.49-.08-.15-.26-1.04-.42-1.83-.21-1.06-.46-2.26-.67-2.87-.36-1.02-1.39-1.19-1.88-1.14-.13.01-.23.13-.21.26.01.13.13.22.26.21h0s1.06-.09,1.38.83c.2.58.44,1.76.65,2.81.23,1.12.36,1.76.47,1.96.22.42.53.69.55.7l.13.11.13-.07s.22-.05.44.28c.27.41.71,1.37.88,1.75-.71.59-4.17,3.31-8.2,3.96-4.34.7-5.07.51-5.1.5.01,0,.02,0,.02,0l-.19.44c.11.05.88.24,5.35-.48.21-.03.42-.07.63-.12Z"/>
          </g>
        </g>
        <g>
          <path class="cls-5" d="M307.58,248.19c3.26.3,6.17-2.11,6.47-5.37.3-3.26-2.11-6.17-5.37-6.47s-6.17,2.11-6.47,5.37c-.3,3.26,2.11,6.17,5.37,6.47Z"/>
          <path class="cls-12" d="M306.7,248.18c3.26.3,6.17-2.11,6.47-5.37.3-3.26-2.11-6.17-5.37-6.47s-6.17,2.11-6.47,5.37c-.3,3.26,2.11,6.17,5.37,6.47Z"/>
          <path class="cls-4" d="M306.79,247.24c2.75.25,5.19-1.78,5.45-4.52.25-2.75-1.78-5.19-4.52-5.45s-5.19,1.78-5.45,4.52c-.25,2.75,1.78,5.19,4.52,5.45Z"/>
          <g>
            <rect class="cls-17" x="306.83" y="240.15" width=".85" height="4.21" transform="translate(-38.74 59.55) rotate(-10.42)"/>
            <rect class="cls-17" x="306.83" y="240.15" width=".85" height="4.21" transform="translate(489.95 -103.74) rotate(79.58)"/>
          </g>
        </g>
      </g>
      <rect class="cls-18" x=".2" y="339.57" width="400" height="60.43"/>
      <rect class="cls-16" x="40.53" y="339.57" width="314.26" height="1.06"/>
      <g>
        <path class="cls-10" d="M290.15,261.06s-1.14,38.85,3.48,64.03c5.47,29.76,25.62,25.16,27.71,10.11,1.17-8.38-1.22-20.4-3.23-33.13-4.27-27.1-10.9-50.09-18.6-53.21-7.7-3.12-9.72,5.32-9.37,12.2Z"/>
        <path class="cls-5" d="M290.13,261.55c0,.08-.87,28.03,2.46,52.2l-1.2.24c-3.35-24.27-2.48-52.33-2.47-52.41l1.22-.03Z"/>
        <path class="cls-3" d="M309.29,291.02s-2.14,10.36-3.73,16.33c-4.76,17.9-10.34,32.46,1.74,39.39,6.96,3.99,18.11-3.38,17.71-20.18-.33-13.6-2.68-35.35-5.04-42.19-2.04-5.92-9.98-.42-10.68,6.65Z"/>
        <g>
          <path class="cls-6" d="M320.13,277.45c.6.4,1.43.23,1.84-.38l3.79-5.22h0s.01-.02.01-.02l.04-.05c.48-.72.29-1.69-.43-2.17-.72-.48-1.69-.29-2.17.43l-.03.05v.02s-.01,0-.01,0l-3.38,5.49c-.41.61-.26,1.44.35,1.84Z"/>
          <path class="cls-6" d="M325.29,273.85s.28,11.67-2.53,16.34c-2.56,4.25-14.55,2.01-15.23-2.85-.75-5.33,4.12-16.04,4.12-16.04l13.64,2.55Z"/>
          <path class="cls-6" d="M310.27,274.69l-.03.12c-.21,1.04.47,2.04,1.51,2.23,1.04.19,2.06-.5,2.27-1.54l.02-.13,2.98-17.73c.02-.13.05-.26.05-.39,0-.64-.43-1.2-1.07-1.32-.7-.13-1.38.32-1.56,1.01,0,.03-.02.06-.02.09l-4.14,17.65Z"/>
          <g>
            <path class="cls-3" d="M306.57,272.01c-.74.07-1.3.73-1.24,1.47.02.21.08.4.18.57.9,2.62.29,6.43.17,7.11v.03s-.01.02-.01.02h0s0,.03,0,.03v.02s0,0,0,0h0s0,.01,0,.01c-.02.15-.03.31-.02.47.09,1.05,1.01,1.81,2.06,1.71.92-.09,1.63-.81,1.74-1.69h0c.72-4.24-1.49-9.12-1.6-9.09h0c-.25-.44-.74-.71-1.29-.66Z"/>
            <path class="cls-3" d="M307.38,287.92c.04.17.1.35.17.51h0s0,.01,0,.01c.55,1.29,1.89,2.13,3.38,1.98,1.86-.18,3.24-1.83,3.09-3.68-.06-.71-.33-1.35-.76-1.85h0c-.06-.07-.12-.14-.18-.2l-3.68-4.02c-.42-.61-1.15-.98-1.95-.9-1.18.12-2.06,1.16-1.96,2.33,0,.08.02.17.03.25.03.17.09.33.16.48l1.69,5.1Z"/>
          </g>
          <path class="cls-3" d="M319.01,277.12c.85.15,1.66-.43,1.81-1.3l1.61-7.49h0s0-.03,0-.03v-.07c.19-1.01-.49-1.97-1.49-2.15-1.01-.18-1.97.5-2.15,1.51v.07s-.01.02-.01.02h0s-1.04,7.6-1.04,7.6c-.15.87.42,1.69,1.27,1.84Z"/>
          <path class="cls-3" d="M316.51,276.16c-.86-.06-1.51-.83-1.44-1.7l.28-7.66h0s0-.03,0-.03v-.07c.08-1.02.97-1.79,1.99-1.71,1.02.08,1.79.97,1.71,1.99v.07s0,.02,0,.02h0s-.86,7.62-.86,7.62c-.06.88-.82,1.54-1.68,1.47Z"/>
          <path class="cls-3" d="M323.14,278.66c.71.13,1.4-.36,1.53-1.09l1.35-6.31h0s0-.02,0-.02v-.06c.16-.85-.41-1.66-1.26-1.81-.85-.15-1.66.42-1.81,1.27v.06s-.01.02-.01.02h0s-.87,6.39-.87,6.39c-.13.73.35,1.42,1.06,1.55Z"/>
        </g>
      </g>
      <g>
        <rect class="cls-16" x="118.39" y="167.49" width="3.37" height="4.42" transform="translate(-78.53 231.12) rotate(-71.9)"/>
        <rect class="cls-16" x="116.93" y="167.86" width="1.53" height="2.01" transform="translate(-79.39 228.25) rotate(-71.89)"/>
        <rect class="cls-16" x="121.51" y="169.12" width="2.29" height="3.01" transform="translate(-77.62 234.25) rotate(-71.91)"/>
      </g>
      <path class="cls-4" d="M118.27,131.34c2.67-1.07,5.7.23,6.77,2.89.3.75.42,1.56.36,2.36l-.75,9.08c-.02.25-.17.45-.4.55-.23.09-.48.05-.67-.12l-6.82-6.05c-.61-.53-1.07-1.2-1.38-1.96-1.07-2.67.22-5.7,2.89-6.77h0ZM119.28,133.86c-1.17.47-1.73,1.79-1.27,2.96.47,1.17,1.79,1.73,2.96,1.27,1.17-.47,1.73-1.79,1.27-2.96-.47-1.17-1.79-1.73-2.96-1.27Z"/>
    </g>
  </g>
</svg>