<svg width="140" height="20" viewBox="0 0 140 20" fill="none" xmlns="http://www.w3.org/2000/svg">
<path d="M32.1825 15.3336C31.4253 15.3336 30.7095 15.2086 30.0232 14.9586C29.337 14.7086 28.7454 14.3586 28.2366 13.9086C27.7278 13.4586 27.3551 12.9398 27.1244 12.3586C27.0061 12.0961 27.012 11.8523 27.1303 11.6273C27.2546 11.4023 27.4616 11.2586 27.7574 11.1961C27.9704 11.1461 28.1774 11.1836 28.3845 11.2961C28.5916 11.4148 28.7454 11.5898 28.8519 11.8273C28.9938 12.1398 29.2246 12.4273 29.5499 12.6898C29.8753 12.9523 30.2658 13.1648 30.7272 13.3273C31.1886 13.4898 31.6737 13.5711 32.1766 13.5711C32.7445 13.5711 33.2651 13.4773 33.7443 13.2898C34.2235 13.1023 34.608 12.8336 34.9038 12.4773C35.1996 12.1211 35.3475 11.6836 35.3475 11.1586C35.3475 10.4961 35.105 9.90859 34.6139 9.38359C34.1229 8.85859 33.3184 8.53359 32.2003 8.40859C30.739 8.25859 29.5854 7.80234 28.7513 7.04609C27.9112 6.28359 27.4971 5.34609 27.4971 4.22109C27.4971 3.39609 27.716 2.70234 28.1538 2.12734C28.5916 1.55234 29.1831 1.11484 29.9345 0.821094C30.6858 0.521094 31.5199 0.371094 32.4369 0.371094C33.1586 0.371094 33.7857 0.477344 34.3241 0.689844C34.8624 0.902344 35.3298 1.19609 35.7321 1.57109C36.1343 1.94609 36.4834 2.38984 36.7733 2.89609C36.9389 3.17109 37.004 3.42734 36.9744 3.67109C36.9448 3.91484 36.8324 4.10234 36.6313 4.23984C36.4065 4.38984 36.1639 4.42109 35.9036 4.33359C35.6433 4.24609 35.4481 4.08359 35.3179 3.84609C35.1286 3.48359 34.8979 3.17734 34.6258 2.92734C34.3537 2.67734 34.0342 2.48359 33.6674 2.33984C33.3006 2.19609 32.8688 2.12734 32.3777 2.12734C31.5022 2.11484 30.7745 2.28359 30.1829 2.63984C29.5913 2.99609 29.2955 3.53984 29.2955 4.27734C29.2955 4.65234 29.3843 5.00859 29.5677 5.35234C29.7511 5.69609 30.0883 5.98984 30.5793 6.23984C31.0703 6.48984 31.7743 6.66484 32.6913 6.76484C34.0933 6.91484 35.1878 7.36484 35.9746 8.12109C36.7614 8.87734 37.1519 9.87109 37.1519 11.1023C37.1519 11.8148 37.0158 12.4273 36.7378 12.9523C36.4597 13.4773 36.087 13.9148 35.6256 14.2711C35.1582 14.6273 34.6258 14.8898 34.0342 15.0648C33.4367 15.2398 32.8214 15.3273 32.1825 15.3273V15.3336Z" fill="#67548E"/>
<path d="M44.3392 15.2223C43.3571 15.2223 42.4875 15.0035 41.7303 14.5598C40.9671 14.116 40.3755 13.5035 39.9437 12.7285C39.5118 11.9473 39.2988 11.0535 39.2988 10.0473C39.2988 9.04102 39.5 8.12227 39.9082 7.34727C40.3164 6.56602 40.8784 5.95977 41.6001 5.51602C42.3219 5.07227 43.1442 4.85352 44.0789 4.85352C45.0136 4.85352 45.7886 5.06602 46.4512 5.49727C47.1137 5.92852 47.6166 6.52227 47.9656 7.27227C48.3147 8.02852 48.4862 8.89727 48.4862 9.87852C48.4862 10.116 48.4093 10.3098 48.2555 10.466C48.1017 10.6223 47.9065 10.6973 47.6698 10.6973H40.5353V9.20352H47.6166L46.8889 9.72852C46.8771 9.10352 46.7588 8.54727 46.534 8.05352C46.3092 7.55977 45.9897 7.17227 45.5756 6.88477C45.1615 6.59727 44.6586 6.45352 44.073 6.45352C43.3986 6.45352 42.8247 6.60977 42.3455 6.92227C41.8663 7.23477 41.5055 7.65977 41.257 8.20352C41.0085 8.74727 40.8843 9.35977 40.8843 10.0473C40.8843 10.7348 41.0322 11.341 41.328 11.8785C41.6238 12.416 42.032 12.841 42.5467 13.1473C43.0673 13.4598 43.6589 13.616 44.3333 13.616C44.7001 13.616 45.0728 13.5473 45.4573 13.4035C45.8418 13.2598 46.1495 13.0973 46.3861 12.9098C46.5636 12.7723 46.7529 12.7035 46.9599 12.6973C47.167 12.6973 47.3445 12.7535 47.4983 12.891C47.6994 13.0785 47.8059 13.2848 47.8177 13.5098C47.8296 13.7348 47.7349 13.9285 47.5338 14.091C47.1315 14.4285 46.6346 14.7035 46.037 14.916C45.4395 15.1285 44.8716 15.2348 44.3274 15.2348L44.3392 15.2223Z" fill="#67548E"/>
<path d="M51.6868 15.1666C51.4265 15.1666 51.2135 15.0791 51.042 14.8979C50.8704 14.7166 50.7876 14.4916 50.7876 14.2166V5.87285C50.7876 5.58535 50.8704 5.3541 51.042 5.1791C51.2135 5.0041 51.4265 4.9166 51.6868 4.9166C51.9471 4.9166 52.1778 5.0041 52.3435 5.1791C52.5091 5.3541 52.592 5.58535 52.592 5.87285V14.2104C52.592 14.4854 52.5091 14.7104 52.3435 14.8916C52.1778 15.0729 51.959 15.1604 51.6868 15.1604V15.1666ZM58.9634 15.1666C58.7031 15.1666 58.4901 15.0791 58.3186 14.8979C58.147 14.7166 58.0642 14.4916 58.0642 14.2166V9.6166C58.0642 8.9041 57.9399 8.3291 57.6915 7.8791C57.443 7.4291 57.1117 7.09785 56.6917 6.8791C56.2716 6.66035 55.7925 6.5541 55.2482 6.5541C54.7513 6.5541 54.3017 6.66035 53.9053 6.87285C53.503 7.08535 53.1835 7.3666 52.9469 7.72285C52.7103 8.0791 52.592 8.48535 52.592 8.94785H51.4798C51.4798 8.16035 51.6572 7.46035 52.0181 6.8416C52.379 6.22285 52.87 5.73535 53.4971 5.37285C54.1242 5.01035 54.8222 4.8291 55.6031 4.8291C56.384 4.8291 57.1472 5.01035 57.7861 5.3791C58.431 5.74785 58.9338 6.28535 59.3065 6.99785C59.6792 7.71035 59.8626 8.5791 59.8626 9.6166V14.2166C59.8626 14.4916 59.7798 14.7166 59.6082 14.8979C59.4367 15.0791 59.2237 15.1666 58.9634 15.1666Z" fill="#67548E"/>
<path d="M67.24 15.2184C66.3171 15.2184 65.4889 14.9934 64.7553 14.5371C64.0158 14.0809 63.4361 13.4621 63.0042 12.6746C62.5723 11.8871 62.3594 11.0059 62.3594 10.0184C62.3594 9.03086 62.5546 8.14961 62.951 7.37461C63.3473 6.59336 63.8857 5.98086 64.5719 5.52461C65.2582 5.06836 66.0272 4.84336 66.891 4.84336C67.589 4.84336 68.228 4.99336 68.8195 5.29961C69.4111 5.60586 69.9022 6.01836 70.3044 6.54336V1.49336C70.3044 1.20586 70.3873 0.974609 70.5588 0.799609C70.7304 0.624609 70.9434 0.537109 71.2037 0.537109C71.464 0.537109 71.6947 0.624609 71.8603 0.799609C72.026 0.974609 72.1088 1.20586 72.1088 1.49336V10.0184C72.1088 11.0059 71.8958 11.8871 71.464 12.6746C71.0321 13.4621 70.4523 14.0809 69.7188 14.5371C68.9852 14.9934 68.1629 15.2184 67.24 15.2184ZM67.24 13.5371C67.8434 13.5371 68.3759 13.3871 68.8491 13.0809C69.3224 12.7746 69.6951 12.3559 69.9613 11.8184C70.2334 11.2809 70.3695 10.6871 70.3695 10.0246C70.3695 9.36211 70.2334 8.75586 69.9613 8.23086C69.6892 7.70586 69.3165 7.29336 68.8491 6.98711C68.3759 6.68086 67.8375 6.53086 67.24 6.53086C66.6425 6.53086 66.116 6.68086 65.6368 6.98711C65.1576 7.29336 64.779 7.70586 64.5068 8.23086C64.2288 8.75586 64.0927 9.34961 64.0927 10.0246C64.0927 10.6996 64.2288 11.2809 64.5068 11.8184C64.7849 12.3559 65.1635 12.7746 65.6368 13.0809C66.116 13.3871 66.6484 13.5371 67.24 13.5371Z" fill="#67548E"/>
<path d="M80.1613 15.2184C79.2384 15.2184 78.4161 14.9934 77.6825 14.5371C76.9489 14.0809 76.3751 13.4621 75.9492 12.6746C75.5232 11.8871 75.3043 11.0059 75.2925 10.0184V1.49336C75.2925 1.20586 75.3753 0.974609 75.5469 0.799609C75.7184 0.624609 75.9314 0.537109 76.1917 0.537109C76.452 0.537109 76.6827 0.624609 76.8484 0.799609C77.014 0.974609 77.0968 1.20586 77.0968 1.49336V6.54336C77.511 6.01836 78.0079 5.60586 78.5936 5.29961C79.1792 4.99336 79.8182 4.84336 80.5162 4.84336C81.38 4.84336 82.149 5.06836 82.8353 5.52461C83.5215 5.98086 84.0599 6.59961 84.4562 7.37461C84.8526 8.15586 85.0478 9.03711 85.0478 10.0184C85.0478 10.9996 84.8348 11.8871 84.403 12.6746C83.9711 13.4621 83.3914 14.0809 82.6578 14.5371C81.9242 14.9934 81.096 15.2184 80.1613 15.2184ZM80.1613 13.5371C80.7647 13.5371 81.2971 13.3871 81.7704 13.0809C82.2437 12.7746 82.6164 12.3559 82.8944 11.8184C83.1725 11.2809 83.3085 10.6871 83.3085 10.0246C83.3085 9.36211 83.1725 8.75586 82.8944 8.23086C82.6164 7.70586 82.2437 7.29336 81.7704 6.98711C81.2971 6.68086 80.7588 6.53086 80.1613 6.53086C79.5638 6.53086 79.0372 6.68086 78.5581 6.98711C78.0789 7.29336 77.7062 7.70586 77.434 8.23086C77.1619 8.75586 77.0258 9.34961 77.0258 10.0246C77.0258 10.6996 77.1619 11.2809 77.434 11.8184C77.7062 12.3559 78.0789 12.7746 78.5581 13.0809C79.0372 13.3871 79.5697 13.5371 80.1613 13.5371Z" fill="#67548E"/>
<path d="M91.0282 14.7321C90.8034 14.8321 90.5964 14.8384 90.4011 14.7571C90.2059 14.6759 90.0521 14.5196 89.9338 14.2821L85.8814 6.15086C85.7631 5.91336 85.7512 5.68836 85.84 5.46961C85.9287 5.25086 86.0825 5.09461 86.3073 4.99461C86.5321 4.89461 86.7451 4.88836 86.9462 4.96961C87.1474 5.05086 87.3012 5.20711 87.4077 5.44461L91.2826 13.5759C91.4009 13.8134 91.4423 14.0384 91.4128 14.2571C91.3832 14.4759 91.2589 14.6321 91.0341 14.7321H91.0282ZM88.9399 19.6321C88.8216 19.6321 88.6796 19.5946 88.514 19.5196C87.9934 19.2696 87.8514 18.8759 88.088 18.3446L93.4833 5.46336C93.72 4.93836 94.0927 4.78836 94.5955 5.01336C95.1279 5.25086 95.2758 5.64461 95.0392 6.18836L89.6261 19.0509C89.4842 19.4384 89.2534 19.6321 88.934 19.6321H88.9399Z" fill="#67548E"/>
<path d="M97.6482 19.5187C97.3879 19.5187 97.175 19.4312 97.0034 19.25C96.8319 19.0687 96.749 18.8437 96.749 18.5687V10.0437C96.7609 9.05625 96.9797 8.175 97.4057 7.3875C97.8316 6.6 98.4055 5.98125 99.1391 5.525C99.8726 5.06875 100.695 4.84375 101.618 4.84375C102.541 4.84375 103.381 5.06875 104.114 5.525C104.848 5.98125 105.428 6.6 105.86 7.3875C106.291 8.175 106.504 9.05625 106.504 10.0437C106.504 11.0312 106.309 11.9125 105.913 12.6875C105.516 13.4688 104.978 14.0813 104.292 14.5375C103.606 14.9938 102.836 15.2188 101.973 15.2188C101.275 15.2188 100.636 15.0688 100.05 14.7625C99.4644 14.4563 98.9675 14.0437 98.5534 13.5187V18.5687C98.5534 18.8437 98.4706 19.0687 98.3049 19.25C98.1393 19.4312 97.9204 19.5187 97.6482 19.5187ZM101.612 13.5375C102.215 13.5375 102.748 13.3875 103.221 13.0813C103.694 12.775 104.067 12.3563 104.345 11.8313C104.623 11.3 104.759 10.7062 104.759 10.0437C104.759 9.38125 104.623 8.76875 104.345 8.2375C104.067 7.70625 103.694 7.2875 103.221 6.9875C102.748 6.68125 102.209 6.53125 101.612 6.53125C101.014 6.53125 100.488 6.68125 100.009 6.9875C99.5295 7.29375 99.1568 7.7125 98.8847 8.2375C98.6125 8.76875 98.4765 9.36875 98.4765 10.0437C98.4765 10.7188 98.6125 11.3 98.8847 11.8313C99.1568 12.3625 99.5295 12.7812 100.009 13.0813C100.488 13.3875 101.02 13.5375 101.612 13.5375Z" fill="#67548E"/>
<path d="M113.219 15.2187C112.355 15.2187 111.586 14.9937 110.9 14.5375C110.214 14.0812 109.675 13.4687 109.279 12.6875C108.883 11.9062 108.688 11.025 108.688 10.0437C108.688 9.0625 108.9 8.175 109.332 7.3875C109.764 6.6 110.344 5.98125 111.083 5.525C111.823 5.06875 112.651 4.84375 113.568 4.84375C114.485 4.84375 115.313 5.06875 116.047 5.525C116.78 5.98125 117.36 6.6 117.792 7.3875C118.224 8.175 118.437 9.05625 118.437 10.0437H117.745C117.745 11.0312 117.55 11.9125 117.153 12.6875C116.757 13.4687 116.218 14.0812 115.532 14.5375C114.846 14.9937 114.077 15.2187 113.213 15.2187H113.219ZM113.574 13.5375C114.177 13.5375 114.71 13.3875 115.183 13.0812C115.656 12.775 116.029 12.3562 116.295 11.8312C116.567 11.3 116.704 10.7062 116.704 10.0437C116.704 9.38125 116.567 8.76875 116.295 8.2375C116.023 7.70625 115.651 7.2875 115.183 6.9875C114.71 6.68125 114.172 6.53125 113.574 6.53125C112.977 6.53125 112.45 6.68125 111.971 6.9875C111.492 7.29375 111.113 7.7125 110.841 8.2375C110.563 8.76875 110.427 9.36875 110.427 10.0437C110.427 10.7187 110.563 11.3 110.841 11.8312C111.119 12.3625 111.498 12.7812 111.971 13.0812C112.45 13.3875 112.982 13.5375 113.574 13.5375ZM117.538 15.1625C117.277 15.1625 117.064 15.075 116.893 14.8937C116.721 14.7125 116.638 14.4875 116.638 14.2125V11.35L116.976 9.36875L118.443 10.0437V14.2125C118.443 14.4875 118.36 14.7125 118.188 14.8937C118.017 15.075 117.804 15.1625 117.544 15.1625H117.538Z" fill="#67548E"/>
<path d="M124.654 15.2201C123.826 15.2201 123.063 15.0889 122.365 14.8201C121.661 14.5514 121.116 14.2139 120.726 13.8014C120.548 13.6014 120.477 13.3764 120.507 13.1201C120.537 12.8639 120.649 12.6576 120.85 12.4951C121.087 12.2951 121.317 12.2139 121.548 12.2451C121.779 12.2764 121.974 12.3826 122.14 12.5701C122.341 12.8076 122.66 13.0264 123.104 13.2326C123.548 13.4389 124.039 13.5389 124.583 13.5389C125.269 13.5389 125.79 13.4201 126.151 13.1826C126.512 12.9451 126.695 12.6389 126.707 12.2639C126.719 11.8889 126.553 11.5639 126.204 11.2889C125.855 11.0139 125.222 10.7889 124.299 10.6139C123.11 10.3639 122.24 9.98887 121.708 9.49512C121.17 8.99512 120.903 8.38887 120.903 7.66387C120.903 7.02637 121.081 6.50137 121.436 6.08262C121.791 5.66387 122.246 5.35137 122.796 5.14512C123.353 4.93887 123.926 4.83887 124.53 4.83887C125.311 4.83887 125.997 4.97012 126.6 5.23262C127.204 5.49512 127.677 5.85762 128.032 6.32012C128.198 6.52012 128.275 6.72637 128.263 6.94512C128.251 7.16387 128.15 7.34512 127.961 7.49512C127.772 7.63262 127.547 7.67637 127.287 7.62637C127.026 7.57637 126.807 7.46387 126.63 7.28887C126.334 6.98887 126.015 6.78262 125.672 6.67012C125.328 6.55762 124.932 6.50137 124.488 6.50137C123.968 6.50137 123.53 6.59512 123.169 6.78262C122.808 6.97012 122.631 7.24512 122.631 7.60762C122.631 7.83262 122.684 8.03262 122.796 8.21387C122.909 8.39512 123.128 8.55762 123.459 8.70137C123.79 8.84512 124.275 8.98262 124.908 9.12012C125.796 9.30762 126.494 9.54512 127.003 9.83262C127.517 10.1201 127.884 10.4514 128.109 10.8326C128.334 11.2139 128.446 11.6514 128.446 12.1514C128.446 12.7264 128.304 13.2451 128.014 13.7014C127.724 14.1639 127.298 14.5326 126.742 14.8014C126.18 15.0764 125.482 15.2139 124.648 15.2139L124.654 15.2201Z" fill="#67548E"/>
<path d="M134.26 15.2201C133.432 15.2201 132.669 15.0889 131.971 14.8201C131.267 14.5514 130.723 14.2139 130.332 13.8014C130.155 13.6014 130.084 13.3764 130.113 13.1201C130.143 12.8639 130.255 12.6576 130.457 12.4951C130.693 12.2951 130.924 12.2139 131.155 12.2451C131.385 12.2764 131.581 12.3826 131.746 12.5701C131.947 12.8076 132.267 13.0264 132.711 13.2326C133.154 13.4389 133.645 13.5389 134.19 13.5389C134.876 13.5389 135.396 13.4201 135.757 13.1826C136.118 12.9451 136.301 12.6389 136.313 12.2639C136.325 11.8889 136.16 11.5639 135.81 11.2889C135.461 11.0139 134.828 10.7889 133.906 10.6139C132.716 10.3639 131.847 9.98887 131.314 9.49512C130.776 8.99512 130.51 8.38887 130.51 7.66387C130.51 7.02637 130.687 6.50137 131.042 6.08262C131.397 5.66387 131.853 5.35137 132.403 5.14512C132.959 4.93887 133.533 4.83887 134.136 4.83887C134.917 4.83887 135.603 4.97012 136.207 5.23262C136.81 5.49512 137.284 5.85762 137.638 6.32012C137.804 6.52012 137.881 6.72637 137.869 6.94512C137.857 7.16387 137.757 7.34512 137.567 7.49512C137.378 7.63262 137.153 7.67637 136.893 7.62637C136.633 7.57637 136.414 7.46387 136.236 7.28887C135.941 6.98887 135.621 6.78262 135.278 6.67012C134.935 6.55762 134.539 6.50137 134.095 6.50137C133.574 6.50137 133.136 6.59512 132.776 6.78262C132.415 6.97012 132.237 7.24512 132.237 7.60762C132.237 7.83262 132.29 8.03262 132.403 8.21387C132.515 8.39512 132.734 8.55762 133.065 8.70137C133.397 8.84512 133.882 8.98262 134.515 9.12012C135.402 9.30762 136.1 9.54512 136.609 9.83262C137.124 10.1201 137.491 10.4514 137.715 10.8326C137.94 11.2139 138.053 11.6514 138.053 12.1514C138.053 12.7264 137.911 13.2451 137.621 13.7014C137.331 14.1639 136.905 14.5326 136.349 14.8014C135.787 15.0764 135.089 15.2139 134.255 15.2139L134.26 15.2201Z" fill="#67548E"/>
<path d="M22.2795 10.2619C22.3564 6.38066 19.4399 3.16816 15.7602 3.08691C14.0623 3.04941 12.5005 3.68691 11.3055 4.76816C11.2109 4.67441 11.1162 4.58691 11.0156 4.49941H11.0452L6.95733 0.180664L2.69788 4.32441H2.76887C2.70379 4.37441 2.64463 4.43066 2.57956 4.48066C2.5204 4.53066 2.46716 4.58066 2.408 4.63066C1.04734 5.89316 0.171782 7.72441 0.130371 9.78066C0.130371 9.84941 0.130371 9.91191 0.130371 9.98066C0.148119 13.7807 3.02917 16.8932 6.6497 16.9744C8.34757 17.0119 9.90937 16.3744 11.1044 15.2932C11.1044 15.2932 11.1103 15.2869 11.1162 15.2807C11.2286 15.3932 11.3469 15.4994 11.4712 15.5994L15.4585 19.8119L19.7179 15.6682H19.7061C21.2383 14.4119 22.2381 12.4619 22.2795 10.2557V10.2619ZM13.3998 10.0494C13.3998 9.92441 13.4412 9.73066 13.4412 9.69941C13.6364 8.59316 14.5711 7.76191 15.6715 7.78691C16.8724 7.81191 17.8308 8.84316 17.8485 10.0994C17.8485 10.0994 17.8485 10.1307 17.8485 10.1494C17.8308 10.9869 17.4048 11.7119 16.7718 12.1182C16.4228 12.3369 16.0146 12.4619 15.5827 12.4557C15.5472 12.4557 15.5117 12.4557 15.4703 12.4682C14.4114 12.3932 13.5654 11.5369 13.4234 10.4494C13.4234 10.4119 13.3938 10.1807 13.3998 10.0557V10.0494ZM4.57913 9.86191C4.59097 9.18066 4.87493 8.57441 5.31862 8.15566C5.31862 8.15566 5.33046 8.14941 5.33046 8.14316C5.73274 7.78066 6.25334 7.56191 6.82718 7.57441C7.93346 7.59941 8.83267 8.46816 8.98057 9.58691C8.9924 9.71191 9.00424 9.83066 9.00424 9.94941C9.00424 10.0682 8.9924 10.1869 8.96874 10.3244C8.96874 10.3307 8.96874 10.3369 8.96874 10.3432C8.77943 11.4557 7.84472 12.2932 6.73253 12.2682C5.55526 12.2432 4.61463 11.2557 4.55547 10.0369H4.57322C4.57322 9.97441 4.57322 9.91816 4.57322 9.85566L4.57913 9.86191Z" fill="#67548E"/>
<path d="M22.2799 10.0813L17.8429 9.9875C17.7779 8.775 16.8372 7.79375 15.6659 7.76875C14.5596 7.74375 13.6249 8.58125 13.4297 9.7C13.4119 9.81875 13.3942 9.94375 13.3942 10.0688C13.3942 10.1938 13.3942 10.3188 13.4178 10.4438C13.2818 12.3813 12.4121 14.0938 11.0988 15.275C9.90378 16.3563 8.34198 16.9938 6.64411 16.9563C2.99991 16.875 0.0951975 13.7125 0.130693 9.86875L4.56171 9.9625C4.57946 11.2188 5.53784 12.25 6.73876 12.275C7.84504 12.3 8.77975 11.4625 8.97498 10.35C8.99273 10.2313 9.01047 10.1063 9.01047 9.975C9.01047 9.84375 9.01047 9.71875 8.98681 9.6C9.12288 7.6625 9.99252 5.95 11.3058 4.76875C12.5009 3.6875 14.0627 3.05 15.7605 3.0875C19.3811 3.16875 22.2621 6.28125 22.2799 10.0813Z" fill="url(#paint0_radial_4240_8676)"/>
<path d="M11.27 10.0588C11.27 9.80879 11.2996 9.55879 11.3351 9.32129" stroke="#EBEBEB" stroke-width="0.59" stroke-miterlimit="10" stroke-linecap="round"/>
<path d="M11.7671 7.93893C12.5539 6.28268 14.1926 5.15768 16.068 5.20143C18.665 5.25768 20.7238 7.52643 20.6705 10.2702C20.6291 12.5077 19.1916 14.3639 17.2571 14.9452" stroke="#EBEBEB" stroke-width="0.59" stroke-miterlimit="10" stroke-linecap="round" stroke-dasharray="1.18 1.18"/>
<path d="M16.5702 15.083C16.3395 15.1143 16.1088 15.1268 15.8662 15.1205" stroke="#EBEBEB" stroke-width="0.59" stroke-miterlimit="10" stroke-linecap="round"/>
<path d="M11.2692 10.0537C11.2692 10.3037 11.2396 10.5537 11.2041 10.7912" stroke="#EBEBEB" stroke-width="0.59" stroke-miterlimit="10" stroke-linecap="round"/>
<path d="M10.7726 12.182C9.9858 13.8383 8.3471 14.9633 6.47175 14.9195C3.87467 14.8633 1.81593 12.5945 1.86917 9.85078C1.91059 7.61328 3.34815 5.75703 5.28265 5.17578" stroke="#EBEBEB" stroke-width="0.59" stroke-miterlimit="10" stroke-linecap="round" stroke-dasharray="1.18 1.18"/>
<path d="M5.96289 5.0293C6.19361 4.99805 6.42433 4.98555 6.66688 4.9918" stroke="#EBEBEB" stroke-width="0.59" stroke-miterlimit="10" stroke-linecap="round"/>
<path d="M14.1337 15.2721C14.5813 15.2721 14.9442 14.8887 14.9442 14.4158C14.9442 13.9429 14.5813 13.5596 14.1337 13.5596C13.6861 13.5596 13.3232 13.9429 13.3232 14.4158C13.3232 14.8887 13.6861 15.2721 14.1337 15.2721Z" fill="#EBEBEB"/>
<path d="M8.64964 6.43066C9.05805 6.43066 9.38913 6.08089 9.38913 5.64941C9.38913 5.21794 9.05805 4.86816 8.64964 4.86816C8.24124 4.86816 7.91016 5.21794 7.91016 5.64941C7.91016 6.08089 8.24124 6.43066 8.64964 6.43066Z" stroke="#EBEBEB" stroke-width="0.5" stroke-miterlimit="10"/>
<defs>
<radialGradient id="paint0_radial_4240_8676" cx="0" cy="0" r="1" gradientUnits="userSpaceOnUse" gradientTransform="translate(11.2034 10.0311) rotate(1.24662) scale(9.13439 19.2995)">
<stop stop-color="#8E81A9" stop-opacity="0.8"/>
<stop offset="1" stop-color="#67548E" stop-opacity="0"/>
</radialGradient>
</defs>
</svg>
