<svg width="260" height="20" viewBox="0 0 260 20" fill="none" xmlns="http://www.w3.org/2000/svg">
<path fill-rule="evenodd" clip-rule="evenodd" d="M10.662 8.81469L7.58334 11.8934C7.48534 11.9914 7.35801 12.04 7.23 12.04C7.10134 12.04 6.974 11.9914 6.876 11.8934L5.33667 10.354C5.14134 10.1587 5.14134 9.84202 5.33667 9.64669C5.532 9.45135 5.848 9.45135 6.04334 9.64669L7.23 10.8327L9.95467 8.10735C10.15 7.91202 10.4667 7.91202 10.662 8.10735C10.8573 8.30269 10.8573 8.61935 10.662 8.81469ZM8 3.66669C4.508 3.66669 1.66667 6.50802 1.66667 10C1.66667 13.4927 4.508 16.3334 8 16.3334C11.492 16.3334 14.3333 13.4927 14.3333 10C14.3333 6.50802 11.492 3.66669 8 3.66669Z" fill="#67548E"/>
<path d="M27.4785 13.9268V15H22.208V13.9268H27.4785ZM22.4746 5.04688V15H21.1553V5.04688H22.4746ZM26.7812 9.32617V10.3994H22.208V9.32617H26.7812ZM27.4102 5.04688V6.12695H22.208V5.04688H27.4102ZM33.2822 13.7354V9.92773C33.2822 9.63607 33.223 9.38314 33.1045 9.16895C32.9906 8.9502 32.8174 8.78158 32.585 8.66309C32.3525 8.5446 32.0654 8.48535 31.7236 8.48535C31.4046 8.48535 31.1243 8.54004 30.8828 8.64941C30.6458 8.75879 30.459 8.90234 30.3223 9.08008C30.1901 9.25781 30.124 9.44922 30.124 9.6543H28.8594C28.8594 9.38997 28.9277 9.12793 29.0645 8.86816C29.2012 8.6084 29.3971 8.3737 29.6523 8.16406C29.9121 7.94987 30.222 7.78125 30.582 7.6582C30.9466 7.5306 31.3522 7.4668 31.7988 7.4668C32.3366 7.4668 32.8105 7.55794 33.2207 7.74023C33.6354 7.92253 33.959 8.19824 34.1914 8.56738C34.4284 8.93197 34.5469 9.38997 34.5469 9.94141V13.3867C34.5469 13.6328 34.5674 13.8949 34.6084 14.1729C34.654 14.4508 34.7201 14.6901 34.8066 14.8906V15H33.4873C33.4235 14.8542 33.3734 14.6605 33.3369 14.4189C33.3005 14.1729 33.2822 13.945 33.2822 13.7354ZM33.501 10.5156L33.5146 11.4043H32.2363C31.8763 11.4043 31.555 11.4339 31.2725 11.4932C30.9899 11.5479 30.7529 11.6322 30.5615 11.7461C30.3701 11.86 30.2243 12.0036 30.124 12.1768C30.0238 12.3454 29.9736 12.5436 29.9736 12.7715C29.9736 13.0039 30.026 13.2158 30.1309 13.4072C30.2357 13.5986 30.3929 13.7513 30.6025 13.8652C30.8167 13.9746 31.0788 14.0293 31.3887 14.0293C31.776 14.0293 32.1178 13.9473 32.4141 13.7832C32.7103 13.6191 32.945 13.4186 33.1182 13.1816C33.2959 12.9447 33.3916 12.7145 33.4053 12.4912L33.9453 13.0996C33.9134 13.291 33.8268 13.5029 33.6855 13.7354C33.5443 13.9678 33.3551 14.1911 33.1182 14.4053C32.8857 14.6149 32.6077 14.7904 32.2842 14.9316C31.9652 15.0684 31.6051 15.1367 31.2041 15.1367C30.7028 15.1367 30.263 15.0387 29.8848 14.8428C29.5111 14.6468 29.2194 14.3848 29.0098 14.0566C28.8047 13.724 28.7021 13.3525 28.7021 12.9424C28.7021 12.5459 28.7796 12.1973 28.9346 11.8965C29.0895 11.5911 29.3128 11.3382 29.6045 11.1377C29.8962 10.9326 30.2471 10.7777 30.6572 10.6729C31.0674 10.568 31.5254 10.5156 32.0312 10.5156H33.501ZM37.8008 8.76562V15H36.5361V7.60352H37.7666L37.8008 8.76562ZM40.1113 7.5625L40.1045 8.73828C39.9997 8.71549 39.8994 8.70182 39.8037 8.69727C39.7126 8.68815 39.6077 8.68359 39.4893 8.68359C39.1976 8.68359 38.9401 8.72917 38.7168 8.82031C38.4935 8.91146 38.3044 9.03906 38.1494 9.20312C37.9945 9.36719 37.8714 9.56315 37.7803 9.79102C37.6937 10.0143 37.6367 10.2604 37.6094 10.5293L37.2539 10.7344C37.2539 10.2878 37.2972 9.86849 37.3838 9.47656C37.4749 9.08464 37.6139 8.73828 37.8008 8.4375C37.9876 8.13216 38.2246 7.89518 38.5117 7.72656C38.8034 7.55339 39.1497 7.4668 39.5508 7.4668C39.6419 7.4668 39.7467 7.47819 39.8652 7.50098C39.9837 7.51921 40.0658 7.53971 40.1113 7.5625ZM42.5449 9.18262V15H41.2803V7.60352H42.4766L42.5449 9.18262ZM42.2441 11.0215L41.7178 11.001C41.7223 10.4951 41.7975 10.028 41.9434 9.59961C42.0892 9.16667 42.2943 8.79069 42.5586 8.47168C42.8229 8.15267 43.1374 7.90658 43.502 7.7334C43.8711 7.55566 44.279 7.4668 44.7256 7.4668C45.0902 7.4668 45.4183 7.51693 45.71 7.61719C46.0016 7.71289 46.25 7.86784 46.4551 8.08203C46.6647 8.29622 46.8242 8.57422 46.9336 8.91602C47.043 9.25326 47.0977 9.66569 47.0977 10.1533V15H45.8262V10.1396C45.8262 9.75228 45.7692 9.44238 45.6553 9.20996C45.5413 8.97298 45.375 8.80208 45.1562 8.69727C44.9375 8.58789 44.6686 8.5332 44.3496 8.5332C44.0352 8.5332 43.748 8.59928 43.4883 8.73145C43.2331 8.86361 43.012 9.0459 42.8252 9.27832C42.6429 9.51074 42.4993 9.77734 42.3945 10.0781C42.2943 10.3743 42.2441 10.6888 42.2441 11.0215ZM53.749 9.07324V15H52.4775V7.60352H53.6807L53.749 9.07324ZM53.4893 11.0215L52.9014 11.001C52.9059 10.4951 52.972 10.028 53.0996 9.59961C53.2272 9.16667 53.4163 8.79069 53.667 8.47168C53.9176 8.15267 54.2298 7.90658 54.6035 7.7334C54.9772 7.55566 55.4102 7.4668 55.9023 7.4668C56.2487 7.4668 56.5677 7.51693 56.8594 7.61719C57.151 7.71289 57.404 7.86556 57.6182 8.0752C57.8324 8.28483 57.9987 8.55371 58.1172 8.88184C58.2357 9.20996 58.2949 9.60645 58.2949 10.0713V15H57.0303V10.1328C57.0303 9.74544 56.9642 9.43555 56.832 9.20312C56.7044 8.9707 56.5221 8.80208 56.2852 8.69727C56.0482 8.58789 55.7702 8.5332 55.4512 8.5332C55.0775 8.5332 54.7653 8.59928 54.5146 8.73145C54.264 8.86361 54.0635 9.0459 53.9131 9.27832C53.7627 9.51074 53.6533 9.77734 53.585 10.0781C53.5212 10.3743 53.4893 10.6888 53.4893 11.0215ZM58.2812 10.3242L57.4336 10.584C57.4382 10.1784 57.5042 9.78874 57.6318 9.41504C57.764 9.04134 57.9531 8.70866 58.1992 8.41699C58.4499 8.12533 58.7575 7.89518 59.1221 7.72656C59.4867 7.55339 59.9036 7.4668 60.373 7.4668C60.7695 7.4668 61.1204 7.51921 61.4258 7.62402C61.7357 7.72884 61.9954 7.89062 62.2051 8.10938C62.4193 8.32357 62.5811 8.59928 62.6904 8.93652C62.7998 9.27376 62.8545 9.6748 62.8545 10.1396V15H61.583V10.126C61.583 9.71126 61.5169 9.38997 61.3848 9.16211C61.2572 8.92969 61.0749 8.7679 60.8379 8.67676C60.6055 8.58105 60.3275 8.5332 60.0039 8.5332C59.7259 8.5332 59.4798 8.58105 59.2656 8.67676C59.0514 8.77246 58.8714 8.90462 58.7256 9.07324C58.5798 9.2373 58.4681 9.42643 58.3906 9.64062C58.3177 9.85482 58.2812 10.0827 58.2812 10.3242ZM64.4336 11.3838V11.2266C64.4336 10.6934 64.5111 10.1989 64.666 9.74316C64.821 9.28288 65.0443 8.88411 65.3359 8.54688C65.6276 8.20508 65.9808 7.94076 66.3955 7.75391C66.8102 7.5625 67.2751 7.4668 67.79 7.4668C68.3096 7.4668 68.7767 7.5625 69.1914 7.75391C69.6107 7.94076 69.9661 8.20508 70.2578 8.54688C70.554 8.88411 70.7796 9.28288 70.9346 9.74316C71.0895 10.1989 71.167 10.6934 71.167 11.2266V11.3838C71.167 11.917 71.0895 12.4115 70.9346 12.8672C70.7796 13.3229 70.554 13.7217 70.2578 14.0635C69.9661 14.4007 69.613 14.665 69.1982 14.8564C68.7881 15.0433 68.3232 15.1367 67.8037 15.1367C67.2842 15.1367 66.8171 15.0433 66.4023 14.8564C65.9876 14.665 65.6322 14.4007 65.3359 14.0635C65.0443 13.7217 64.821 13.3229 64.666 12.8672C64.5111 12.4115 64.4336 11.917 64.4336 11.3838ZM65.6982 11.2266V11.3838C65.6982 11.7529 65.7415 12.1016 65.8281 12.4297C65.9147 12.7533 66.0446 13.0404 66.2178 13.291C66.3955 13.5417 66.6165 13.7399 66.8809 13.8857C67.1452 14.027 67.4528 14.0977 67.8037 14.0977C68.1501 14.0977 68.4531 14.027 68.7129 13.8857C68.9772 13.7399 69.196 13.5417 69.3691 13.291C69.5423 13.0404 69.6722 12.7533 69.7588 12.4297C69.8499 12.1016 69.8955 11.7529 69.8955 11.3838V11.2266C69.8955 10.862 69.8499 10.5179 69.7588 10.1943C69.6722 9.86621 69.54 9.57682 69.3623 9.32617C69.1891 9.07096 68.9704 8.87044 68.7061 8.72461C68.4463 8.57878 68.141 8.50586 67.79 8.50586C67.4437 8.50586 67.1383 8.57878 66.874 8.72461C66.6143 8.87044 66.3955 9.07096 66.2178 9.32617C66.0446 9.57682 65.9147 9.86621 65.8281 10.1943C65.7415 10.5179 65.6982 10.862 65.6982 11.2266ZM74.0176 9.18262V15H72.7529V7.60352H73.9492L74.0176 9.18262ZM73.7168 11.0215L73.1904 11.001C73.195 10.4951 73.2702 10.028 73.416 9.59961C73.5618 9.16667 73.7669 8.79069 74.0312 8.47168C74.2956 8.15267 74.61 7.90658 74.9746 7.7334C75.3438 7.55566 75.7516 7.4668 76.1982 7.4668C76.5628 7.4668 76.891 7.51693 77.1826 7.61719C77.4743 7.71289 77.7227 7.86784 77.9277 8.08203C78.1374 8.29622 78.2969 8.57422 78.4062 8.91602C78.5156 9.25326 78.5703 9.66569 78.5703 10.1533V15H77.2988V10.1396C77.2988 9.75228 77.2419 9.44238 77.1279 9.20996C77.014 8.97298 76.8477 8.80208 76.6289 8.69727C76.4102 8.58789 76.1413 8.5332 75.8223 8.5332C75.5078 8.5332 75.2207 8.59928 74.9609 8.73145C74.7057 8.86361 74.4847 9.0459 74.2979 9.27832C74.1156 9.51074 73.972 9.77734 73.8672 10.0781C73.7669 10.3743 73.7168 10.6888 73.7168 11.0215ZM83.5605 15.1367C83.0456 15.1367 82.5785 15.0501 82.1592 14.877C81.7445 14.6992 81.3867 14.4508 81.0859 14.1318C80.7897 13.8128 80.5618 13.4346 80.4023 12.9971C80.2428 12.5596 80.1631 12.0811 80.1631 11.5615V11.2744C80.1631 10.6729 80.252 10.1374 80.4297 9.66797C80.6074 9.19401 80.849 8.79297 81.1543 8.46484C81.4596 8.13672 81.806 7.88835 82.1934 7.71973C82.5807 7.55111 82.9818 7.4668 83.3965 7.4668C83.9251 7.4668 84.3809 7.55794 84.7637 7.74023C85.151 7.92253 85.4678 8.17773 85.7139 8.50586C85.96 8.82943 86.1423 9.21224 86.2607 9.6543C86.3792 10.0918 86.4385 10.5703 86.4385 11.0898V11.6572H80.915V10.625H85.1738V10.5293C85.1556 10.2012 85.0872 9.88216 84.9688 9.57227C84.8548 9.26237 84.6725 9.00716 84.4219 8.80664C84.1712 8.60612 83.8294 8.50586 83.3965 8.50586C83.1094 8.50586 82.8451 8.56738 82.6035 8.69043C82.362 8.80892 82.1546 8.98665 81.9814 9.22363C81.8083 9.46061 81.6738 9.75 81.5781 10.0918C81.4824 10.4336 81.4346 10.8278 81.4346 11.2744V11.5615C81.4346 11.9124 81.4824 12.2428 81.5781 12.5527C81.6784 12.8581 81.8219 13.127 82.0088 13.3594C82.2002 13.5918 82.4303 13.7741 82.6992 13.9062C82.9727 14.0384 83.2826 14.1045 83.6289 14.1045C84.0755 14.1045 84.4538 14.0133 84.7637 13.8311C85.0736 13.6488 85.3447 13.4049 85.5771 13.0996L86.3428 13.708C86.1833 13.9495 85.9805 14.1797 85.7344 14.3984C85.4883 14.6172 85.1852 14.7949 84.8252 14.9316C84.4697 15.0684 84.0482 15.1367 83.5605 15.1367ZM89.8975 14.2344L91.9551 7.60352H93.3086L90.3418 16.1416C90.2734 16.3239 90.1823 16.5199 90.0684 16.7295C89.959 16.9437 89.8177 17.1465 89.6445 17.3379C89.4714 17.5293 89.2617 17.6842 89.0156 17.8027C88.7741 17.9258 88.4847 17.9873 88.1475 17.9873C88.0472 17.9873 87.9196 17.9736 87.7646 17.9463C87.6097 17.9189 87.5003 17.8962 87.4365 17.8779L87.4297 16.8525C87.4661 16.8571 87.5231 16.8617 87.6006 16.8662C87.6826 16.8753 87.7396 16.8799 87.7715 16.8799C88.0586 16.8799 88.3024 16.8411 88.5029 16.7637C88.7035 16.6908 88.8721 16.5654 89.0088 16.3877C89.1501 16.2145 89.2708 15.9753 89.3711 15.6699L89.8975 14.2344ZM88.3867 7.60352L90.3076 13.3457L90.6357 14.6787L89.7266 15.1436L87.0059 7.60352H88.3867ZM102.284 13.7354V9.92773C102.284 9.63607 102.225 9.38314 102.106 9.16895C101.993 8.9502 101.819 8.78158 101.587 8.66309C101.354 8.5446 101.067 8.48535 100.726 8.48535C100.407 8.48535 100.126 8.54004 99.8848 8.64941C99.6478 8.75879 99.4609 8.90234 99.3242 9.08008C99.1921 9.25781 99.126 9.44922 99.126 9.6543H97.8613C97.8613 9.38997 97.9297 9.12793 98.0664 8.86816C98.2031 8.6084 98.3991 8.3737 98.6543 8.16406C98.9141 7.94987 99.224 7.78125 99.584 7.6582C99.9486 7.5306 100.354 7.4668 100.801 7.4668C101.339 7.4668 101.812 7.55794 102.223 7.74023C102.637 7.92253 102.961 8.19824 103.193 8.56738C103.43 8.93197 103.549 9.38997 103.549 9.94141V13.3867C103.549 13.6328 103.569 13.8949 103.61 14.1729C103.656 14.4508 103.722 14.6901 103.809 14.8906V15H102.489C102.425 14.8542 102.375 14.6605 102.339 14.4189C102.302 14.1729 102.284 13.945 102.284 13.7354ZM102.503 10.5156L102.517 11.4043H101.238C100.878 11.4043 100.557 11.4339 100.274 11.4932C99.9919 11.5479 99.7549 11.6322 99.5635 11.7461C99.3721 11.86 99.2262 12.0036 99.126 12.1768C99.0257 12.3454 98.9756 12.5436 98.9756 12.7715C98.9756 13.0039 99.028 13.2158 99.1328 13.4072C99.2376 13.5986 99.3949 13.7513 99.6045 13.8652C99.8187 13.9746 100.081 14.0293 100.391 14.0293C100.778 14.0293 101.12 13.9473 101.416 13.7832C101.712 13.6191 101.947 13.4186 102.12 13.1816C102.298 12.9447 102.394 12.7145 102.407 12.4912L102.947 13.0996C102.915 13.291 102.829 13.5029 102.688 13.7354C102.546 13.9678 102.357 14.1911 102.12 14.4053C101.888 14.6149 101.61 14.7904 101.286 14.9316C100.967 15.0684 100.607 15.1367 100.206 15.1367C99.7048 15.1367 99.265 15.0387 98.8867 14.8428C98.513 14.6468 98.2214 14.3848 98.0117 14.0566C97.8066 13.724 97.7041 13.3525 97.7041 12.9424C97.7041 12.5459 97.7816 12.1973 97.9365 11.8965C98.0915 11.5911 98.3148 11.3382 98.6064 11.1377C98.8981 10.9326 99.249 10.7777 99.6592 10.6729C100.069 10.568 100.527 10.5156 101.033 10.5156H102.503ZM106.803 9.18262V15H105.538V7.60352H106.734L106.803 9.18262ZM106.502 11.0215L105.976 11.001C105.98 10.4951 106.055 10.028 106.201 9.59961C106.347 9.16667 106.552 8.79069 106.816 8.47168C107.081 8.15267 107.395 7.90658 107.76 7.7334C108.129 7.55566 108.537 7.4668 108.983 7.4668C109.348 7.4668 109.676 7.51693 109.968 7.61719C110.259 7.71289 110.508 7.86784 110.713 8.08203C110.923 8.29622 111.082 8.57422 111.191 8.91602C111.301 9.25326 111.355 9.66569 111.355 10.1533V15H110.084V10.1396C110.084 9.75228 110.027 9.44238 109.913 9.20996C109.799 8.97298 109.633 8.80208 109.414 8.69727C109.195 8.58789 108.926 8.5332 108.607 8.5332C108.293 8.5332 108.006 8.59928 107.746 8.73145C107.491 8.86361 107.27 9.0459 107.083 9.27832C106.901 9.51074 106.757 9.77734 106.652 10.0781C106.552 10.3743 106.502 10.6888 106.502 11.0215ZM117.938 13.5645V4.5H119.21V15H118.048L117.938 13.5645ZM112.962 11.3838V11.2402C112.962 10.6751 113.03 10.1624 113.167 9.70215C113.308 9.2373 113.507 8.83854 113.762 8.50586C114.021 8.17318 114.329 7.91797 114.685 7.74023C115.045 7.55794 115.446 7.4668 115.888 7.4668C116.353 7.4668 116.758 7.54883 117.104 7.71289C117.455 7.8724 117.752 8.1071 117.993 8.41699C118.239 8.72233 118.433 9.09147 118.574 9.52441C118.715 9.95736 118.813 10.4473 118.868 10.9941V11.623C118.818 12.1654 118.72 12.653 118.574 13.0859C118.433 13.5189 118.239 13.888 117.993 14.1934C117.752 14.4987 117.455 14.7334 117.104 14.8975C116.754 15.057 116.343 15.1367 115.874 15.1367C115.441 15.1367 115.045 15.0433 114.685 14.8564C114.329 14.6696 114.021 14.4076 113.762 14.0703C113.507 13.7331 113.308 13.3366 113.167 12.8809C113.03 12.4206 112.962 11.9215 112.962 11.3838ZM114.233 11.2402V11.3838C114.233 11.7529 114.27 12.0993 114.343 12.4229C114.42 12.7464 114.539 13.0312 114.698 13.2773C114.858 13.5234 115.061 13.7171 115.307 13.8584C115.553 13.9951 115.847 14.0635 116.188 14.0635C116.608 14.0635 116.952 13.9746 117.221 13.7969C117.494 13.6191 117.713 13.3844 117.877 13.0928C118.041 12.8011 118.169 12.4844 118.26 12.1426V10.4951C118.205 10.2445 118.125 10.0029 118.021 9.77051C117.92 9.53353 117.788 9.32389 117.624 9.1416C117.465 8.95475 117.266 8.80664 117.029 8.69727C116.797 8.58789 116.521 8.5332 116.202 8.5332C115.856 8.5332 115.557 8.60612 115.307 8.75195C115.061 8.89323 114.858 9.08919 114.698 9.33984C114.539 9.58594 114.42 9.87305 114.343 10.2012C114.27 10.5247 114.233 10.8711 114.233 11.2402ZM127.748 7.60352V8.57422H123.749V7.60352H127.748ZM125.103 5.80566H126.367V13.168C126.367 13.4186 126.406 13.6077 126.483 13.7354C126.561 13.863 126.661 13.9473 126.784 13.9883C126.907 14.0293 127.039 14.0498 127.181 14.0498C127.285 14.0498 127.395 14.0407 127.509 14.0225C127.627 13.9997 127.716 13.9814 127.775 13.9678L127.782 15C127.682 15.0319 127.55 15.0615 127.386 15.0889C127.226 15.1208 127.033 15.1367 126.805 15.1367C126.495 15.1367 126.21 15.0752 125.95 14.9521C125.69 14.8291 125.483 14.624 125.328 14.3369C125.178 14.0452 125.103 13.6533 125.103 13.1611V5.80566ZM130.496 8.76562V15H129.231V7.60352H130.462L130.496 8.76562ZM132.807 7.5625L132.8 8.73828C132.695 8.71549 132.595 8.70182 132.499 8.69727C132.408 8.68815 132.303 8.68359 132.185 8.68359C131.893 8.68359 131.635 8.72917 131.412 8.82031C131.189 8.91146 131 9.03906 130.845 9.20312C130.69 9.36719 130.567 9.56315 130.476 9.79102C130.389 10.0143 130.332 10.2604 130.305 10.5293L129.949 10.7344C129.949 10.2878 129.993 9.86849 130.079 9.47656C130.17 9.08464 130.309 8.73828 130.496 8.4375C130.683 8.13216 130.92 7.89518 131.207 7.72656C131.499 7.55339 131.845 7.4668 132.246 7.4668C132.337 7.4668 132.442 7.47819 132.561 7.50098C132.679 7.51921 132.761 7.53971 132.807 7.5625ZM138.063 13.7354V9.92773C138.063 9.63607 138.004 9.38314 137.886 9.16895C137.772 8.9502 137.599 8.78158 137.366 8.66309C137.134 8.5446 136.847 8.48535 136.505 8.48535C136.186 8.48535 135.906 8.54004 135.664 8.64941C135.427 8.75879 135.24 8.90234 135.104 9.08008C134.971 9.25781 134.905 9.44922 134.905 9.6543H133.641C133.641 9.38997 133.709 9.12793 133.846 8.86816C133.982 8.6084 134.178 8.3737 134.434 8.16406C134.693 7.94987 135.003 7.78125 135.363 7.6582C135.728 7.5306 136.133 7.4668 136.58 7.4668C137.118 7.4668 137.592 7.55794 138.002 7.74023C138.417 7.92253 138.74 8.19824 138.973 8.56738C139.21 8.93197 139.328 9.38997 139.328 9.94141V13.3867C139.328 13.6328 139.349 13.8949 139.39 14.1729C139.435 14.4508 139.501 14.6901 139.588 14.8906V15H138.269C138.205 14.8542 138.155 14.6605 138.118 14.4189C138.082 14.1729 138.063 13.945 138.063 13.7354ZM138.282 10.5156L138.296 11.4043H137.018C136.658 11.4043 136.336 11.4339 136.054 11.4932C135.771 11.5479 135.534 11.6322 135.343 11.7461C135.151 11.86 135.006 12.0036 134.905 12.1768C134.805 12.3454 134.755 12.5436 134.755 12.7715C134.755 13.0039 134.807 13.2158 134.912 13.4072C135.017 13.5986 135.174 13.7513 135.384 13.8652C135.598 13.9746 135.86 14.0293 136.17 14.0293C136.557 14.0293 136.899 13.9473 137.195 13.7832C137.492 13.6191 137.726 13.4186 137.899 13.1816C138.077 12.9447 138.173 12.7145 138.187 12.4912L138.727 13.0996C138.695 13.291 138.608 13.5029 138.467 13.7354C138.326 13.9678 138.136 14.1911 137.899 14.4053C137.667 14.6149 137.389 14.7904 137.065 14.9316C136.746 15.0684 136.386 15.1367 135.985 15.1367C135.484 15.1367 135.044 15.0387 134.666 14.8428C134.292 14.6468 134.001 14.3848 133.791 14.0566C133.586 13.724 133.483 13.3525 133.483 12.9424C133.483 12.5459 133.561 12.1973 133.716 11.8965C133.871 11.5911 134.094 11.3382 134.386 11.1377C134.677 10.9326 135.028 10.7777 135.438 10.6729C135.849 10.568 136.307 10.5156 136.812 10.5156H138.282ZM143.457 13.8584L145.48 7.60352H146.772L144.113 15H143.266L143.457 13.8584ZM141.769 7.60352L143.854 13.8926L143.997 15H143.149L140.47 7.60352H141.769ZM150.963 15.1367C150.448 15.1367 149.981 15.0501 149.562 14.877C149.147 14.6992 148.789 14.4508 148.488 14.1318C148.192 13.8128 147.964 13.4346 147.805 12.9971C147.645 12.5596 147.565 12.0811 147.565 11.5615V11.2744C147.565 10.6729 147.654 10.1374 147.832 9.66797C148.01 9.19401 148.251 8.79297 148.557 8.46484C148.862 8.13672 149.208 7.88835 149.596 7.71973C149.983 7.55111 150.384 7.4668 150.799 7.4668C151.327 7.4668 151.783 7.55794 152.166 7.74023C152.553 7.92253 152.87 8.17773 153.116 8.50586C153.362 8.82943 153.545 9.21224 153.663 9.6543C153.782 10.0918 153.841 10.5703 153.841 11.0898V11.6572H148.317V10.625H152.576V10.5293C152.558 10.2012 152.49 9.88216 152.371 9.57227C152.257 9.26237 152.075 9.00716 151.824 8.80664C151.574 8.60612 151.232 8.50586 150.799 8.50586C150.512 8.50586 150.247 8.56738 150.006 8.69043C149.764 8.80892 149.557 8.98665 149.384 9.22363C149.211 9.46061 149.076 9.75 148.98 10.0918C148.885 10.4336 148.837 10.8278 148.837 11.2744V11.5615C148.837 11.9124 148.885 12.2428 148.98 12.5527C149.081 12.8581 149.224 13.127 149.411 13.3594C149.603 13.5918 149.833 13.7741 150.102 13.9062C150.375 14.0384 150.685 14.1045 151.031 14.1045C151.478 14.1045 151.856 14.0133 152.166 13.8311C152.476 13.6488 152.747 13.4049 152.979 13.0996L153.745 13.708C153.586 13.9495 153.383 14.1797 153.137 14.3984C152.891 14.6172 152.588 14.7949 152.228 14.9316C151.872 15.0684 151.451 15.1367 150.963 15.1367ZM156.691 4.5V15H155.42V4.5H156.691ZM164.081 15H162.816V6.82422C162.816 6.29102 162.912 5.84212 163.104 5.47754C163.299 5.1084 163.58 4.8304 163.944 4.64355C164.309 4.45215 164.742 4.35645 165.243 4.35645C165.389 4.35645 165.535 4.36556 165.681 4.38379C165.831 4.40202 165.977 4.42936 166.118 4.46582L166.05 5.49805C165.954 5.47526 165.845 5.45931 165.722 5.4502C165.603 5.44108 165.485 5.43652 165.366 5.43652C165.097 5.43652 164.865 5.49121 164.669 5.60059C164.478 5.7054 164.332 5.86035 164.231 6.06543C164.131 6.27051 164.081 6.52344 164.081 6.82422V15ZM165.653 7.60352V8.57422H161.647V7.60352H165.653ZM166.727 11.3838V11.2266C166.727 10.6934 166.804 10.1989 166.959 9.74316C167.114 9.28288 167.337 8.88411 167.629 8.54688C167.921 8.20508 168.274 7.94076 168.688 7.75391C169.103 7.5625 169.568 7.4668 170.083 7.4668C170.603 7.4668 171.07 7.5625 171.484 7.75391C171.904 7.94076 172.259 8.20508 172.551 8.54688C172.847 8.88411 173.073 9.28288 173.228 9.74316C173.382 10.1989 173.46 10.6934 173.46 11.2266V11.3838C173.46 11.917 173.382 12.4115 173.228 12.8672C173.073 13.3229 172.847 13.7217 172.551 14.0635C172.259 14.4007 171.906 14.665 171.491 14.8564C171.081 15.0433 170.616 15.1367 170.097 15.1367C169.577 15.1367 169.11 15.0433 168.695 14.8564C168.281 14.665 167.925 14.4007 167.629 14.0635C167.337 13.7217 167.114 13.3229 166.959 12.8672C166.804 12.4115 166.727 11.917 166.727 11.3838ZM167.991 11.2266V11.3838C167.991 11.7529 168.035 12.1016 168.121 12.4297C168.208 12.7533 168.338 13.0404 168.511 13.291C168.688 13.5417 168.91 13.7399 169.174 13.8857C169.438 14.027 169.746 14.0977 170.097 14.0977C170.443 14.0977 170.746 14.027 171.006 13.8857C171.27 13.7399 171.489 13.5417 171.662 13.291C171.835 13.0404 171.965 12.7533 172.052 12.4297C172.143 12.1016 172.188 11.7529 172.188 11.3838V11.2266C172.188 10.862 172.143 10.5179 172.052 10.1943C171.965 9.86621 171.833 9.57682 171.655 9.32617C171.482 9.07096 171.263 8.87044 170.999 8.72461C170.739 8.57878 170.434 8.50586 170.083 8.50586C169.737 8.50586 169.431 8.57878 169.167 8.72461C168.907 8.87044 168.688 9.07096 168.511 9.32617C168.338 9.57682 168.208 9.86621 168.121 10.1943C168.035 10.5179 167.991 10.862 167.991 11.2266ZM176.311 8.76562V15H175.046V7.60352H176.276L176.311 8.76562ZM178.621 7.5625L178.614 8.73828C178.509 8.71549 178.409 8.70182 178.313 8.69727C178.222 8.68815 178.118 8.68359 177.999 8.68359C177.707 8.68359 177.45 8.72917 177.227 8.82031C177.003 8.91146 176.814 9.03906 176.659 9.20312C176.504 9.36719 176.381 9.56315 176.29 9.79102C176.203 10.0143 176.146 10.2604 176.119 10.5293L175.764 10.7344C175.764 10.2878 175.807 9.86849 175.894 9.47656C175.985 9.08464 176.124 8.73828 176.311 8.4375C176.497 8.13216 176.734 7.89518 177.021 7.72656C177.313 7.55339 177.66 7.4668 178.061 7.4668C178.152 7.4668 178.257 7.47819 178.375 7.50098C178.493 7.51921 178.576 7.53971 178.621 7.5625ZM185.149 15H183.885V6.82422C183.885 6.29102 183.98 5.84212 184.172 5.47754C184.368 5.1084 184.648 4.8304 185.013 4.64355C185.377 4.45215 185.81 4.35645 186.312 4.35645C186.457 4.35645 186.603 4.36556 186.749 4.38379C186.899 4.40202 187.045 4.42936 187.187 4.46582L187.118 5.49805C187.022 5.47526 186.913 5.45931 186.79 5.4502C186.672 5.44108 186.553 5.43652 186.435 5.43652C186.166 5.43652 185.933 5.49121 185.737 5.60059C185.546 5.7054 185.4 5.86035 185.3 6.06543C185.2 6.27051 185.149 6.52344 185.149 6.82422V15ZM186.722 7.60352V8.57422H182.716V7.60352H186.722ZM189.395 8.76562V15H188.13V7.60352H189.36L189.395 8.76562ZM191.705 7.5625L191.698 8.73828C191.593 8.71549 191.493 8.70182 191.397 8.69727C191.306 8.68815 191.201 8.68359 191.083 8.68359C190.791 8.68359 190.534 8.72917 190.311 8.82031C190.087 8.91146 189.898 9.03906 189.743 9.20312C189.588 9.36719 189.465 9.56315 189.374 9.79102C189.287 10.0143 189.23 10.2604 189.203 10.5293L188.848 10.7344C188.848 10.2878 188.891 9.86849 188.978 9.47656C189.069 9.08464 189.208 8.73828 189.395 8.4375C189.581 8.13216 189.818 7.89518 190.105 7.72656C190.397 7.55339 190.743 7.4668 191.145 7.4668C191.236 7.4668 191.34 7.47819 191.459 7.50098C191.577 7.51921 191.66 7.53971 191.705 7.5625ZM195.807 15.1367C195.292 15.1367 194.825 15.0501 194.405 14.877C193.991 14.6992 193.633 14.4508 193.332 14.1318C193.036 13.8128 192.808 13.4346 192.648 12.9971C192.489 12.5596 192.409 12.0811 192.409 11.5615V11.2744C192.409 10.6729 192.498 10.1374 192.676 9.66797C192.854 9.19401 193.095 8.79297 193.4 8.46484C193.706 8.13672 194.052 7.88835 194.439 7.71973C194.827 7.55111 195.228 7.4668 195.643 7.4668C196.171 7.4668 196.627 7.55794 197.01 7.74023C197.397 7.92253 197.714 8.17773 197.96 8.50586C198.206 8.82943 198.388 9.21224 198.507 9.6543C198.625 10.0918 198.685 10.5703 198.685 11.0898V11.6572H193.161V10.625H197.42V10.5293C197.402 10.2012 197.333 9.88216 197.215 9.57227C197.101 9.26237 196.919 9.00716 196.668 8.80664C196.417 8.60612 196.076 8.50586 195.643 8.50586C195.355 8.50586 195.091 8.56738 194.85 8.69043C194.608 8.80892 194.401 8.98665 194.228 9.22363C194.054 9.46061 193.92 9.75 193.824 10.0918C193.729 10.4336 193.681 10.8278 193.681 11.2744V11.5615C193.681 11.9124 193.729 12.2428 193.824 12.5527C193.924 12.8581 194.068 13.127 194.255 13.3594C194.446 13.5918 194.676 13.7741 194.945 13.9062C195.219 14.0384 195.529 14.1045 195.875 14.1045C196.322 14.1045 196.7 14.0133 197.01 13.8311C197.32 13.6488 197.591 13.4049 197.823 13.0996L198.589 13.708C198.429 13.9495 198.227 14.1797 197.98 14.3984C197.734 14.6172 197.431 14.7949 197.071 14.9316C196.716 15.0684 196.294 15.1367 195.807 15.1367ZM203.23 15.1367C202.715 15.1367 202.248 15.0501 201.829 14.877C201.414 14.6992 201.057 14.4508 200.756 14.1318C200.46 13.8128 200.232 13.4346 200.072 12.9971C199.913 12.5596 199.833 12.0811 199.833 11.5615V11.2744C199.833 10.6729 199.922 10.1374 200.1 9.66797C200.277 9.19401 200.519 8.79297 200.824 8.46484C201.13 8.13672 201.476 7.88835 201.863 7.71973C202.251 7.55111 202.652 7.4668 203.066 7.4668C203.595 7.4668 204.051 7.55794 204.434 7.74023C204.821 7.92253 205.138 8.17773 205.384 8.50586C205.63 8.82943 205.812 9.21224 205.931 9.6543C206.049 10.0918 206.108 10.5703 206.108 11.0898V11.6572H200.585V10.625H204.844V10.5293C204.826 10.2012 204.757 9.88216 204.639 9.57227C204.525 9.26237 204.342 9.00716 204.092 8.80664C203.841 8.60612 203.499 8.50586 203.066 8.50586C202.779 8.50586 202.515 8.56738 202.273 8.69043C202.032 8.80892 201.825 8.98665 201.651 9.22363C201.478 9.46061 201.344 9.75 201.248 10.0918C201.152 10.4336 201.104 10.8278 201.104 11.2744V11.5615C201.104 11.9124 201.152 12.2428 201.248 12.5527C201.348 12.8581 201.492 13.127 201.679 13.3594C201.87 13.5918 202.1 13.7741 202.369 13.9062C202.643 14.0384 202.952 14.1045 203.299 14.1045C203.745 14.1045 204.124 14.0133 204.434 13.8311C204.743 13.6488 205.015 13.4049 205.247 13.0996L206.013 13.708C205.853 13.9495 205.65 14.1797 205.404 14.3984C205.158 14.6172 204.855 14.7949 204.495 14.9316C204.14 15.0684 203.718 15.1367 203.23 15.1367Z" fill="#1D1B1F"/>
</svg>
